<mxfile host="app.diagrams.net" modified="2021-08-07T10:21:04.822Z" agent="5.0 (Windows NT 10.0; WOW64) AppleWebKit/537.36 (KHTML, like Gecko) Chrome/85.0.4183.102 Safari/537.36" etag="WuNsJu1KD5xY_zNeNSkJ" version="14.9.5" type="github">
  <diagram id="xuwC2SjfgKGMU_P8woHL" name="Page-1">
    <mxGraphModel dx="1038" dy="547" grid="0" gridSize="10" guides="1" tooltips="1" connect="1" arrows="1" fold="1" page="1" pageScale="1" pageWidth="827" pageHeight="1169" math="0" shadow="0">
      <root>
        <mxCell id="0" />
        <mxCell id="1" parent="0" />
        <mxCell id="dNV8rXrrPTFe7oQsCCH1-16" value="Gamesvr集群&lt;br&gt;&lt;br&gt;&lt;br&gt;&lt;br&gt;&lt;br&gt;" style="rounded=1;whiteSpace=wrap;html=1;fillColor=#f5f5f5;strokeColor=#666666;fontColor=#333333;" vertex="1" parent="1">
          <mxGeometry x="241" y="7529" width="349" height="80" as="geometry" />
        </mxCell>
        <mxCell id="dNV8rXrrPTFe7oQsCCH1-75" style="edgeStyle=orthogonalEdgeStyle;rounded=0;orthogonalLoop=1;jettySize=auto;html=1;exitX=0.5;exitY=1;exitDx=0;exitDy=0;entryX=0.5;entryY=0;entryDx=0;entryDy=0;startArrow=classicThin;startFill=1;endArrow=classicThin;endFill=1;" edge="1" parent="1" source="dNV8rXrrPTFe7oQsCCH1-33" target="dNV8rXrrPTFe7oQsCCH1-39">
          <mxGeometry relative="1" as="geometry" />
        </mxCell>
        <mxCell id="dNV8rXrrPTFe7oQsCCH1-33" value="&lt;br&gt;&lt;br&gt;&lt;br&gt;&lt;br&gt;Proxysvr集群" style="rounded=1;whiteSpace=wrap;html=1;fillColor=#f5f5f5;strokeColor=#666666;fontColor=#333333;" vertex="1" parent="1">
          <mxGeometry x="237" y="7670" width="356" height="80" as="geometry" />
        </mxCell>
        <mxCell id="dNV8rXrrPTFe7oQsCCH1-78" style="edgeStyle=orthogonalEdgeStyle;rounded=0;orthogonalLoop=1;jettySize=auto;html=1;exitX=0;exitY=0.5;exitDx=0;exitDy=0;entryX=1;entryY=0.5;entryDx=0;entryDy=0;startArrow=classicThin;startFill=1;endArrow=classicThin;endFill=1;" edge="1" parent="1" source="dNV8rXrrPTFe7oQsCCH1-40" target="dNV8rXrrPTFe7oQsCCH1-33">
          <mxGeometry relative="1" as="geometry" />
        </mxCell>
        <mxCell id="dNV8rXrrPTFe7oQsCCH1-40" value="聊天服务器&lt;br&gt;&lt;br&gt;&lt;br&gt;&lt;br&gt;" style="rounded=1;whiteSpace=wrap;html=1;fillColor=#f5f5f5;strokeColor=#666666;fontColor=#333333;" vertex="1" parent="1">
          <mxGeometry x="633" y="7529" width="144" height="75.5" as="geometry" />
        </mxCell>
        <mxCell id="dNV8rXrrPTFe7oQsCCH1-79" style="edgeStyle=orthogonalEdgeStyle;rounded=0;orthogonalLoop=1;jettySize=auto;html=1;exitX=0;exitY=0.5;exitDx=0;exitDy=0;entryX=1;entryY=0.5;entryDx=0;entryDy=0;startArrow=classicThin;startFill=1;endArrow=classicThin;endFill=1;" edge="1" parent="1" source="dNV8rXrrPTFe7oQsCCH1-41" target="dNV8rXrrPTFe7oQsCCH1-33">
          <mxGeometry relative="1" as="geometry" />
        </mxCell>
        <mxCell id="dNV8rXrrPTFe7oQsCCH1-41" value="全局服务器&lt;br&gt;&lt;br&gt;&lt;br&gt;&lt;br&gt;&lt;br&gt;&lt;br&gt;&lt;br&gt;&lt;br&gt;&lt;br&gt;&lt;br&gt;&lt;br&gt;" style="rounded=1;whiteSpace=wrap;html=1;fillColor=#f5f5f5;strokeColor=#666666;fontColor=#333333;" vertex="1" parent="1">
          <mxGeometry x="634" y="7627.99" width="143" height="164" as="geometry" />
        </mxCell>
        <mxCell id="dNV8rXrrPTFe7oQsCCH1-80" style="edgeStyle=orthogonalEdgeStyle;rounded=0;orthogonalLoop=1;jettySize=auto;html=1;exitX=1;exitY=0.5;exitDx=0;exitDy=0;entryX=0;entryY=0.5;entryDx=0;entryDy=0;startArrow=classicThin;startFill=1;endArrow=classicThin;endFill=1;" edge="1" parent="1" source="dNV8rXrrPTFe7oQsCCH1-50" target="dNV8rXrrPTFe7oQsCCH1-33">
          <mxGeometry relative="1" as="geometry" />
        </mxCell>
        <mxCell id="dNV8rXrrPTFe7oQsCCH1-50" value="IDIP服务器&lt;br&gt;&lt;br&gt;&lt;br&gt;&lt;br&gt;" style="rounded=1;whiteSpace=wrap;html=1;fillColor=#f5f5f5;strokeColor=#666666;fontColor=#333333;" vertex="1" parent="1">
          <mxGeometry x="53.75" y="7529" width="140.25" height="75.5" as="geometry" />
        </mxCell>
        <mxCell id="dNV8rXrrPTFe7oQsCCH1-82" style="edgeStyle=orthogonalEdgeStyle;rounded=0;orthogonalLoop=1;jettySize=auto;html=1;exitX=1;exitY=0.5;exitDx=0;exitDy=0;entryX=0;entryY=0.5;entryDx=0;entryDy=0;startArrow=classicThin;startFill=1;endArrow=classicThin;endFill=1;" edge="1" parent="1" source="dNV8rXrrPTFe7oQsCCH1-52" target="dNV8rXrrPTFe7oQsCCH1-33">
          <mxGeometry relative="1" as="geometry" />
        </mxCell>
        <mxCell id="dNV8rXrrPTFe7oQsCCH1-52" value="公共服务器&lt;br&gt;&lt;br&gt;&lt;br&gt;&lt;br&gt;&lt;br&gt;&lt;br&gt;&lt;br&gt;&lt;br&gt;&lt;br&gt;&lt;br&gt;&lt;br&gt;" style="rounded=1;whiteSpace=wrap;html=1;fillColor=#f5f5f5;strokeColor=#666666;fontColor=#333333;" vertex="1" parent="1">
          <mxGeometry x="55.25" y="7631.37" width="137.25" height="157.25" as="geometry" />
        </mxCell>
        <mxCell id="dNV8rXrrPTFe7oQsCCH1-7" value="社交接入&lt;br&gt;&lt;br&gt;&lt;br&gt;&lt;br&gt;" style="rounded=1;whiteSpace=wrap;html=1;fillColor=#f5f5f5;strokeColor=#666666;fontColor=#333333;" vertex="1" parent="1">
          <mxGeometry x="654.5" y="7427" width="120" height="60" as="geometry" />
        </mxCell>
        <mxCell id="dNV8rXrrPTFe7oQsCCH1-84" style="edgeStyle=orthogonalEdgeStyle;rounded=0;orthogonalLoop=1;jettySize=auto;html=1;exitX=0.25;exitY=1;exitDx=0;exitDy=0;entryX=0.169;entryY=0.005;entryDx=0;entryDy=0;entryPerimeter=0;startArrow=classicThin;startFill=1;endArrow=classicThin;endFill=1;" edge="1" parent="1" source="dNV8rXrrPTFe7oQsCCH1-4" target="dNV8rXrrPTFe7oQsCCH1-16">
          <mxGeometry relative="1" as="geometry" />
        </mxCell>
        <mxCell id="dNV8rXrrPTFe7oQsCCH1-85" style="edgeStyle=orthogonalEdgeStyle;rounded=0;orthogonalLoop=1;jettySize=auto;html=1;exitX=0.75;exitY=1;exitDx=0;exitDy=0;entryX=0.817;entryY=0;entryDx=0;entryDy=0;entryPerimeter=0;startArrow=classicThin;startFill=1;endArrow=classicThin;endFill=1;" edge="1" parent="1" source="dNV8rXrrPTFe7oQsCCH1-4" target="dNV8rXrrPTFe7oQsCCH1-16">
          <mxGeometry relative="1" as="geometry" />
        </mxCell>
        <mxCell id="dNV8rXrrPTFe7oQsCCH1-4" value="" style="rounded=1;whiteSpace=wrap;html=1;fillColor=#f5f5f5;strokeColor=#666666;fontColor=#333333;" vertex="1" parent="1">
          <mxGeometry x="187.25" y="7417" width="452" height="80" as="geometry" />
        </mxCell>
        <mxCell id="dNV8rXrrPTFe7oQsCCH1-8" value="IDIP接入&lt;br&gt;&lt;br&gt;&lt;br&gt;&lt;br&gt;" style="rounded=1;whiteSpace=wrap;html=1;fillColor=#f5f5f5;strokeColor=#666666;fontColor=#333333;" vertex="1" parent="1">
          <mxGeometry x="53.5" y="7427" width="120" height="60" as="geometry" />
        </mxCell>
        <mxCell id="O3Mjcj8SoWYWXLtXBjFT-140" style="edgeStyle=none;rounded=0;orthogonalLoop=1;jettySize=auto;html=1;exitX=1;exitY=0.25;exitDx=0;exitDy=0;entryX=0.002;entryY=0.587;entryDx=0;entryDy=0;entryPerimeter=0;dashed=1;fontSize=18;startArrow=classic;startFill=1;endArrow=classic;endFill=1;strokeWidth=1;" parent="1" source="O3Mjcj8SoWYWXLtXBjFT-128" target="O3Mjcj8SoWYWXLtXBjFT-97" edge="1">
          <mxGeometry relative="1" as="geometry" />
        </mxCell>
        <mxCell id="O3Mjcj8SoWYWXLtXBjFT-128" value="" style="rounded=1;whiteSpace=wrap;html=1;dashed=1;fillColor=#f5f5f5;strokeColor=#666666;fontColor=#333333;" parent="1" vertex="1">
          <mxGeometry x="63" y="6002" width="108" height="218" as="geometry" />
        </mxCell>
        <mxCell id="O3Mjcj8SoWYWXLtXBjFT-113" style="edgeStyle=none;rounded=0;orthogonalLoop=1;jettySize=auto;html=1;exitX=0.5;exitY=0;exitDx=0;exitDy=0;entryX=0.812;entryY=0.998;entryDx=0;entryDy=0;entryPerimeter=0;dashed=1;startArrow=classic;startFill=1;endArrow=classic;endFill=1;strokeWidth=1;" parent="1" source="O3Mjcj8SoWYWXLtXBjFT-100" target="O3Mjcj8SoWYWXLtXBjFT-97" edge="1">
          <mxGeometry relative="1" as="geometry" />
        </mxCell>
        <mxCell id="O3Mjcj8SoWYWXLtXBjFT-100" value="" style="rounded=1;whiteSpace=wrap;html=1;dashed=1;fillColor=#f8cecc;strokeColor=#b85450;" parent="1" vertex="1">
          <mxGeometry x="504.75" y="6145" width="170" height="110" as="geometry" />
        </mxCell>
        <mxCell id="O3Mjcj8SoWYWXLtXBjFT-112" value="拥有关系" style="edgeStyle=none;rounded=0;orthogonalLoop=1;jettySize=auto;html=1;exitX=1;exitY=0.5;exitDx=0;exitDy=0;entryX=0;entryY=0.5;entryDx=0;entryDy=0;startArrow=none;startFill=0;endArrow=classic;endFill=1;strokeWidth=1;dashed=1;" parent="1" source="O3Mjcj8SoWYWXLtXBjFT-99" target="O3Mjcj8SoWYWXLtXBjFT-100" edge="1">
          <mxGeometry relative="1" as="geometry" />
        </mxCell>
        <mxCell id="O3Mjcj8SoWYWXLtXBjFT-114" style="edgeStyle=none;rounded=0;orthogonalLoop=1;jettySize=auto;html=1;exitX=0.5;exitY=0;exitDx=0;exitDy=0;entryX=0.189;entryY=1.002;entryDx=0;entryDy=0;entryPerimeter=0;dashed=1;startArrow=classic;startFill=1;endArrow=classic;endFill=1;strokeWidth=1;" parent="1" source="O3Mjcj8SoWYWXLtXBjFT-99" target="O3Mjcj8SoWYWXLtXBjFT-97" edge="1">
          <mxGeometry relative="1" as="geometry" />
        </mxCell>
        <mxCell id="O3Mjcj8SoWYWXLtXBjFT-99" value="" style="rounded=1;whiteSpace=wrap;html=1;dashed=1;fillColor=#d5e8d4;strokeColor=#82b366;" parent="1" vertex="1">
          <mxGeometry x="224.75" y="6145" width="170" height="110" as="geometry" />
        </mxCell>
        <mxCell id="O3Mjcj8SoWYWXLtXBjFT-97" value="" style="rounded=1;whiteSpace=wrap;html=1;dashed=1;fillColor=#dae8fc;strokeColor=#6c8ebf;" parent="1" vertex="1">
          <mxGeometry x="224.75" y="5992" width="450" height="110" as="geometry" />
        </mxCell>
        <mxCell id="O3Mjcj8SoWYWXLtXBjFT-60" value="" style="rounded=1;whiteSpace=wrap;html=1;dashed=1;" parent="1" vertex="1">
          <mxGeometry x="388.5" y="5053" width="302.5" height="218" as="geometry" />
        </mxCell>
        <mxCell id="O3Mjcj8SoWYWXLtXBjFT-63" style="edgeStyle=none;rounded=0;orthogonalLoop=1;jettySize=auto;html=1;exitX=0.5;exitY=1;exitDx=0;exitDy=0;entryX=0.5;entryY=0;entryDx=0;entryDy=0;startArrow=none;startFill=0;endArrow=classic;endFill=1;strokeWidth=3;" parent="1" source="O3Mjcj8SoWYWXLtXBjFT-58" target="O3Mjcj8SoWYWXLtXBjFT-60" edge="1">
          <mxGeometry relative="1" as="geometry" />
        </mxCell>
        <mxCell id="O3Mjcj8SoWYWXLtXBjFT-58" value="" style="rounded=1;whiteSpace=wrap;html=1;dashed=1;" parent="1" vertex="1">
          <mxGeometry x="388.5" y="4771" width="302.5" height="244" as="geometry" />
        </mxCell>
        <mxCell id="O3Mjcj8SoWYWXLtXBjFT-59" style="edgeStyle=none;rounded=0;orthogonalLoop=1;jettySize=auto;html=1;exitX=1;exitY=0.5;exitDx=0;exitDy=0;entryX=0;entryY=0.5;entryDx=0;entryDy=0;startArrow=none;startFill=0;endArrow=classic;endFill=1;strokeWidth=3;" parent="1" source="O3Mjcj8SoWYWXLtXBjFT-57" target="O3Mjcj8SoWYWXLtXBjFT-58" edge="1">
          <mxGeometry relative="1" as="geometry" />
        </mxCell>
        <mxCell id="O3Mjcj8SoWYWXLtXBjFT-57" value="" style="rounded=1;whiteSpace=wrap;html=1;dashed=1;" parent="1" vertex="1">
          <mxGeometry x="39" y="4771" width="302.5" height="244" as="geometry" />
        </mxCell>
        <mxCell id="FpHgc7WrGRojn5kCcH6X-7" value="1.美术种" style="edgeStyle=orthogonalEdgeStyle;rounded=0;orthogonalLoop=1;jettySize=auto;exitX=0.5;exitY=1;exitDx=0;exitDy=0;entryX=0.5;entryY=0;entryDx=0;entryDy=0;html=1;fillColor=#dae8fc;strokeColor=#6c8ebf;" parent="1" source="FpHgc7WrGRojn5kCcH6X-2" target="FpHgc7WrGRojn5kCcH6X-3" edge="1">
          <mxGeometry relative="1" as="geometry" />
        </mxCell>
        <mxCell id="FpHgc7WrGRojn5kCcH6X-2" value="种树" style="rounded=1;whiteSpace=wrap;html=1;fillColor=#dae8fc;strokeColor=#6c8ebf;" parent="1" vertex="1">
          <mxGeometry x="207" y="411" width="100" height="40" as="geometry" />
        </mxCell>
        <mxCell id="FpHgc7WrGRojn5kCcH6X-13" value="2.生成地图阻挡" style="edgeStyle=orthogonalEdgeStyle;orthogonalLoop=1;jettySize=auto;html=1;exitX=0.5;exitY=1;exitDx=0;exitDy=0;entryX=0.5;entryY=0;entryDx=0;entryDy=0;jumpStyle=none;curved=1;fillColor=#dae8fc;strokeColor=#6c8ebf;" parent="1" source="FpHgc7WrGRojn5kCcH6X-3" target="FpHgc7WrGRojn5kCcH6X-4" edge="1">
          <mxGeometry relative="1" as="geometry" />
        </mxCell>
        <mxCell id="FpHgc7WrGRojn5kCcH6X-14" value="3.生成种树配置" style="edgeStyle=orthogonalEdgeStyle;curved=1;jumpStyle=none;orthogonalLoop=1;jettySize=auto;html=1;exitX=0.5;exitY=1;exitDx=0;exitDy=0;entryX=0.5;entryY=0;entryDx=0;entryDy=0;fillColor=#dae8fc;strokeColor=#6c8ebf;" parent="1" source="FpHgc7WrGRojn5kCcH6X-3" target="FpHgc7WrGRojn5kCcH6X-5" edge="1">
          <mxGeometry relative="1" as="geometry" />
        </mxCell>
        <mxCell id="FpHgc7WrGRojn5kCcH6X-3" value="地图编辑器" style="rounded=0;whiteSpace=wrap;html=1;fillColor=#dae8fc;strokeColor=#6c8ebf;" parent="1" vertex="1">
          <mxGeometry x="207" y="502" width="100" height="40" as="geometry" />
        </mxCell>
        <mxCell id="FpHgc7WrGRojn5kCcH6X-15" value="UUID关联" style="edgeStyle=orthogonalEdgeStyle;jumpStyle=none;orthogonalLoop=1;jettySize=auto;html=1;exitX=1;exitY=0.5;exitDx=0;exitDy=0;entryX=0;entryY=0.5;entryDx=0;entryDy=0;rounded=0;dashed=1;endArrow=classicThin;endFill=1;startArrow=classicThin;startFill=1;fillColor=#dae8fc;strokeColor=#6c8ebf;" parent="1" source="FpHgc7WrGRojn5kCcH6X-4" target="FpHgc7WrGRojn5kCcH6X-5" edge="1">
          <mxGeometry relative="1" as="geometry" />
        </mxCell>
        <mxCell id="FpHgc7WrGRojn5kCcH6X-4" value="阻挡&lt;br&gt;UUID" style="rounded=0;whiteSpace=wrap;html=1;fillColor=#dae8fc;strokeColor=#6c8ebf;" parent="1" vertex="1">
          <mxGeometry x="107" y="635" width="100" height="60" as="geometry" />
        </mxCell>
        <mxCell id="FpHgc7WrGRojn5kCcH6X-5" value="树配置&lt;br&gt;UUID，Pos&lt;br&gt;ModelID+Level" style="rounded=0;whiteSpace=wrap;html=1;fillColor=#dae8fc;strokeColor=#6c8ebf;" parent="1" vertex="1">
          <mxGeometry x="327" y="635" width="100" height="60" as="geometry" />
        </mxCell>
        <mxCell id="veWlUdRtgyP46phBlkag-6" value="1.策划配表" style="edgeStyle=orthogonalEdgeStyle;rounded=0;orthogonalLoop=1;jettySize=auto;html=1;exitX=0.5;exitY=1;exitDx=0;exitDy=0;entryX=0.5;entryY=0;entryDx=0;entryDy=0;startArrow=none;startFill=0;endArrow=classicThin;endFill=1;fillColor=#d5e8d4;strokeColor=#82b366;" parent="1" source="veWlUdRtgyP46phBlkag-3" target="veWlUdRtgyP46phBlkag-4" edge="1">
          <mxGeometry relative="1" as="geometry" />
        </mxCell>
        <mxCell id="veWlUdRtgyP46phBlkag-3" value="配表" style="rounded=1;whiteSpace=wrap;html=1;fillColor=#d5e8d4;strokeColor=#82b366;" parent="1" vertex="1">
          <mxGeometry x="546" y="411" width="100" height="40" as="geometry" />
        </mxCell>
        <mxCell id="veWlUdRtgyP46phBlkag-9" value="2.导出pb文件" style="edgeStyle=orthogonalEdgeStyle;rounded=0;orthogonalLoop=1;jettySize=auto;html=1;exitX=0.5;exitY=1;exitDx=0;exitDy=0;entryX=0.5;entryY=0;entryDx=0;entryDy=0;startArrow=none;startFill=0;endArrow=classicThin;endFill=1;fillColor=#d5e8d4;strokeColor=#82b366;" parent="1" source="veWlUdRtgyP46phBlkag-4" target="veWlUdRtgyP46phBlkag-7" edge="1">
          <mxGeometry relative="1" as="geometry" />
        </mxCell>
        <mxCell id="veWlUdRtgyP46phBlkag-4" value="表格" style="rounded=0;whiteSpace=wrap;html=1;fillColor=#d5e8d4;strokeColor=#82b366;" parent="1" vertex="1">
          <mxGeometry x="546" y="502" width="100" height="40" as="geometry" />
        </mxCell>
        <mxCell id="veWlUdRtgyP46phBlkag-7" value="掉落配置&lt;br&gt;ResID&lt;br&gt;ModelID+Level" style="rounded=0;whiteSpace=wrap;html=1;fillColor=#d5e8d4;strokeColor=#82b366;" parent="1" vertex="1">
          <mxGeometry x="546" y="635" width="100" height="60" as="geometry" />
        </mxCell>
        <mxCell id="veWlUdRtgyP46phBlkag-8" value="ModelID+LV关联" style="edgeStyle=orthogonalEdgeStyle;jumpStyle=none;orthogonalLoop=1;jettySize=auto;html=1;exitX=1;exitY=0.5;exitDx=0;exitDy=0;entryX=0;entryY=0.5;entryDx=0;entryDy=0;rounded=0;dashed=1;endArrow=classicThin;endFill=1;startArrow=classicThin;startFill=1;" parent="1" source="FpHgc7WrGRojn5kCcH6X-5" target="veWlUdRtgyP46phBlkag-7" edge="1">
          <mxGeometry relative="1" as="geometry">
            <mxPoint x="217" y="675" as="sourcePoint" />
            <mxPoint x="337" y="675" as="targetPoint" />
            <Array as="points">
              <mxPoint x="487" y="665" />
              <mxPoint x="487" y="665" />
            </Array>
          </mxGeometry>
        </mxCell>
        <mxCell id="veWlUdRtgyP46phBlkag-24" style="edgeStyle=orthogonalEdgeStyle;rounded=0;orthogonalLoop=1;jettySize=auto;html=1;exitX=1;exitY=0.5;exitDx=0;exitDy=0;entryX=0;entryY=0.5;entryDx=0;entryDy=0;startArrow=none;startFill=0;endArrow=classic;endFill=1;fillColor=#fff2cc;strokeColor=#d6b656;" parent="1" source="veWlUdRtgyP46phBlkag-10" target="veWlUdRtgyP46phBlkag-14" edge="1">
          <mxGeometry relative="1" as="geometry" />
        </mxCell>
        <mxCell id="veWlUdRtgyP46phBlkag-10" value="创建副本" style="rounded=1;whiteSpace=wrap;html=1;fillColor=#fff2cc;strokeColor=#d6b656;" parent="1" vertex="1">
          <mxGeometry x="90" y="770" width="100" height="40" as="geometry" />
        </mxCell>
        <mxCell id="veWlUdRtgyP46phBlkag-18" value="" style="edgeStyle=orthogonalEdgeStyle;rounded=0;orthogonalLoop=1;jettySize=auto;html=1;exitX=0.5;exitY=0;exitDx=0;exitDy=0;entryX=0.5;entryY=1;entryDx=0;entryDy=0;dashed=1;startArrow=none;startFill=0;endArrow=classic;endFill=1;" parent="1" source="veWlUdRtgyP46phBlkag-14" target="FpHgc7WrGRojn5kCcH6X-4" edge="1">
          <mxGeometry relative="1" as="geometry" />
        </mxCell>
        <mxCell id="veWlUdRtgyP46phBlkag-25" style="edgeStyle=orthogonalEdgeStyle;rounded=0;orthogonalLoop=1;jettySize=auto;html=1;exitX=1;exitY=0.5;exitDx=0;exitDy=0;entryX=0;entryY=0.5;entryDx=0;entryDy=0;startArrow=none;startFill=0;endArrow=classic;endFill=1;fillColor=#fff2cc;strokeColor=#d6b656;" parent="1" source="veWlUdRtgyP46phBlkag-14" target="veWlUdRtgyP46phBlkag-15" edge="1">
          <mxGeometry relative="1" as="geometry" />
        </mxCell>
        <mxCell id="veWlUdRtgyP46phBlkag-14" value="异步加载物理" style="rounded=0;whiteSpace=wrap;html=1;fillColor=#fff2cc;strokeColor=#d6b656;" parent="1" vertex="1">
          <mxGeometry x="237" y="770" width="100" height="40" as="geometry" />
        </mxCell>
        <mxCell id="veWlUdRtgyP46phBlkag-19" value="" style="edgeStyle=orthogonalEdgeStyle;rounded=0;orthogonalLoop=1;jettySize=auto;html=1;exitX=0.5;exitY=0;exitDx=0;exitDy=0;entryX=0.5;entryY=1;entryDx=0;entryDy=0;dashed=1;startArrow=none;startFill=0;endArrow=classic;endFill=1;" parent="1" source="veWlUdRtgyP46phBlkag-15" target="FpHgc7WrGRojn5kCcH6X-5" edge="1">
          <mxGeometry relative="1" as="geometry" />
        </mxCell>
        <mxCell id="veWlUdRtgyP46phBlkag-20" style="edgeStyle=orthogonalEdgeStyle;rounded=0;orthogonalLoop=1;jettySize=auto;html=1;exitX=0.5;exitY=0;exitDx=0;exitDy=0;entryX=0.5;entryY=1;entryDx=0;entryDy=0;dashed=1;startArrow=none;startFill=0;endArrow=classic;endFill=1;" parent="1" source="veWlUdRtgyP46phBlkag-15" target="veWlUdRtgyP46phBlkag-7" edge="1">
          <mxGeometry relative="1" as="geometry" />
        </mxCell>
        <mxCell id="veWlUdRtgyP46phBlkag-26" value="死亡" style="edgeStyle=orthogonalEdgeStyle;orthogonalLoop=1;jettySize=auto;html=1;exitX=1;exitY=0.5;exitDx=0;exitDy=0;entryX=0;entryY=0.5;entryDx=0;entryDy=0;startArrow=none;startFill=0;endArrow=classic;endFill=1;curved=1;fillColor=#fff2cc;strokeColor=#d6b656;" parent="1" source="veWlUdRtgyP46phBlkag-15" target="veWlUdRtgyP46phBlkag-22" edge="1">
          <mxGeometry relative="1" as="geometry">
            <Array as="points">
              <mxPoint x="543" y="790" />
              <mxPoint x="543" y="756" />
            </Array>
          </mxGeometry>
        </mxCell>
        <mxCell id="veWlUdRtgyP46phBlkag-27" value="复活" style="edgeStyle=orthogonalEdgeStyle;curved=1;orthogonalLoop=1;jettySize=auto;html=1;exitX=1;exitY=0.5;exitDx=0;exitDy=0;entryX=0;entryY=0.5;entryDx=0;entryDy=0;startArrow=none;startFill=0;endArrow=classic;endFill=1;fillColor=#fff2cc;strokeColor=#d6b656;" parent="1" source="veWlUdRtgyP46phBlkag-15" target="veWlUdRtgyP46phBlkag-23" edge="1">
          <mxGeometry relative="1" as="geometry" />
        </mxCell>
        <mxCell id="veWlUdRtgyP46phBlkag-15" value="种树" style="rounded=0;whiteSpace=wrap;html=1;fillColor=#fff2cc;strokeColor=#d6b656;" parent="1" vertex="1">
          <mxGeometry x="394" y="770" width="100" height="40" as="geometry" />
        </mxCell>
        <mxCell id="veWlUdRtgyP46phBlkag-22" value="1. 掉落&lt;br&gt;2. 阻挡false" style="rounded=0;whiteSpace=wrap;html=1;fillColor=#fff2cc;strokeColor=#d6b656;align=left;" parent="1" vertex="1">
          <mxGeometry x="591" y="736" width="100" height="40" as="geometry" />
        </mxCell>
        <mxCell id="veWlUdRtgyP46phBlkag-23" value="1. 阻挡true" style="rounded=0;whiteSpace=wrap;html=1;fillColor=#fff2cc;strokeColor=#d6b656;align=left;" parent="1" vertex="1">
          <mxGeometry x="591" y="804" width="100" height="40" as="geometry" />
        </mxCell>
        <mxCell id="mZkxWH9-liJ_xIIL09nw-1" value="种树" style="rounded=1;whiteSpace=wrap;html=1;fillColor=#dae8fc;strokeColor=#6c8ebf;" parent="1" vertex="1">
          <mxGeometry x="207" y="411" width="100" height="40" as="geometry" />
        </mxCell>
        <mxCell id="mZkxWH9-liJ_xIIL09nw-2" value="地图编辑器" style="rounded=0;whiteSpace=wrap;html=1;fillColor=#dae8fc;strokeColor=#6c8ebf;" parent="1" vertex="1">
          <mxGeometry x="207" y="502" width="100" height="40" as="geometry" />
        </mxCell>
        <mxCell id="mZkxWH9-liJ_xIIL09nw-3" value="阻挡&lt;br&gt;UUID" style="rounded=0;whiteSpace=wrap;html=1;fillColor=#dae8fc;strokeColor=#6c8ebf;" parent="1" vertex="1">
          <mxGeometry x="107" y="635" width="100" height="60" as="geometry" />
        </mxCell>
        <mxCell id="mZkxWH9-liJ_xIIL09nw-14" value="&lt;p style=&quot;margin: 4px 0px 0px&quot;&gt;&lt;b&gt;CActor&lt;/b&gt;&lt;/p&gt;&lt;hr size=&quot;1&quot;&gt;&lt;p style=&quot;margin: 0px ; margin-left: 4px&quot;&gt;CMoveMgr&lt;/p&gt;&lt;p style=&quot;margin: 0px ; margin-left: 4px&quot;&gt;CBuffMgr&lt;/p&gt;&lt;p style=&quot;margin: 0px ; margin-left: 4px&quot;&gt;CHateMgr&lt;/p&gt;" style="verticalAlign=top;align=center;overflow=fill;fontSize=12;fontFamily=Helvetica;html=1;fillColor=#dae8fc;strokeColor=#6c8ebf;" parent="1" vertex="1">
          <mxGeometry x="147" y="35" width="120" height="79" as="geometry" />
        </mxCell>
        <mxCell id="mZkxWH9-liJ_xIIL09nw-18" style="edgeStyle=orthogonalEdgeStyle;rounded=0;orthogonalLoop=1;jettySize=auto;html=1;exitX=0.5;exitY=0;exitDx=0;exitDy=0;entryX=0.5;entryY=1;entryDx=0;entryDy=0;endArrow=block;endFill=0;fillColor=#dae8fc;strokeColor=#6c8ebf;" parent="1" source="mZkxWH9-liJ_xIIL09nw-15" target="mZkxWH9-liJ_xIIL09nw-14" edge="1">
          <mxGeometry relative="1" as="geometry" />
        </mxCell>
        <mxCell id="mZkxWH9-liJ_xIIL09nw-15" value="&lt;b&gt;CMonster&lt;/b&gt;" style="html=1;fillColor=#dae8fc;strokeColor=#6c8ebf;" parent="1" vertex="1">
          <mxGeometry x="147" y="165" width="120" height="42" as="geometry" />
        </mxCell>
        <mxCell id="mZkxWH9-liJ_xIIL09nw-19" style="edgeStyle=orthogonalEdgeStyle;rounded=0;orthogonalLoop=1;jettySize=auto;html=1;exitX=0.5;exitY=0;exitDx=0;exitDy=0;entryX=0.5;entryY=1;entryDx=0;entryDy=0;endArrow=block;endFill=0;fillColor=#dae8fc;strokeColor=#6c8ebf;" parent="1" source="mZkxWH9-liJ_xIIL09nw-16" target="mZkxWH9-liJ_xIIL09nw-15" edge="1">
          <mxGeometry relative="1" as="geometry" />
        </mxCell>
        <mxCell id="mZkxWH9-liJ_xIIL09nw-16" value="&lt;b&gt;CMapTree&lt;/b&gt;" style="html=1;fillColor=#dae8fc;strokeColor=#6c8ebf;" parent="1" vertex="1">
          <mxGeometry x="147" y="257" width="120" height="42" as="geometry" />
        </mxCell>
        <mxCell id="mZkxWH9-liJ_xIIL09nw-20" value="地图树资源" style="rounded=0;whiteSpace=wrap;html=1;fillColor=#f5f5f5;strokeColor=#666666;fontColor=#333333;" parent="1" vertex="1">
          <mxGeometry x="119" y="1242" width="120" height="60" as="geometry" />
        </mxCell>
        <mxCell id="mZkxWH9-liJ_xIIL09nw-21" value="PVP和PVE副本&lt;br&gt;&lt;br&gt;&lt;br&gt;" style="rounded=0;whiteSpace=wrap;html=1;fillColor=#dae8fc;strokeColor=#6c8ebf;" parent="1" vertex="1">
          <mxGeometry x="110" y="1407" width="120" height="60" as="geometry" />
        </mxCell>
        <mxCell id="mZkxWH9-liJ_xIIL09nw-28" style="edgeStyle=orthogonalEdgeStyle;curved=1;orthogonalLoop=1;jettySize=auto;html=1;exitX=0;exitY=0.5;exitDx=0;exitDy=0;entryX=0.5;entryY=1;entryDx=0;entryDy=0;endArrow=block;endFill=0;dashed=1;" parent="1" source="mZkxWH9-liJ_xIIL09nw-24" target="mZkxWH9-liJ_xIIL09nw-20" edge="1">
          <mxGeometry relative="1" as="geometry">
            <Array as="points">
              <mxPoint x="73" y="1466" />
              <mxPoint x="73" y="1345" />
              <mxPoint x="179" y="1345" />
            </Array>
          </mxGeometry>
        </mxCell>
        <mxCell id="mZkxWH9-liJ_xIIL09nw-29" value="不同类型副本&lt;br&gt;使用同一份地图资源" style="edgeLabel;html=1;align=center;verticalAlign=middle;resizable=0;points=[];" parent="mZkxWH9-liJ_xIIL09nw-28" vertex="1" connectable="0">
          <mxGeometry x="-0.0826" y="-6" relative="1" as="geometry">
            <mxPoint as="offset" />
          </mxGeometry>
        </mxCell>
        <mxCell id="mZkxWH9-liJ_xIIL09nw-24" value="大世界副本&lt;br&gt;&lt;br&gt;&lt;br&gt;" style="rounded=0;whiteSpace=wrap;html=1;fillColor=#d5e8d4;strokeColor=#82b366;" parent="1" vertex="1">
          <mxGeometry x="131" y="1436" width="120" height="60" as="geometry" />
        </mxCell>
        <mxCell id="mZkxWH9-liJ_xIIL09nw-25" value="资源玩法副本" style="rounded=0;whiteSpace=wrap;html=1;fillColor=#fff2cc;strokeColor=#d6b656;" parent="1" vertex="1">
          <mxGeometry x="149" y="1467" width="120" height="60" as="geometry" />
        </mxCell>
        <mxCell id="mZkxWH9-liJ_xIIL09nw-30" value="" style="shape=image;verticalLabelPosition=bottom;labelBackgroundColor=#ffffff;verticalAlign=top;aspect=fixed;imageAspect=0;image=data:image/png,iVBORw0KGgoAAAANSUhEUgAAAfAAAAIrCAYAAAAQvcuXAAAgAElEQVR4Ae29b+h833bf9bn+rqW3ya0BH3gR0fuoiGBNKEIYUPKg2Dyo5YoKQX0QUAetCjFQaMSYin9SsHinEkh80kjBSKFN/dNMIjXexCZVbCG1iH8YtIIUQYiBKF606pG1zl57rb3O3mfOzGf2mTWz3z/4/mb/OefstV97zXrvvc+Z8/mY8B8IgAAIgAAIgMDLEfh4OYthMAiAAAiAAAiAwAQBhxOAAAiAAAiAwAsSgIC/4KDBZBAAARAAARCAgMMHQAAEQAAEQOAFCUDAX3DQYDIIgAAIgAAIQMDhAyAAAiAAAiDwggQg4C84aDAZBEAABEAABCDg8AEQAAEQAAEQeEECEPAXHDSYDAIgAAIgAAIQcPgACIAACIAACLwgAQj4MwftcpqOh8N0OJ7bVpyP0+FwmI7nS/uYJ9RczqfptMGk8/GQ7L/TyMtpOnx8TB9rjO68dKzTLtP5dJyOx9O0AWss02ENCIDAUwhAwJ+CPTW6QZzOx4/p4+OwSSzLrlym05EE4bP/TtNi7kCTChLVj+O0MvVgc2b7P6a79XcDo7LflLtMNHH4OGwQw8tlOp/P+d9ls3pepos577zpxMuKOF+m02Eb02V/UQICIDAiAQj4M0f9mjhJ/eE4naxYVNJL3TlPRxZZEoXP/KtPHi6nw3zdKyK5u4Dzrob09zCdGjOMy0kmIXKs+Twcl5OW7CdpclBlurJTcknj0ZzJXBdwZrlqWzYSCRAAgQEIQMCfOcgi0I2gLuJ3XYDrIjtdLtPljn9nEWcSqaZAi+B8TIeVvXTpQ6OL1+lfYZQvQCtpWnWLsB4qOwf54GkSuw5HmRydpqM9v7q7oH2mXZHD8cQTK9rpmHck5klAva96bp2X1Dd2Nc7H1LfGWJu+IQkCIDAGAQj47uNsRPWs93ez0Io9OWDTatCcY9M3bGXLZdc/SxGsC425goirrApp9eu27A+8LfwxHQ5rW/krYitt1FVx3i4vVtMrq2Br+vlc386W9j5qE5NZZA+n2rnETlbxDRGedFdkyXZFwI1NTQymb0iCAAiMQQACvvM4561nWSn6T47QGuhpRbkM9mS0BPxP3F+2fbdbz7Rlv9yTt0fnNN0HzofmSYcI2dbPlVWliJdXrrTi1pXv/DBgtiVbeGtCuS4fnKOJ1Mr1xNa1ZxbyMX7cpF0v/uoLdT9YsQdVIAACb00AAr738F70gSl66pgFiLZ75b42C5NsxcqqzguclD/m6Ww7qaAn4tc06hquvJOQdgrmVSndi67tIpzTg1u+f6YVEbwk4PT0+zGt6mW7nG3+jNGmOUrmlbSfNLjjllkV29VT80TH9rsm4FL2mHFe2osSEACBVyYAAX/i6GXhtNFegnsuE1GQB6uMeDfvT2/tlBGIj21bz1uvPB8n17dCZa9wrZ42GvQ2A52ZmZG91a1se/170mJTa+dj7ZoyVq3+6rlzP2RMqVzaNStwevCNJiufnFRpq0iBAAi8EwEI+MbR/D//05+a/u//8S9sPHrbYbrSowepZAk5//yreHhaRIwenJLV56fF26w05R72BrP56W367br5l+cai/MrolQcc61+KeD8E7HVfeyigZszF5lAVR9iu3K5m871PylrsfDHXbEB1SAAAsMQgIBvHOrf/GP/5PTrP/o9E30+Rshltab3idfucerKk463K7eNHagcJhOItgAvTyrtkK3+5XFzifTRrCqLQyui5X6XXb3NILcbbvyUKVI2obidYbbmb3gGIF+r9YBa5cE+/6Cf5Of7+XQvf+2BP63b+pyC2ogUCIDAOxGAgG8cTRFwEvFHCHkhhMdzvu/qRby852tW4PRwG6+cnSxZUboicPOLQ2ir2NyXXzvHrXylD80JgKxI2wek36obgZdz/MN9n84vt7XFfrmXLj8Ny5shG31jkq1uspHGxJ7XrT/+ITjbKNIgAAIjEAgh4CKKr/h534o8rTxpG5qCPgsclelrVUvh/uDXrYpU+zp+Up1/z3wx94h1Za8C9ckyJ8QigK44f29khe8nJfkAWbXa2wGbV+Dp3ni6F54fAlyZgAg/aZ855tVuGos0Udj6MB9tuecn4b14p4b8g30+X/x+XSYq/Dv22oN/Wib9wCcIgMCYBCDgaUV97+Thf/vX/t6J7o//f9/+ze0elFZlx1P5gBY/yETvDpcgTqvsY/s30l7I53nAxtX0WZ4A77UCl+3z5cpXQaVjrIBr5ZyS+/+VWcL1CYK/2PU8Mc38K23qFehhQn1xzFbB1/NTKvfvlF+lekov0mlPfBZXQQEIgMCABEIJeGT+fgv9LuHmDsrq+zRdcvDWTddZlG59wpr+EMbtP/8SAVzVqZVBWVuBS93yt9TmgtL/OwU8P6G+9rtr09zmZN72bk0+5N497Wh85ul9uQ61I2nagpd0q/3NPcGBIAACb0wAAr5xcEXA7xfuuSERNl5diYAtFJSeRC+f9LZPfS/Sd/4Fq24CLv26Jqxy3KL/ZlCuHCM8P9YmAeZy25Kye1C7z5x+2kW7JDc8vV9rV/jPK20R7XQPXfr9oAcWa+2jDARA4LUJQMA3jt///jM/fPtWee3avLpzQXohYBLMSSTWhDzd075TvERAFs3X7K6UiXgW58sf7SCBKyqWF5DzV7eKRcia1zKsmscs214vaQu4MPvshCFfJ9ss/TAPweWdgMf86mC9z6gFARB4NQIQ8N1HjO5Rp0ab4lQJ5lU7N9xDrp43F4qIZA1ZObZWJQKcz5f+8OrU/ilPul88/+GP/LCZvIXuo7bKNa3JNXMjpk6Scgw/M3D7rQS5TP60wpkLzW/S7/mNeL5O60U89TEXxvf9SdncKBIgAAJvSAAC/sxBFeFZiFM9mC9NjSPgKjS1v2Am/ak8Bb/ou+tlkxEJqnk3uRy3ZWubXsfaeGZg7SG23Mc7dzxWf26W73ubFXhCkdvl9+I/YILiECMLAiDwmgQg4M8cNxGdhYiJ4C2DeWnuEwVcbGdRoR9okc3th+/oDW7ywpL5k1bk/oddZe84J+1YRvy76/kJcFusD7Wlh8saIj3lFXb5V9LyW+4WOwizXbJjselneU7ky5+b2d0J6fP6mJfn2zf3yfn4BAEQGI0ABPyZI14TJ7ZnPZiryc8RcCsmInprP3dTe+9IGUb+Z3P1J8CFnaz2K5MK++IVEuviX+X4ZPZdAn458wOJ0kb752Zi98qkzdm9+uzAHahxCgiAwGsRgIA/c7yMOJVmSDC/9lrN9Jtxt9orr5VydruZiszDZsUqtnqyFup2Lv18ii+Ufr+chJD/7rf562orL1aZ74fr3xCvrsjNallEkB7sO15ZvdtJhpxXE7zypSraz4elsv3XbJYxXxFwNop+MnicDlvG/GGdwIVAAAQiEoCAP3NUrgq4Xx028leDuYhD7fxrguEAJZu96LNgyh9aKVa0tTZrZbXfPDu76R3lV4S7tPYyZSG/yqg885G54m+mNy8sfb1xPJrXQwUIgMC7E4CAP3OErwr4tWC+fQud3hom293zipTy9/08iVata//Nq9rtb4Q7898Kb1yRGc1/T7xxxJsUQ8DfZCDRDRDYjQAEfDfU9YZY7GpVfsu7dgyVbT2udT7KQQAEQAAEXpIABPwlhw1GgwAIgAAIjE4AAj66B6D/IAACIAACL0kAAv6SwwajQQAEQAAERicAAR/dA9B/EAABEACBlyQAAX/JYYPRIAACIAACoxOAgI/uAeg/CIAACIDASxKAgL/ksMFoEAABEACB0QlAwEf3APQfBEAABEDgJQlAwF9y2GA0CIAACIDA6AQg4KN7APoPAiAAAiDwkgQg4C85bDAaBEAABEBgdAIQ8NE9AP0HARAAARB4SQIQ8JccNhgNAiAAAiAwOgEI+OgegP6DAAiAAAi8JAEI+EsOG4wGARAAARAYnQAEfHQPQP9BAARAAARekgAE/CWHDUaDAAiAAAiMTgACProHoP8gAAIgAAIvSQAC/pLDBqNBAARAAARGJwABH90DXqT/l/NpOhwO0/H8CYMvp+l4OEyHtYucj6mdy90NnY/Uxmk6r17iPNtyOE6bu3Q+Th8fH/czkL6dVg27u9+vfeJlOtG43TIeqx2+Y3xXr2crz9Px4zAdT+dpt5FMvvex9t2xJu6c5u/c4TgtXJvs5rixG6ldew4B3xX3WI1dLufpfE7/Lp/8AkkAOZzuD1qX03T4+JjWgtD5+DF9fByWgWDz0FFwpWtcE+atx5mGHyDgNAE4LKKcaaN38nJRnzifp5vcojj3ij9dLtPsf6fpdJwnZdT39rhcptNhrf5WMHeM79Ym5Luwp5imNjf5zuXMzI/H4/Sof9dctvW9ncs/MendOiZPOg4C/iTw79zshVZ6HCwpIJp/tRkygeBgSwF3/d8cYOnLuH7cfJ0K4WsCLvVkp0w8Gp9N+dgcXO8I8F7AaUehGSQrE51bgnAF32eKLqeGT5B/0Kq3CZT8g1azxo+yT9GOjDtR+Odj9DzewWnujLyKgIud94vS5XQov5cVVouJzi2+I9+j6nV1PIrYcOXYa3OVuoDf8R37jJM/4VwI+BOgv3WTNoCSEJ7O05mCdw7AfnWrAemWL/TVY2srdQksjWggs/Wr115Zocs1Gk2Yob8juCS2+dqW9SIAVnYAbgnCxtJHJIXL4SiTI5p8WCGp2MsNCycK/PO28flEt0JUCDIPPp62wo+8vXw+p+NqvrDolPhhy47FCVcKxO47rye3e+iWT/FP+01bw2VdLb/cVubJ1NVznd23+I58zw50G2nLZLt9jPhNMcZp4mpX5fNxZWyRicqmXYMroxm1GgIedWRe0S754la3aSVA0orLrg6l/HB11Zu34xur4rk+bZPnNkxwoPvoJHRH2rpN5cI5iyGtBs05Np13Flxwk2tMErSpj7Vgau+/y7Gta8lFjS3JxvUdiHN7K/iWICzNP+jzQtvltWut+sw0SQAvfWa+UK5r3q5IvpV9oTSAAjzf82bDxA/TeIhdhXLo+SSC7d0PqjukXSga8/VjT34XgZqR9hcTMyPgm+pKUdMe3Ji6xXfE9gb3W1qWMS6GIX8P9EpLAZfxTJO+1Zgx3+a76XaONv3UFAT8qfjfq3GZ8daCLfdUvtjFCla+aNeEbCurJIwpeGSbWsGOI4OI6Rwc6zN2sXNl6zIFltUVfI5E0uZ6v1ftrwbIZCetfq5tlWZbtrLtcZxyXT6bIIwazLM/NeonZbGcPEi7wr+VrwugCMvqWLd8zpVX/U36Vh3jLeMg/anbf/0Kcv7GCYO189O2q3XCuXDVLQK+5bvoxqFoQ00InYKAhx6e1zJOvmzVgMRd0aCgx0jZHEiLB982zJqLVTlPoUsBp/un+Ri5D0viJtemB6P4wTUSAUn7oCflaw/AST8aYiIBJUcJEScRkMZYG/tPyc4D3ZZg+5eyNMkuAO0y0BayXf0d0pb1Ia0I7R5ko/k9ioX/QsCF2bUVNgXizNVanMbEiotUL0RGxs+Mh7RfOV9srjbLbTg/lHbtZ7q+fhdM5cI+U7cpKf3xvrzpZNoCSE/lp52kLHZ+ZykJvGXUst3uZjXTpX1VzombZT8fp32V8/jXIPJdt59pcmvrsQIv2W/O/fqPfs9E//DfKxOQgLH+lLN8sYqAy1/mue+5PgeMjSsAG8TN9SzRvJotv/nzAz25zAhr2lrNNtkgZS9M6VbQSsdJ2xqsTTvn04an3pVvNnW68Cpbr6l2FGVi65pgyDG7f2q/vM2Zu3Z4YZ1wlV2fnG/6TwryCxZihxHwSbfwvQlimy/PBl7xBz5uYUM++6o/mSMbSemPilrjwG3FTVsrE5Vq38Xfr32fN/BPtlj283ikvkr71Vt5qbvN/mzDEeUorMCjjMQT7fihH/qh6dd+7dc+aYEEjNZqaL68BD4JuL7R/EXc9KR5uj9s7m3769l8bpsfpJLV6/zQU/Fb7BwAaLVRWWHYi6a0XNsGFXvYsn4Z0LyA2fPzyrr4HbgwN0G6EtzydQIGLfrFwrwNXQZuXgEm9mtcVLDn84tdB9lxoIff8k7E/Pv87GfiBrLd7lf74gtu8rYcz0x5Tki/Wg5BR62Nh2m3+UxGcxVL3wt5FsL4BrVpdnTyLpRdmRbpDGcSzsuxuFHAm7/wkAcTSz+ock7cLFo7nnIO+5U9yAyR9KdRbY6MnYSAxx6fXaz7+te/zkH0G9/4xqeEXL845ZdQO2FEywVEOcZ+EaXs6qcEu9Vvo2k7rc6WwUhbki94FheNZXqQpCRY++Av9bKtXdSLPfRUtv7Eil4yU20qt/GRnrBOF3d9V35pC9Ruk68JRra1Y8KKh32SvPrzQpmcrO/oiAgufvZkVs/LyWJFdFoCbq5j3Ut83ZZZcuI/az4mtlePkXFt7iRcW8lKfSngYteme/fmOyrnLWwVO82x9d2oGvOCWPXhyyrnNQE/pQkh3SaiCaC1yzSn3xNT+IJJCPgLDtqjTRYBly/13UIuX+a0nV0KkbmPTPWP/GJJu61oyjvL5idLx3O+7+0DEq/gZNX9YVbgtB3Hv1cue2VXitL8xT9VLPYVfVYB59W/HMNslr+LlkAmY0Sf0p7UHc82SIoAmsnUkwVcRED7sPbGOuGj/az6fZ7YmH7ygXr+wteqHCq8pEFazboxVeZykP2Ua5GIlgJqj9om4Hb3YP1pdt1lmI+b38Xg2reTqDO9cGUWepo4Llfk6usyduJzuR/it7ZCymr+XpTlq9A39DECnnbjyJy2SNfbsta8ShoCHnCkNMDJLPo5n/cIuXzRpQ8kevT60jlPwUgepLI/JdNBkMDY/BlW9edZiY8NInpJDQ50bppczAFDf9ZVCvcHv25Vwpevo77Mv2e+5K1FEYncfxOopKycLIjAGOEpXlhiAm8KiBSgqW162E5fakMdlWulYCyrbi9UPl8w6p8ptrfzz6ySzYudB+1Tc1i5640t+CzsNFmcfXDmL+wMX+66lJvxSOW1h5vET6u25bb1p2SLF84Y20u/4EZ3ugfe6nOywXw0+ytibUFImfkOZB8tykwDjxJw+tKmAZPvnTWNW6zaZ215nTQEPOBYifg9+/NrX/va9M1vfnP69re/fROl6pvY0japfKmKh9jM1SVQPFTAU0A9nk5GwKnRtM1Mop7+rb3D3As5BQaxNweJfO+Rrjn/tn1+taoXDBGopWCIOEtgn5kdp7P0Y16yTycjeplrseJLAVqCZjpfrmuwPy1JTPNb+zLENDYb7oHLKtZvoc/jknZQZDvV7FrQLolM0ObO18VMxtczk/LCZDZbxjXtHIhY1B6oWhsPOU/G7uYRkv54vzMXSu23vot65Mq1xE4LQsoK2xOXokxbeNgK3A5q1Q6aG82LCD+m1ppXSUPAA46UiMlepvkt9HuFe2FvfshGayTwtb488wsyrv0hEL0ep+Tdy7LyLKqNiMkX2gQbCfS3/WEIevo73avmt0IVj8DNJvnfYC8ClwR6L+B0+nz9uRvpOLK5EPCik7piK+6za7DiLq8JhrvcrlkRktrkoyZ8xjgJxrIDwlVpnOnndjwZYvbCuyVoIlJmPLJdpiy1LX5sXGl+5atMBm0F7azkCaJ5xmFtPMRXF35jOr+alP60+iuTT63niXf1j7mI/UsO+X530d80KStsT9coymwHxN6yjSrnxM02Kd/jMgTINbWPOlGwZdaO10pDwAOO17ME/GHC3WQqX6gr9zWb599eIQGeJwwSFO03ny/pfvNa3aY3v3891rf/vXX6hHWtvytB0Vxotj8Fm0rgkkMl0LHvFP2jJ5LTUWuCIRd6yqewKDnlPhX9KQ2U8bWrSA3myd9ENPivsS2fL5ivKL6ZBER8xazabctim5hW7DpJe/YEI+J5srE2Hrn9B98DzzYtBVVYLibXYkutX6kPln8W9eJ4HWOJb/XPGwWcJ+96i64UcH3SP9sn9ha2ZSgvl4CABxwycey9TPve7/3eu7bKb7ZPvjxulThfZ+sXXLe7hVP5WQaAedXqgrJE3dwBCd4rr0BlUU9tb/zyS5DPATu3Rwnpr7O3OCatoMXexE+y+dAcYNOTt8VKNh+VV/CLAG0OeU5SWJQCLoJS50eW6rjlPmUWNMlyAr65c2pPvq47V8aWdm7oz5BmH1z1Db0u9ymNZ7UN6Yes6O/+rK80hW3pS8k+1wc5tmpnrQ9ie3Ed7Xvr/e0zw/L7kDmbTa5sT362RmJCra/qI/SQp9yeKvvtBveFshDwgIMlwSCgaZ8wSb9I1UCQBe2zK44yAJBQnuXLL4Fl8e0V2/y5vrv1AOeP4nyerNSCCh0hAe1Km/TUsFtBl+aL7Un8pN0ieCYLa8G2avzOhWKzn9jJeDVWwXmllycs+kuHmVFiU2PR6qJZKa/93XgVFhlHeue2DFTr4jTnmI/nh9rWxkP6fovtRbPiFzX/a/ux9ksutnYdXeEW3+mq7e0255aknfL7sLRHtv5lMk0/w5Rxr/WVmJ/0OQuaCJVfIOnoS35CwAMO2ysLOP2RkOV/8uWkL135BdVjr33B9ch6StpoXd98kRdf4A3ncqMbbTQBowhsheHpWk0excFzJgV8a76sRjQoSV/K1exs/vzEdtsmOkrsagTDillXi+iVrvLMgDu4/RDbfKAE8KXfaD+1727H4sYVuN0GXxNvskzs4rGwkyzXv9XsUwRcxM75R3peJb8/X5xMJletiUStD+L/rXNWoZSVBWeu0nGnZxwk2szHtX1WrsN/0U4m9GVTL5mDgAccttcVcPlymb/AVGxzte4/0iBsFMfmeEnbTxZwCV5XZ/oilCv2+r46Add77O4aYoMPoLVg22ijvW3tT9iQFxFIv6WX3yvnt9wRK29rvqxwosmf+JX8PGv+iVgRj0mI8rnJJ5rXTgcW91GvvDgmnSKCIDqXm7wlsTYerTHcfH35PjhRM2Mhcab+SefJNZzYGxtkAllMCj9tuzZQ50y7ajrKdHRbwGnCYm5x8K2IjbslakbYFAQ84NDIFyqgaVdM0i+89EE+m28Yy1d8fQG3K7i2IEmHRZic+Ep17TMFXxaNHIhdgE7n0d/MdjFu0z3wakCu2XJLGW0b55fjyP1K+Zz/3GMZjt3FG+fTT/5Wz7u2Auc/ZGOCO7+ox7XdyNaFpXFwq/gZAi4TZZ5M0YOZ8odt0otcaAJEv6AwP71b8+UqByPg970GVv+EbvX6FZ5VAS/8Zv6eiH9zXOLXuq57UKWpUEUQ8FDDMRsjohfQtI0m6RewvqVeu4wI2qPvgZu2JLAslk0y8ZAVXuuNV2nlt1jRlbP865MVskn6e6eAp74sumK6S0n+u+dcNv/hE/KtYrXkjq8GQnfMZ7L577Dzlu2tVzJ+tenUNK7FeF3mv9JWTCg2TCJce1uFJZ92MX+DPm1X57eg1e6di6/yilEmO/d81id42a5GQnd3zPm0U5H/Et55Ostf98vPIKSLPcx27e81Py/9lnxdX09Mk5FiMks//bTj/8JCDgFvOPAzi19fwO+hJ4KmX1rhcNvniiBKYFlEAxHwjW07QZAnW6+JY0lF+rtib3lCXkEvzPfHSV76W4iACchyXP5MNhX9y5UvmCgFvFh95a1UvY96SwdvFvC8Y+J9rDEeeew+O6FtXH+ts8bWcrInPuv64B1SbGdhrL2idXuZfLd8E978LODysqY8vq0VthP5KxNb316UPAQ8ykgYO0SwTNEAyc+Kh4jwiiBKYFlEgw3n8gg0bFz9fXFr6CQYrtjrT02BdWG+Py7naWeAdhNkq7SyrZ6P1Yf8yqBtD3i1dCngtOtxOtBq+wqHDd28WcBp9erfL3BcsUN89e7JlPj0HQKebj3UHuQrX4d7WtyLZnSftl0HYCvnLODpvv3aGxX16pSad88Od3Mur7Z3DgK+N/EN7Y0p4BvAPOAQ3VJ2F9u6pbv1OHf5avaOa22/JVFtcb2Q7gmfaat3/TDUggAIxCAAAY8xDoUVEPACBzIgAAIgAAIVAhDwCpRnF0HAnz0CaB8EQAAE4hOAgAccIwh4wEGBSSAAAiAQjAAEPNiAkDkQ8ICDApNAAARAIBgBCHiwASFzIOABBwUmgQAIgEAwAhDwYANC5kDAAw4KTAIBEACBYAQg4MEGhMyBgAccFJgEAiAAAsEIQMCDDQiZAwEPOCgwCQRAAASCEYCABxsQMgcCHnBQYBIIgAAIBCMAAQ82IGQOBDzgoMAkEAABEAhGAAIebEDIHAh4wEGBSSAAAiAQjAAEPNiAkDkQ8ICDApNAAARAIBgBCHiwASFzIOABBwUmgQAIgEAwAhDwYANC5kDAAw4KTAIBEACBYAQg4MEGhMyBgAccFJgEAiAAAsEIQMCDDQiZAwEPOCgwCQRAAASCEYCABxsQMgcCHnBQYBIIgAAIBCMAAQ82IGQOBDzgoMAkEAABEAhGAAIebEDIHAh4wEGBSSAAAiAQjAAEPNiAkDkQ8ICDApNAAARAIBgBCHiwASFzIOABBwUmgQAIgEAwAhDwYANC5kDAAw4KTAIBEACBYAQg4MEGhMyBgAccFJgEAiAAAsEIQMCDDQiZAwEPOCgwCQRAAASCEYCABxsQMgcCHnBQYBIIgAAIBCMAAQ82IGQOBDzgoMAkEAABEAhG4OPXf/R7JvybGfzE7/vbpq985StZQEVIR/0Ei4/CF8ADPFqxAL4B32j5xnd/93d3k30IuJnA/B8/+2McsLvR3nhhcYSNh3c7jOzAf0oAPJQFpcBDeYCFsoBv7MfiA463H+yypXaOxiTCuESwoU1p/xrwKJmDh/IAC2VBKfBQHj1ZQMCVM6d6wnZNNbNkQxQ7mkYOWBFhTCJhBw8dDbBQFpQCD+XRkwUEXDlzqids11QzSzZEsaNp5IAVEcYkEnbw0NEAC2VBKfBQHj1ZQMCVM6d6wnZNNbNkQxQ7mkYOWBFhTCJhBw8dDbBQFpQCD+XRkwUEXDlzqpOF9p4AACAASURBVCds11QzSzZEsaNp5IAVEcYkEnbw0NEAC2VBKfBQHj1ZQMCVM6d6wnZNNbNkQxQ7mkYOWBFhTCJhBw8dDbBQFpQCD+XRkwUEXDlzqids11QzSzZEsaNp5IAVEcYkEnbw0NEAC2VBKfBQHj1ZQMCVM6d6wnZNNbNkQxQ7mkYOWBFhTCJhBw8dDbBQFpQCD+XRkwUEXDlzqids11QzSzZEsaNp5IAVEcYkEnbw0NEAC2VBKfBQHj1ZQMCVM6d6wnZNNbNkQxQ7mkYOWBFhTCJhBw8dDbBQFpQCD+XRkwUEXDlzqids11QzSzZEsaNp5IAVEcYkEnbw0NEAC2VBKfBQHj1ZQMCVM6d6wnZNNbNkQxQ7mkYOWBFhTCJhBw8dDbBQFpQCD+XRkwUEXDlzqids11QzSzZEsaNp5IAVEcYkEnbw0NEAC2VBKfBQHj1ZQMCVM6d6wnZNNbNkQxQ7mkYOWBFhTCJhBw8dDbBQFpQCD+XRkwUEXDlzqids11QzSzZEsaNp5IAVEcYkEnbw0NEAC2VBKfBQHj1ZQMCVM6d6wnZNNbNkQxQ7mkYOWBFhTCJhBw8dDbBQFpQCD+XRkwUEXDlzqids11QzSzZEsaNp5IAVEcYkEnbw0NEAC2VBKfBQHj1ZQMCVM6d6wnZNNbNkQxQ7mkYOWBFhTCJhBw8dDbBQFpQCD+XRkwUEXDlzqids11QzSzZEsaNp5IAVEcYkEnbw0NEAC2VBKfBQHj1ZQMCVM6d6wnZNNbNkQxQ7mkYOWBFhTCJhBw8dDbBQFpQCD+XRkwUEXDlzqids11QzSzZEsaNp5IAVEcYkEnbw0NEAC2VBKfBQHj1ZQMCVM6d6wnZNNbNkQxQ7mkYOWBFhTCJhBw8dDbBQFpQCD+XRkwUEXDlzqids11QzSzZEsaNp5IAVEcYkEnbw0NEAC2VBKfBQHj1ZQMCVM6d6wnZNNbNkQxQ7mkYOWBFhTCJhBw8dDbBQFpQCD+XRkwUEXDlzqids11QzSzZEsaNp5IAVEcYkEnbw0NEAC2VBKfBQHj1ZQMCVM6d6wnZNNbNkQxQ7mkYOWBFhTCJhBw8dDbBQFpQCD+XRkwUEXDlzqids11QzSzZEsaNp5IAVEcYkEnbw0NEAC2VBKfBQHj1ZQMCVM6d6wnZNNbNkQxQ7mkYOWBFhTCJhBw8dDbBQFpQCD+XRkwUEXDlzqids11QzSzZEsaNp5IAVEcYkEnbw0NEAC2VBKfBQHj1ZQMCVM6d6wnZNNbNkQxQ7mkYOWBFhTCJhBw8dDbBQFpQCD+XRkwUEXDlzqids11QzSzZEsaNp5IAVEcYkEnbw0NEAC2VBKfBQHj1ZQMCVM6d6wnZNNbNkQxQ7mkYOWBFhTCJhBw8dDbBQFpQCD+XRkwUEXDlzqids11QzSzZEsaNp5IAVEcYkEnbw0NEAC2VBKfBQHj1ZQMCVM6d6wnZNNbNkQxQ7mkYOWBFhTCJhBw8dDbBQFpQCD+XRkwUEXDlzqids11QzSzZEsaNp5IAVEcYkEnbw0NEAC2VBKfBQHj1ZQMCVM6d6wnZNNbNkQxQ7mkYOWBFhTCJhBw8dDbBQFpQCD+XRkwUEXDlzqids11QzSzZEsaNp5IAVEcYkEnbw0NEAC2VBKfBQHj1ZQMCVM6d6wnZNNbNkQxQ7mkYOWBFhTCJhBw8dDbBQFpQCD+XRkwUEXDlzqids11QzSzZEsaNp5IAVEcYkEnbw0NEAC2VBKfBQHj1ZQMCVM6d6wnZNNbNkQxQ7mkYOWBFhTCJhBw8dDbBQFpQCD+XRkwUEXDlzqids11QzSzZEsaNp5IAVEcYkEnbw0NEAC2VBKfBQHj1ZQMCVM6d6wnZNNbNkQxQ7mkYOWBFhTCJhBw8dDbBQFpQCD+XRkwUEXDlzqids11QzSzZEsaNp5IAVEcYkEnbw0NEAC2VBKfBQHj1ZQMCVM6d6wnZNNbNkQxQ7mkYOWBFhTCJhBw8dDbBQFpQCD+XRkwUEXDlzqids11QzSzZEsaNp5IAVEcYkEnbw0NEAC2VBKfBQHj1ZQMCVM6d6wnZNNbNkQxQ7mkYOWBFhTCJhBw8dDbBQFpQCD+XRkwUEXDlzqids11QzSzZEsaNp5IAVEcYkEnbw0NEAC2VBKfBQHj1ZQMCVM6d6wnZNNbNkQxQ7mkYOWBFhTCJhBw8dDbBQFpQCD+XRkwUEXDlzqids11QzSzZEsaNp5IAVEcYkEnbw0NEAC2VBKfBQHj1ZQMCVM6d6wnZNNbNkQxQ7mkYOWBFhTCJhBw8dDbBQFpQCD+XRkwUEXDlzqids11QzSzZEsaNp5IAVEcYkEnbw0NEAC2VBKfBQHj1ZQMCVM6d6wnZNNbNkQxQ7mkYOWBFhTCJhBw8dDbBQFpQCD+XRkwUEXDlzqids11QzSzZEsaNp5IAVEcYkEnbw0NEAC2VBKfBQHj1ZQMCVM6d6wnZNNbNkQxQ7mkYOWBFhTCJhBw8dDbBQFpQCD+XRkwUEXDlzqids11QzSzZEsaNp5IAVEcYkEnbw0NEAC2VBKfBQHj1ZQMCVM6d6wnZNNbNkQxQ7mkYOWBFhTCJhBw8dDbBQFpQCD+XRkwUEXDlzqids11QzSzZEsaNp5IAVEcYkEnbw0NEAC2VBKfBQHj1ZQMCVM6d6wnZNNbNkQxQ7mkYOWBFhTCJhBw8dDbBQFpQCD+XRkwUEXDlzqids11QzSzZEsaNp5IAVEcYkEnbw0NEAC2VBKfBQHj1ZQMCVM6d6wnZNNbNkQxQ7mkYOWBFhTCJhBw8dDbBQFpQCD+XRkwUEXDlzqids11QzSzZEsaNp5IAVEcYkEnbw0NEAC2VBKfBQHj1ZQMCVM6d6wnZNNbNkQxQ7mkYOWBFhTCJhBw8dDbBQFpQCD+XRkwUEXDlzqids11QzSzZEsaNp5IAVEcYkEnbw0NEAC2VBKfBQHj1ZQMCVM6d6wnZNNbNkQxQ7mkYOWBFhTCJhBw8dDbBQFpQCD+XRkwUEXDlzqids11QzSzZEsaNp5IAVEcYkEnbw0NEAC2VBKfBQHj1ZQMCVM6d6wnZNNbNkQxQ7mkYOWBFhTCJhBw8dDbBQFpQCD+XRk8XHF198wbCpEfz7mL7yla+AQ/KFr371O8DCfC9+O3gU/vCd3/nbivzI8eM7wAK+YGKF/S6Qxvb6DytwR5bAf+tb38K/b32Lv5DTb/7FCf9mBuQbYKH+AB4li1/9n/7MhH8zA/YNF1tHzfZkAQF3XkWwScB/9w//yqqIj1C/FqCp/2ti9o71lsc79s+O55b+WR72XEpvOd+fY/Ovdj6xgHjrBIZ9w8XWUbM9WUDAnVcRbKzA5x0IdjyswPNEBTx0xUliCx7Kg1hAwCHgTk44y9+TWsUDyiDgDiLBhoBDwO1qUNIQLBUsCPiSBQQcAu7khLMQ8BqVTmUQcL3/D8FaBmkRc3xiBW59gL4rEHAIeE2WIOA1Kp3KWgJO9+TWVubvWG8F/NXuSdrgSulH2G959Li+v6bNP8J+ez2fvuf6lsc951sbXv18YgEBh4DXZIm/J7WKB5RhC91BJNhrQj1SnQ3QNtiOmgYP7Ei0fJ98AwIOAXdywlmOG7WKB5RBwB1Egj2SSK/1FYIFwWoJFpXDP9Q/iAUEHALu5ISz/D2pVTygDALuIBLsNVEbqQ4BWgM0BKtkAR4lDwi4ijdNZHqKlgvZ4bM9WUDA3fATbBJpuie3JtYj1LPjNX5G9ur3LO+x3/K453y7mn2H8y0P2zdKv0P/fJ9s3vePWGAFriLOvuFi66jZniwg4M6rCPaacI9Ux47XEHAbzEZJg8dy1TnK2F/rJ/kGBBwC7uSEsxw3ahUPKIOAO4gEeySRXusrBAuCtSZc8A/1D2IBAYeAOznhLH9PahUPKIOAO4gEe03URqpDgNYATUIGHuDRmtCQb0DAIeBOTjjLcaNW8YAyCLiDSLBrIk33vGrlUvaO9Vaw/D0/H8hGqLc8Ruy/77PlMcL4+/7bPLGAgEPAnZxwlr8ntYoHlEHAHUSCLaI8+qcN0DZYjZoGD6zAW75PvgEBh4A7OeEsx41axQPKIOAOIsEeXbil/xAsCFZLsKgc/qH+QSwg4BBwJyec5e9JreIBZRBwB5Fgi4CN/okArQEaglWyAI+SBwRcxZsmMj1Fy4Xs8NmeLCDgbvgJNgn3O97TthOSLf1jx2v8jGzEe56Wx4j9t6tx6r/lYesoPRofYoEVuIo4+4aLraNme7KAgDuvIthW6EZOs+M1BNwH7BHy4LFcdY4w7lv6SL4BAYeAOznhLMeNWsUDyiDgDiLBHlm0bd8hWBCsNfGCf6h/EAsIOATcyQln+XtSq3hAGQTcQSTYVsRGTiNAa4AmIQMP8GhNaMg3IOAQcCcnnOW4Uat4QBkE3EEk2DXRpnt6tXIpe8d6K1ij3dP0gZr6b3nU6n2Zzb8jP8vjHft3y/gRCwg4BNzJCWf5e1KreEAZBNxBJNgiyqN/2gBtg9moafDACrzl++QbEHAIuJMTznLcqFU8oAwC7iAS7NGFW/oPwYJgtQSLyuEf6h/EAgIOAXdywln+ntQqHlAGAXcQCbYI2OifCNAaoCFYJQvwKHlAwFW8aSLTU7RcyA6f7ckCAu6Gn2CTcNM9vTUBH6GeHa/xM7IR73laHiP2367Gqf+Wh62j9Gh8iAVW4Cri7Bsuto6a7ckCAu68imCvCfdIdex4DQH3AXuEPHgsV50jjPuWPpJvQMAh4E5OOMtxo1bxgDIIuINIsEcS6bW+QrAgWGviBf9Q/yAWEHAIuJMTzvL3pFbxgDIIuINIsNdEbaQ6BGgN0CRk4AEerQkN+QYEHALu5ISzHDdqFQ8og4A7iAS7JtJ0T69WLmXvWG8Fa7R7mj5QU/8tj1q9L7P5d+Rnebxj/24ZP2IBAYeAOznhLH9PahUPKIOAO4gEW0R59E8boG0wGzUNHliBt3yffAMCDgF3csJZjhu1igeUQcAdRII9unBL/yFYEKyWYFE5/EP9g1hAwCHgTk44y9+TWsUDyiDgDiLBFgEb/RMBWgM0BKtkAR4lDwi4ijdNZHqKlgvZ4bM9WUDA3fATbBJuuqe3JuAj1LPjNX5GNuI9T8tjxP7b1Tj13/KwdZQejQ+xwApcRZx9w8XWUbM9WUDAnVcR7DXhHqmOHa8h4D5gj5AHj+Wqc4Rx39JH8g0IOATcyQlnOW7UKh5QBgF3EAn2SCK91lcIFgRrTbzgH+ofxAICDgF3csJZ/p7UKh5QBgF3EAn2mqiNVIcArQGahAw8wKM1oSHfgIBDwJ2ccJbjRq3iAWUQcAeRYNdEmu7p1cql7B3rrWCNdk/TB2rqv+VRq/dlNv+O/CyPd+zfLeNHLCDgEHAnJ5zl70mt4gFlEHAHkWCLKI/+aQO0DWajpsEDK/CW75NvQMAh4E5OOMtxo1bxgDIIuINIsEcXbuk/BAuC1RIsKod/qH8QCwg4BNzJCWf5e1KreEAZBNxBJNgiYKN/IkBrgIZglSzAo+QBAVfxpolMT9FyITt8ticLCLgbfoJNwk339NYEfIR6drzGz8hGvOdpeYzYf7sap/5bHraO0qPxIRZYgauIs2+42DpqticLCLjzKoK9Jtwj1bHjNQTcB+wR8uCxXHWOMO5b+ki+AQGHgDs54SzHjVrFA8og4A4iwR5JpNf6CsGCYK2JF/xD/YNYQMAh4E5OOMvfk1rFA8og4A4iwV4TtZHqEKA1QJOQgQd4tCY05BsQcAi4kxPOctyoVTygDALuIBLsmkjTPb1auZS9Y70VrNHuafpATf23PGr1vszm35Gf5fGO/btl/IgFBBwC7uSEs/w9qVU8oAwC7iASbBHl0T9tgLbBbNQ0eGAF3vJ98g0IOATcyQlnOW7UKh5QBgF3EAn26MIt/YdgQbBagkXl8A/1D2IBAYeAOznhLH9PahUPKIOAO4gEWwRs9E8EaA3QEKySBXiUPCDgKt40kekpWi5kh8/2ZAEBd8NPsEm46Z7emoCPUM+O1/gZ2Yj3PC2PEftvV+PUf8vD1lF6ND7EAitwFXH2DRdbR832ZAEBd15FsNeEe6Q6dryGgPuAPUIePJarzhHGfUsfyTcg4BBwJyec5bhRq3hAGQTcQSTYI4n0Wl8hWBCsNfGCf6h/EAsIOATcyQln+XtSq3hAGQTcQSTYa6I2Uh0CtAZoEjLwAI/WhIZ8AwIOAXdywlmOG7WKB5RBwB1Egl0TabqnVyuXsnest4I12j1NH6ip/5ZHrd6X2fw78rM83rF/t4wfsYCAQ8CdnHCWvye1igeUQcAdRIItojz6pw3QNpiNmgYPrMBbvk++AQGHgDs54SzHjVrFA8og4A4iwR5duKX/ECwIVkuwqBz+of5BLCDgEHAnJ5zl70mt4gFlEHAHkWCLgI3+iQCtARqCVbIAj5IHBFzFmyYyPUXLhezw2Z4sIOBu+Ak2CTfd01sT8BHq2fEaPyMb8Z6n5TFi/+1qnPpvedg6So/Gh1hgBa4izr7hYuuo2Z4sIODOqwj2mnCPVMeO1xBwH7BHyIPHctU5wrhv6SP5BgQcAu7khLMcN2oVDyiDgDuIBHskkV7rKwQLgrUmXvAP9Q9iAQGHgDs54Sx/T2oVDyiDgDuIBHtN1EaqQ4DWAE1CBh7g0ZrQkG9AwCHgTk44y3GjVvGAMgi4g0iwayJN9/Rq5VL2jvVWsEa7p+kDNfXf8qjV+zKbf0d+lsc79u+W8SMWEHAIuJMTzvL3pFbxgDIIuINIsEWUR/+0AdoGs1HT4IEVeMv3yTcg4BBwJyec5bhRq3hAGQTcQSTYowu39B+CBcFqCRaVwz/UP4gFBBwC7uSEs/w9qVU8oAwC7iASbBGw0T8RoDVAQ7BKFuBR8oCAq3jTRKanaLmQHT7bkwUE3A0/wSbhpnt6awI+Qj07XuNnZCPe87Q8Ruy/XY1T/y0PW0fp0fgQC6zAVcTZN1xsHTXbkwUE3HkVwV4T7pHq2PEaAu4D9gh58FiuOkcY9y19JN+AgEPAnZxwluNGreIBZR9ffPEFz6SpEfz7mMBD/eDLX4Zv2O8EeKhvEJe//stfRsxIcfMLfFfgCw0NJU3p9R9W4I4sBaaRVtlrfSUWW1YfoxwDHliBt3ydfAMrcKzAnZxwluNGreIBZRBwB5Fg10SN7unVyqXsHeutYI12T9MHauq/5VGr92U2/478LI937N8t40csIOAQcCcnnOXvSa3iAWUQcAeRYIsoj/5pA7QNZqOmwQMr8Jbvk29AwCHgTk44y3GjVvGAMgi4g0iwRxdu6T8EC4LVEiwqh3+ofxALCDgE3MkJZ/l7Uqt4QBkE3EEk2CJgo38iQGuAhmCVLMCj5AEBV/GmiUxP0XIhO3y2JwsIuBt+gk3CTff01gR8hHp2vMbPyEa852l5jNh/uxqn/lseto7So/EhFliBq4izb7jYOmq2JwsIuPMqgr0m3CPVseM1BNwH7BHy4LFcdY4w7lv6SL4BAYeAOznhLMeNWsUDyiDgDiLBHkmk1/oKwYJgrYkX/EP9g1hAwCHgTk44y9+TWsUDyiDgDiLBXhO1keoQoDVAk5CBB3i0JjTkGxBwCLiTE85y3KhVPKAMAu4gEuyaSNM9vVq5lL1jvRWs0e5p+kBN/bc8avW+zObfkZ/l8Y79u2X8iAUEHALu5ISz/D2pVTygDALuIBJsEeXRP22AtsFs1DR4YAXe8n3yDQg4BNzJCWc5btQqHlAGAXcQCfbowi39h2BBsFqCReXwD/UPYgEBh4A7OeEsf09qFQ8og4A7iARbBGz0TwRoDdAQrJIFeJQ8IOAq3jSR6SlaLmSHz/ZkAQF3w0+wSbjpnt6agI9Qz47X+BnZiPc8LY8R+29X49R/y8PWUXo0PsQCK3AVcfYNF1tHzfZkAQF3XkWw14R7pDp2vIaA+4A9Qh48lqvOEcZ9Sx/JNyDgEHAnJ5zluFGreEAZBNxBJNgjifRaXyFYEKw18YJ/qH8QCwg4BNzJCWf5e1KreEAZBNxBJNhrojZSHQK0BmgSMvAAj9aEhnwDAg4Bd3LCWY4btYoHlEHAHUSCXRNpuqdXK5eyd6y3gjXaPU0fqKn/lket3pfZ/DvyszzesX+3jB+xgIBDwJ2ccJa/J7WKB5RBwB1Egi2iPPqnDdA2mI2ajsLjP//Fn56+9XP/9vS/XP7j6ZljEYXHMxlI28QCAg4Bd3LCWf6e1CoeUAYBdxAJ9ujCLf1HgI63ZfwD/9DfxzsBNDbf9Td8dfpv/+KffJqIwz/UP4gFBBwC7uSEs/w9qVU8oAwC7iASbBGw0T8RoDVA00rr2Txo5U022H8k6LIK3Pvz2Tz27u9ae8QCAg4Bd3LCWf6e1CoeUAYBdxAJNgk33dNbE/AR6tcC9Ij3PC2PZ/T/T//MHynEm+z5vr/nd1UFfA/7LA8vbnu079u0+b3bJxYQcAi4kxPO8vekVvGAMgi4g0iw14R7pLq1AG2D5SjpZ/Oge95f+5v+xkLEv/mHf7gq4HuMybN57NHHrW0QCwg4BNzJCWf5e1KreEAZBNxBJNgjifRaXxGgY22hk5jQPe9v/N7v45X3j/+hf/Zp4k22wD/UP4gFBBwC7uSEs/w9qVU8oAwC7iAS7DVRG6kOAVoDdATB+vb/+ucn2kanVfczH16TVSn8Q/2DWEDAIeBOTjjL35NaxQPKIOAOIsGuiTTdU6uVS9k71tsAvfc9RREJ+YzQvuUhdslnT/tIrP+W3/kNfuqcbKB/v/W3/hb+Kdke7VMbtf5ZHrV6sa11/jvVEwsIOATcyQln+XtSq3hAGQTcQSTYIsqjf9oAbYPtqOm9edBq+3v/7r+zuOdNNsi/7/6dvwNb6EHe1U9jAgGHgDs54SzHjVrFA8og4A4iwR5duKX/7HhBAmSEScOePH7tV34mCzW12/pHIv8sNnvyeFYft7ZLLHoJ+J/6Cz8//dH/6M92u34Pu9k3XGwdNduTBQTceRXBFgEb/ZMdDwKeBXJPHvaFLf/UP/4PNlfi9EDbVpF59HF78ni07Y++HrHoIYR0zX/i3/wlvoXxA//KL0//zi//Qrd2Hmk/+4aLraNme7KAgDuvItgk3HRPb03AR6hnx2sI+Ij3PC2Pnv2nn4v9dV/+Lbzq/v7ffWCB/vrf+jc3V+F/5b/+Dxci3tM+Ej+6vuXhBXGP9n2bNr93+8TikQJor/Un/oufn/7hP/TnmDn165/+o780/Qe/9vPd2rNt35tm33CxddRsTxYQcOdVBHtNuEeqY8drCLgNlqOk9+JBT5lTW/Tv3/tj//r0G//zt3Jeyu3vwellLnQcPaW+51jsxWPPPt3bFrG4V+y2nPfL/8Ofmf7wn/yz0+/9ERXyf/lnfnH6xf/+57q2u8W22jHsGy62jprtyQIC7ryKYI8k0mt9ZceDgGdR3IsHCTK1RSItPx2jvP1HvwH/23/H14syejKdtt5rK/J7hWntvL14rNkQpY5Y1ITs0WW/8N/83PQHf/oX82r8H/gX/1zI++PsGy62jprtyQIC7ryKYK+J2kh17HgQ8N0FnMSZxPgnv/kj3PaP/cixEGoal5//2X+LhZrugVPe/vvBf/TvzzbXBI62YfHvvRj8Yz/+y9O/+6tx7o9z7HCxddRsTxYQcOdVBLsm0hTwauVS9o717HhJwKl/NTGQshHqLQ/pt3z27H9NpGlbXdqm9N/xe/4FfkMbrdprT6Zb+yiNf+/F4Pv/wK9M/+qf+E8m2mp/9Kr/nuv1FC0XssNne7KAgLvhJ9giyqN/rgmWiMdIn8/iYe93kw2Uj8D9WTwi9N3bQCzuEbp7zqEn0e1Dbf/cT3xroq31e67V6xz2DRdbR832ZAEBd15FsEcXbuk/Ox620LNYPoMHPZFO7fp/tCq3q3AvKHvkn8Fjj37d0wax6CWGcl168pyeQJfdk2jb5mInfbJvuNg6arYnCwi48yqCLQI2+ic7HgT8qQJO2+E0DvSPHlCje+OSp5+W0d8Iv0dwHnEO/GOfd6HTk+Y/+sf1wTV6Ev2P/PuxX+zCvuFi66jZniwg4M6rCDYJN81y1wR8hPq1AE39XxOBd6y3PPbq3x/84R/Mgk1Pl9N70e3T5yTo9NY2PxZ72Gd5PKN936bN79F/2x6xsCvQR6b/+Z+a4xH1iZ5Aj/rTMdtn9g0XW0fN9mQBAXdeRbDXhHukOnY8rMCzOD6DB73Ihdq1973pp2X0djYqp3/0lLoVk73Sz+CxV99ubYdYWAF7ZJpW23Sfm16p+sjr9rwW+4aLraNme7KAgDuvItgjifRaX9nxIOBZHPfmQStu2TL3r0ylOrKH/kHAdSv7VuF91PE0Dj0F8dWuzd8VF1tHzfZkAQF3XkWw10RtpDp2PAj4UwScHlCzW+X+p2EQ8OeLthV/+q68msj2tLenaLmQHT7bkwUE3A0/wa6JNN1/qpVL2TvWs+MlAd/7nqINjpSO0L7l0ds+2TqnNmm73PffC7iv720fXd/yeEb7to/Pbp9Y9BTEV7s2+4aLraNme7KAgDuvItgiyqN/suNhBb77CvyHfv8/krfH6bWqtXecewG3YrZXGv6huwDE4tVEtqe97Bsuto6a7ckCAu68imCPLtzSf3Y8CPiuAv7TP/ljWbzpZ2Kt33pDwFU895qwrLVD35Wegvhq1+4pWi5kh8/2ZAEBd8NPsEXARv9kx4OA7ybg9HMweWit9fMwEREIOAQ8sqj3FC0XssNne7KAgLvhFwGne2prAj5C/ZqAP/ue4zPatzx6tG//jOjf9ft+PE8cRLTt5/f9M7+QxV7+6Imt72Gfv77lYesovUf7vk2b37t9YhFZUPe2jX3DxdZRsz1ZQMCdVxHsNeEeqY4dDyvwLKS9edBrU+n+N/2lMStGrTRtt9MDbq1t9tZ5jyrvzeNRdu5xHWKxt0hGbo99w8XWUbM9WUDAnVcRQRXbFQAAIABJREFU7JFEeq2v7HgQ8Cym4FFuW4OH8iAWkQV1b9vYN1xsHTXbkwUE3HkVwV4TtZHq2PEg4BDwhg/APyDgrYlBT9FyITt8ticLCLgbfoJdE2m6p1Yrl7J3rLcBeu97in7bM0L7lkdE+7xNNt+Dn+XR4/q97X/k9YlFS8xGLGffcLF11GxPFhBw51UEW0R59E92vMbqywa/UdLgoStOGnPwUB7EYkShbvWZfcPF1lGzPVlAwJ1XEezRhVv6z44HAccWesMH4B8QcAi4E5BKFgJegdKrCAL+rTyBQYDWAI0VZ8kCPEoe9F1pidmI5T1Fq1fs73XdniywAnejRrBpBUr39GQlWvscoZ4dr7H6GvGep+UxYv/trRLqv+Vh6yg9Gh9iMaJQt/rMvuFi66jZniwg4M6rCHZNsEcsY8drCLgP2CPkwWO56hxh3Lf0kXyjJWYjlvN3xcXWUbM9WUDAnVcR7BHFutZndjwIOO6BN3wA/qETGmIxolC3+sy+4WLrqNmeLCDgzqsIdk3MRixjx2sE7y2rknc7BjxUsGhswUN5EIuWmI1Yzr7hYuuo2Z4sIODOqwh2Tazpnl6tXMresZ4dLwn4aPc0/eSD+m951Op9mc2/Iz/L4x37d8v4EYsRhbrVZ/YNF1tHzfZkAQF3XkWwRZRH/2THwwocW+gNH4B/YAUOAXcCUslCwCtQehVBwPEzMrvysmkIlgoWcQEP5UEsWmI2Yjn7Rq8g/WLX7ckCK3DnDAR79JW39J8dr7H6ssI2Sho8VLAg4EsWIwp1q889RcuF7PDZniwg4G74CTYJGN3TEyGrfY5QvyZYI97ztDxG7L+dqFH/LQ9bR+nR+BCLlpiNWM6+4WLrqNmeLCDgzqsIdk2wRyxjx8MKHPfAGz4A/9BVOLEYUahbfWbfcLF11GxPFhBw51UEe0SxrvWZHa8RvP2Ka4Q8eKhg0XiDh/IgFi0xG7GcfcPF1lGzPVlAwJ1XEeyamI1Yxo4HAccKvOED8A8IeGty0lO0XMgOn+3JAgLuhp9g18Sa7unVyqXsHettgB7tnqbfUaD+Wx61el9m8+/Iz/J4x/7dMn7EoiVmI5azb7jYOmq2J4uPL774ggMTNYJ/H9NXvvIVcEi+8NWvfgdYmO/FbwePwh+++p2/rciPHD++AyzgCyZW2O8CaWyv/7ACd2QJvKyqR/8kFnYVMnoaPHTLmHwBPJQHsRhxpd3qM/uGi62jZnuygIA7ryLYowu39J8dr3H/c0QxBw8VLAj4kkVLzEYs7ylaLmSHz/ZkAQF3w0+wScDonp4IWe1zhPo1wRrxnqflMWL/7aSN+m952DpKj8aHWIwo1K0+s2+42DpqticLCLjzKoJdE+wRy9jxsALPtxHAY7nq9MI9ap58oyVmI5bzd8XF1lGzPVlAwJ1XEewRxbrWZ3Y8CDgEvOED8A+d0BCLEYW61Wf2DRdbR832ZAEBd15FsGtiNmIZO14jeI+40gIPFSwaf/BQHsSiJWYjlrNvuNg6arYnCwi48yqCXRNruqdXK5eyd6xnx0sCPto9TT9Bof5bHrV6X2bz78jP8njH/t0yfsRiRKFu9Zl9w8XWUbM9WUDAnVcRbBHl0T/Z8bACxxZ6wwfgH1iBQ8CdgFSyEPAKlF5FEHD8PXC78rJpCJYKFnEBD+VBLFpiNmI5+0avIP1i1+3JAitw5wwEe/SVt/SfHa+x+rLCNkoaPFSwIOBLFiMKdavPPUXLhezw2Z4sIOBu+Ak2CRjd0xMhq32OUL8mWCPe87Q8Ruy/nahR/y0PW0fp0fgQi5aYjVjOvuFi66jZniwg4M6rCHZNsEcsY8fDChz3wBs+AP/QVTixGFGoW31m33CxddRsTxYQcOdVBHtEsa71mR2vEbz9imuEPHioYNF4g4fyIBYtMRuxnH3DxdZRsz1ZQMCdVxHsmpiNWMaOBwHHCrzhA/APCHhrctJTtFzIDp/tyQIC7oafYNfEmu7p1cql7B3rbYAe7Z6m31Gg/lsetXpfZvPvyM/yeMf+3TJ+xKIlZiOWs2+42DpqticLCLjzKoItojz6JzteY/Vlg9soafDQFSeNOXgoD2IxolC3+sy+4WLrqNmeLCDgzqsI9ujCLf1nx4OAYwu94QPwDwg4BNwJSCULAa9A6VUEAceLXFo7ChAsFSyswJcsWmI2YnlP0eoV+3tdtycLrMDdqImA0z09WYnWPkeoXxOsEe95Wh4j9t9ObKj/loeto/RofIjFiELd6jP7houto2Z7soCAO68i2DXBHrGMHa+xfeoD9gh58FiuOkcY9y19JN9oidmI5fxdcbF11GxPFhBw51UEe0SxrvWZHQ8CjnvgDR+Af+iEhliMKNStPrNvuNg6arYnCwi48yqCXROzEcvY8RrBe8uq5N2OAQ8VLBpb8FAexKIlZiOWs2+42DpqticLCLjzKoJdE2u6p1crl7J3rGfHSwI+2j1NP/mg/lsetXpfZvPvyM/yeMf+3TJ+xGJEoW71mX3DxdZRsz1ZQMCdVxFsEeXRP9nxsALHFnrDB+AfWIFDwJ2AVLIQ8AqUXkUQcPyMzK68bBqCpYJFXMBDeRCLlpiNWM6+0StIv9h1e7LACtw5A8EefeUt/WfHa6y+rLCNkgYPFSwI+JLFiELd6nNP0XIhO3y2JwsIuBt+gk0CRvf0RMhqnyPUrwnWiPc8LY8R+28natR/y8PWUXo0PsSiJWYjlrNvuNg6arYnCwi48yqCXRPsEcvY8bACxz3whg/AP3QVTixGFOpWn9k3XGwdNduTBQTceRXBHlGsa31mx2sEb7/iGiEPHipYNN7goTyIRUvMRixn33CxddRsTxYQcOdVBLsmZiOWseNBwLECb/gA/AMC3pqc9BQtF7LDZ3uygIC74SfYNbGme3q1cil7x3oboEe7p+l3FKj/lket3pfZ/DvyszzesX+3jB+xaInZiOXsGy62jprtyQIC7ryKYIsoj/7JjtdYfdngNkoaPHTFSWMOHsqDWIwo1K0+s2+42DpqticLCLjzKoI9unBL/9nxIODYQm/4APwDAg4BdwJSyULAK1B6FUHA8SKX1o4CBEsFCyvwJYuWmI1Y3lO0esX+XtftyQIrcDdqIuB0T09WorXPEerXBGvEe56Wx4j9txMb6r/lYesoPRofYjGiULf6zL7hYuuo2Z4sIODOqwh2TbBHLGPHa2yf+oA9Qh48lqvOEcZ9Sx/JN1piNmI5f1dcbB0125MFBNx5FcEeUaxrfWbHg4DjHnjDB+AfOqEhFiMKdavP7Bsuto6a7ckCAu68imDXxGzEMna8RvDesip5t2PAQwWLxhY8lAexaInZiOXsGy62jprtyQIC7ryKYNfEmu7p1cql7B3r2fGSgI92T9NPPqj/lket3pfZ/DvyszzesX+3jB+xGFGoW31m33CxddRsTxYQcOdVBFtEefRPdjyswLGF3vAB+AdW4BBwJyCVLAS8AqVXEQQcPyOzKy+bhmCpYBEX8FAexKIlZiOWs2/0CtIvdt2eLLACd85AsEdfeUv/2fEaqy8rbKOkwUMFCwK+ZDGiULf63FO0XMgOn+3JAgLuhp9gk4DRPT0RstrnCPVrgjXiPU/LY8T+24ka9d/ysHWUHo0PsWiJ2Yjl7Bsuto6a7ckCAu68imDXBHvEMnY8rMBxD7zhA/APXYUTixGFutVn9g0XW0fN9mQBAXdeRbBHFOtan9nxGsHbr7hGyIOHChaNN3goD2LRErMRy9k3XGwdNduTBQTceRXBronZiGXseBBwrMAbPgD/gIC3Jic9RcuF7PDZniwg4G74CXZNrOmeXq1cyt6x3gbo0e5p+h0F6r/lUav3ZTb/jvwsj3fs3y3jRyxaYjZiOfuGi62jZnuygIA7ryLYIsqjf7LjNVZfNriNkgYPXXHSmIOH8iAWIwp1q8/sGy62jprtyQIC7ryKYI8u3NJ/djwIOLbQGz4A/4CAQ8CdgFSyEPAKlF5FEHC8yKW1owDBUsHCCnzJoiVmI5b3FK1esb/XdXuywArcjZoION3Tk5Vo7XOE+jXBGvGep+UxYv/txIb6b3nYOkqPxodYjCjUrT6zb7jYOmq2JwsIuPMqgl0T7BHL2PEa26c+YI+QB4/lqnOEcd/SR/KNlpiNWM7fFRdbR832ZAEBd15FsEcU61qf2fEg4LgH3vAB+IdOaIjFiELd6jP7houto2Z7soCAO68i2DUxG7GMHa8RvLesSt7tGPBQwaKxBQ/lQSxaYjZiOfuGi62jZnuygIA7ryLYNbGme3q1cil7x3p2vCTgo93T9JMP6r/lUav3ZTb/jvwsj3fs3y3jRyxGFOpWn9k3XGwdNduTBQTceRXBFlEe/ZMdDytwbKE3fAD+gRU4BNwJSCULAa9A6VUEAcfPyOzKy6YhWCpYxAU8lAexaInZiOXsG72C9ItdtycLrMCdMxDs0Vfe0n92vMbqywrbKGnwUMGCgC9ZjCjUrT73FC0XssNne7KAgLvhJ9gkYHRPT4Ss9jlC/ZpgjXjP0/IYsf92okb9tzxsHaVH40MsWmI2Yjn7houto2Z7soCAO68i2DXBHrGMHQ8rcNwDb/gA/ENX4cRiRKFu9Zl9w8XWUbM9WUDAnVcR7BHFutZndrxG8PYrrhHy4KGCReMNHsqDWLTEbMRy9g0XW0fN9mQBAXdeRbBrYjZiGTseBBwr8IYPwD8g4K3JSU/RciE7fLYnCwi4G36CXRNruqdXK5eyd6y3AXq0e5p+R4H6b3nU6n2Zzb8jP8vjHft3y/gRi5aYjVjOvuFi66jZniwg4M6rCLaI8uif7HiN1ZcNbqOkwUNXnDTm4KE8iMWIQt3qM/uGi62jZnuygIA7ryLYowu39J8dDwKOLfSGD8A/IOAQcCcglSwEvAKlVxEEHC9yae0oQLBUsLACX7JoidmI5T1Fq1fs73XdniywAnejJgJO9/RkJVr7HKF+TbBGvOdpeYzYfzuxof5bHraO0qPxIRYjCnWrz+wbLraOmu3J4uOLL77gLyI1gn9gEM0Hpl/6mOhfNLtgz8f0pS99CeMSKG7+0J/6PRP9g2/Giheksb3+wwrckSXnx38zgRAskoBHGJMQPCKASDaAhw5GBBYi4GrV81IReDyv92XLPVlAwEvWPHt1RcNmezreZqgQ8M2o9j4whH/s3elGexFYQMAbg/Pk4p6+AQF3g9sTtmsqfDYECwh4WD8J4R9B6ERgAQEP4gzOjJ6+AQHfEbZrKny2p+Nt7jwEfDOqvQ8M4R97d7rRXgQWEPDG4Dy5uKdvQMDd4PaE7ZoKnw3BAgIe1k9C+EcQOhFYQMCDOIMzo6dvQMB3hO2aCp/t6XibOw8B34xq7wND+MfenW60F4EFBLwxOE8u7ukbEHA3uD1hu6bCZ0OwgICH9ZMQ/hGETgQWEPAgzuDM6OkbEPAdYbumwmd7Ot7mzkPAN6Pa+8AQ/rF3pxvtRWABAW8MzpOLe/oGBNwNbk/Yrqnw2RAsIOBh/SSEfwShE4EFBDyIMzgzevoGBHxH2K6p8Nmejre58xDwzaj2PjCEf+zd6UZ7EVhAwBuD8+Tinr4BAXeD2xO2ayp8NgQLCHhYPwnhH0HoRGABAQ/iDM6Mnr4BAd8RtmsqfLan423uPAR8M6q9DwzhH3t3utFeBBYQ8MbgPLm4p29AwN3g9oTtmgqfDcECAh7WT0L4RxA6EVhAwIM4gzOjp29AwHeE7ZoKn+3peJs7DwHfjGrvA0P4x96dbrQXgQUEvDE4Ty7u6RsQcDe4PWG7psJnQ7CAgIf1kxD+EYROBBYQ8CDO4Mzo6RsQ8B1hu6bCZ3s63ubOQ8A3o9r7wBD+sXenG+1FYAEBbwzOk4t7+gYE3A1uT9iuqfDZECwg4GH9JIR/BKETgQUEPIgzODN6+gYEfEfYrqnw2Z6Ot7nzEPDNqPY+MIR/7N3pRnsRWEDAG4Pz5OKevgEBd4PbE7ZrKnw2BAsIeFg/CeEfQehEYAEBD+IMzoyevgEB3xG2ayp8tqfjbe48BHwzqr0PDOEfe3e60V4EFhDwxuA8ubinb0DA3eD2hO2aCp8NwQICHtZPQvhHEDoRWEDAgziDM6Onb0DAd4Ttmgqf7el4mzsPAd+Mau8DQ/jH3p1utBeBBQS8MThPLu7pGxBwN7g9YbumwmdDsICAh/WTEP4RhE4EFhDwIM7gzOjpGxDwHWG7psJnezre5s5DwDej2vvAEP6xd6cb7UVgAQFvDM6Ti3v6BgTcDW5P2K6p8NkQLCDgYf0khH8EoROBBQQ8iDM4M3r6BgR8R9iuqfDZno63ufMQ8M2o9j4whH/s3elGexFYQMAbg/Pk4p6+AQF3g9sTtmsqfDYECwh4WD8J4R9B6ERgAQEP4gzOjJ6+AQHfEbZrKny2p+Nt7jwEfDOqvQ8M4R97d7rRXgQWEPDG4Dy5uKdvQMDd4PaE7ZoKnw3BAgIe1k9C+EcQOhFYQMCDOIMzo6dvQMB3hO2aCp/t6XibOw8B34xq7wND+MfenW60F4EFBLwxOE8u7ukbEHA3uD1hu6bCZ0OwgICH9ZMQ/hGETgQWEPAgzuDM6OkbEPAdYbumwmd7Ot7mzkPAN6Pa+8AQ/rF3pxvtRWABAW8MzpOLe/oGBNwNbk/Yrqnw2RAsIOBh/SSEfwShE4EFBDyIMzgzevoGBHxH2K6p8Nmejre58xDwzaj2PjCEf+zd6UZ7EVhAwBuD8+Tinr4BAXeD2xO2ayp8NgQLCHhYPwnhH0HoRGABAQ/iDM6Mnr4BAd8RtmsqfLan423uPAR8M6q9DwzhH3t3utFeBBYQ8MbgPLm4p29AwN3g9oTtmgqfDcECAh7WT0L4RxA6EVhAwIM4gzOjp29AwHeE7ZoKn+3peJs7DwHfjGrvA0P4x96dbrQXgQUEvDE4Ty7u6RsQcDe4PWG7psJnQ7CAgIf1kxD+EYROBBYQ8CDO4Mzo6RsQ8B1hu6bCZ3s63ubOQ8A3o9r7wBD+sXenG+1FYAEBbwzOk4t7+gYE3A1uT9iuqfDZECwg4GH9JIR/BKETgQUEPIgzODN6+gYEfEfYrqnw2Z6Ot7nzEPDNqPY+MIR/7N3pRnsRWEDAG4Pz5OKevgEBd4PbE7ZrKnw2BAsIeFg/CeEfQehEYAEBD+IMzoyevgEB3xG2ayp8tqfjbe48BHwzqr0PDOEfe3e60V4EFhDwxuA8ubinb0DA3eD2hO2aCp8NwQICHtZPQvhHEDoRWEDAgziDM6Onb0DAd4Ttmgqf7el4mzsPAd+Mau8DQ/jH3p1utBeBBQS8MThPLu7pGxBwN7g9YbumwmdDsICAh/WTEP4RhE4EFhDwIM7gzOjpGxDwHWG7psJnezre5s5DwDej2vvAEP6xd6cb7UVgAQFvDM6Ti3v6BgTcDW5P2K6p8NkQLCDgYf0khH8EoROBBQQ8iDM4M3r6BgR8R9iuqfDZno63ufMQ8M2o9j4whH/s3elGexFYQMAbg/Pk4p6+AQF3g9sTtmsqfDYECwh4WD8J4R9B6ERgAQEP4gzOjJ6+AQHfEbZrKny2p+Nt7jwEfDOqvQ8M4R97d7rRXgQWEPDG4Dy5uKdvQMDd4PaE7ZoKnw3BAgIe1k9C+EcQOhFYQMCDOIMzo6dvQMB3hO2aCp/t6XibOw8B34xq7wND+MfenW60F4EFBLwxOE8u7ukbEHA3uD1hu6bCZ0OwgICH9ZMQ/hGETgQWEPAgzuDM6OkbEPAdYbumwmd7Ot7mzkPAN6Pa+8AQ/rF3pxvtRWABAW8MzpOLe/oGBNwNbk/Yrqnw2RAsIOBh/SSEfwShE4EFBDyIMzgzevoGBHxH2K6p8Nmejre58xDwzaj2PjCEf+zd6UZ7EVhAwBuD8+Tinr4BAXeD2xO2ayp8NgQLCHhYPwnhH0HoRGABAQ/iDM6Mnr4BAd8RtmsqfLan423uPAR8M6q9DwzhH3t3utFeBBYQ8MbgPLm4p29AwN3g9oTtmgqfDcECAh7WT0L4RxA6EVhAwIM4gzOjp29AwHeE7ZoKn+3peJs7DwHfjGrvA0P4x96dbrQXgQUEvDE4Ty7u6RsQcDe4PWG7psJnQ7CAgIf1kxD+EYROBBYQ8CDO4Mzo6RsQ8B1hu6bCZ3s63ubOQ8A3o9r7wBD+sXenG+1FYAEBbwzOk4t7+gYE3A1uT9iuqfDZECwg4GH9JIR/BKETgQUEPIgzODN6+gYEfEfYrqnw2Z6Ot7nzEPDNqPY+MIR/7N3pRnsRWEDAG4Pz5OKevgEBd4PbE7ZrKnw2BAsIeFg/CeEfQehEYAEBD+IMzoyevvHxXd/1XRM1gH8zgy996UtgkfwhAospCXgE/4zAIwIHsQE8NG5GYCECLuPzzM8IPJ7Zf9s2aWyv/z56XRjXBYGHEAi0An9If3AREOhEQAS80+Vx2YAEIOABBwUmGQIQcAMDSRBoE4CAt9m8aw0E/F1H9l36BQF/l5FEPzoTgIB3Bhzw8hDwgIMCkwwBCLiBgSQItAlAwNts3rUGAv6uI/su/YKAv8tIoh+dCUDAOwMOeHkIeMBBgUmGAATcwEASBEoCf/q/+qnpJ/6zP8D/RMAl/8f/yx8vD0bu7QhAwN9uSN+sQxDwNxtQdOeRBP7yX/3VSYTbf/7S5Wcf2RSuFZAABDzgoMAkQwACbmAgCQJLAv/GL/7+hYj/Sz/3A9Nf+3/+r+XBKHkrAhDwtxrON+wMBPwNBxVdeiSB2iocq+9HEo57LQh43LGBZUQAAg4/AIGrBOwqHKvvq7je5gAI+NsM5Zt2BAL+pgOLbj2SgF2FY/X9SLKxrwUBjz0+sA4CDh8AgU0EaBWO1fcmVG9zEAT8bYbyTTsCAX/TgUW3Hk2AVuFYfT+aauzrQcBjjw+sg4DDB0BgMwE8eb4Z1VscCAF/i2F8405AwN94cNE1EACBzxCAgH+GHs7tTwAC3p8xWgABEHhJAhDwlxy2gYyGgA802OgqCIDALQQg4LfQwrH7E4CA788cLYIACLwEAQj4SwzTwEZCwAcefHQdBEBgjQAEfI0O6p5PAAL+/DGABSAAAiEJQMBDDguMygQg4BkFEiAAAiBgCUDALQ2k4xGAgAcYk8t0Ph6mj8NpuvS05nKejsfjdDydb2rncjpOx+NpOn/GuMtpOnx8TIfTjRc5H6ePj4/peL4TzPk4HQ6H6Xhru6m58/Hjc+2vmn2ejofD/fZdTjyeta7JmN1Ie9XaeJWX6XQkfsfpXve41icI+DVCqH8uAQj4c/mn1i+nww1CcZkuF/p3ns7n03Q6ziJ1uKJyIkYkiLcI6XzeYaoJxWZ4TxTwLf09nw7ToTJJEWZX0G7GoAeSeM+TA7Lv4+MOviuTm9luK2yX6VS0Z9ue002fuFym85l8bf53uWVWUJx75cSKT89sbD+U4DRJn1r19tj70hDw+7jhrL0IQMD3Il22w8FKhHgW4yML6zmJs9TNp4nAzwFtGXy5fG0Fn4L9x+GYhaMq+DwpKFfoCwFPKz9ezdOK3vw70TL9cuZJhS0/0g4DCRW1b46f0ys7D16kVtqmXYKFRKTzm+LEeM8Tsa+JaBcBp52QJKY0Bpc0uam1XzqNy3k2prot4Icl/8M8Np4RreJp16Tqc7TqXcA2Bpg+lucfpqM/UXyz0hbvnlQmVnNLEHBDHMkhCUDAnzDsIhiN4FgEsnl1IQJ+SOJ3OqUVUZoIrHdC2pNVngS+j8mL+NyOHDdfdSHgawGXlukksmlrmALw/E/6Kvn5cw7uKysoL1IrbX98VK6TjvfiZHkJ24/KMvvhAp7F2u2C5PKKwFljKZ1uC6i4lkyJdxZN5k9c0pjXJnkNRtJ38rkTr75py95cu8abbRV/mydFdMvmfCKfEB/wt0RoK3y+tUM7SnxczU7PQfrUtGNxws0FWIHfjAwn7EoAAr4r7txYEl7alpy3w2XFnT4pYPIx8xk1Yc3XWk2oWJf6pOVWxGvtLAR80Z4E7FL4i8MaW+jztb3wGhZZwE1ZZfdi3h7215nFjsSsLeDKoeQzWy8iVqsr+nc1c5lom34W1oZIm1Urbec3F7g7CfiFfLPWrzzZqHMVZrVnOnJdU3RXJhoTzQ1psiKrfxm7NO5i1+cHK/caAp5RIBGSAAT8acNSE8vZGBFECVRz4Lp5i5X1K616qkFNt3Jl9VmzaQ66LXGWIKqrqvqERB5iKycs87Wpn0mgU5DOK8hiN4K24GvCpkFfRVJXe8W1PIfVFX3jGt6mlPeXFse6yKqSjjscrzxLMD+YlYV+7YHDPLmRlvQzc81Fymghyo0VeD51kdAxF7/RQ8R31R+0jgc3b8vXea3YuVhxix0ycZN8y1cLSzZlIOCbMOGgpxGAgD8N/TRJsJMANJsiqxS7aqwJ6zXD5Tp10ZOzxQZaFdYnCvN16kFR2si2flIQ+TrpPjztTpzSU+AHuWXg759yN1If6H4yiaW9xy7byXLvvXgST/pOwrrchi62oj/q9XqLYOYnVPmTV9Sy6p5vV1QnNzJ5MZ/n4v4zPWBHE5/i6ryVTkJfE8J5XKxfrQjjzQJOTTcmhnn8bdvWbhHZj2kp/nTcip2yws6TOLmWaUvaz8fYtm9PQ8BvZ4Yz9iQAAd+T9rIt3g7VlTbd3+TVl4vKtwk4/SxNVo8muC1bn0voobMkbLV25mstBXw+dhmIqyJ13r4CVzMlQFuRmrei84SBDm5sz/N1VsQpM3KstX0VqpVD7OFzmp8BEP7zqpuf7ctb6KausZqfxS39vNAcU/Rb+iaTEzNxOfD9Zjv2ytJOOjidrl9ce9krU2KuVUyIlFddnAVPmtQkkc1+ZPpZ7JrIE/rS39ym2GH7qTbcNGamdzYJAbc0kI5HAAK++5jQb74XQTStAHPgsitCWn1x8F+KaM14GxDlobdiVWoCPZebbdpaO1UBl9VQ816ms6whsvO1ywCsZ+oKWYOxBG3O73emAAAa+0lEQVTDIgV2PUavIBOihTilc67dlhCRr17bNFMkhQ1tl9sdA7OzID/Jan7a5Tb9FIt9xt0+yH1oTQgsV+H2sfS9GwX8ktu11ycCpo0ssgUZzqh/zucXuyayY/Jhn5af30Gw9ENpz9mR+TteS1OulkDAryLCAU8lAAHfHf/8ko3az6kaZadLEvD2Vm+eELDSzE/10hO9+qRyK8iXK+htAi6Bk8SgtPnWn5EtV4pmOLJQfPDLZ87ytg4J0ElVNbCnF3tY8UjXKARczl99uG224y4BJymzAmy69NBk6lttcjHbbYUtjVlta7nGSAy1kw77JHn1Xr7xCzsGci35zONq7Zsrhffytk+azBX2S3vt69TYiBlbPiHgWyjhmOcRgIA/j71tOf12ulixmfq8arEr87zlaFb0NmKJUNkyc03ZerbbnbcKeN4xsKu4B/2MLAfz3E/dSpe649kG9kpAr4hTZtniYhhpO6bw4cnLRE98N1fj/EuFSqM7CHhmlceg/sKb2brajknb7uXP/vT8hYBXxlFX/EsB53cR2N2PihlbiiDgWyjhmOcRgIA/j71tOYltsVI09TVhle3hpg51E3BjmCSrAVYq2/ep57fJXZY/V0q20xY/TRLo5R/yJrG5vybY25W0t8Pnk0n0u2T/TJixNic/JeCpbT/JkbyOW9kXqbefemw2jW72Mht9wE8nAcuf1SV+xQpWYMh1lkSK7W3axs9Cnh7KM+boQ5k60SqqJZO5OOHN5fNzA/wuAV7Jy9ib2yZ8LSl315noFw3S2Oc+IeCf44ezexOAgPcmXLl+ZcWVnjrm13kWq7FZ3HoKuJ001NqZRcwGT3qQjO7vmq6l4DsLTeU3242H2PIDb+ZSlJztOE5nd90TPQ+Qjp2PoVsDpW0sXiJU6XzbR21K30Web0HYHY58P3Zuo3UMl9cUVgTJ3WaQF5roKUnAD6flKnztFbtyfSOqVvTLFe59Aq6sNEWinoVcO7H5HrhMPEr75OEz2k0SAZ9v+0gTl7Of6NUFXCZd9THXfmxJQcC3UMIxzyMAAX8C++srLg3E8+qiJqwSCCXALTpybQVeEbdaOwsBr1zXHqPCunLf3YlOGWwTH+pYsrHaR7HDPUgn7fM5lT4qp1vG4UpfagY22i7sY2NMf9W4ObXW/5W6eTzsylT6ah8OS88vpIlKOQbeEJdPbVcnT3ZHxJ1GWel/sU2expJ2E3QCpjbXb6lXBDzbZfteMWJjEQR8Iygc9iQCEPAngXfN5gAm68uyfhmQ9S1jNe3gs0Xg+IC06s+/NZbgWG53zsHVrmh1ZaRB1AdOv7r73Aq8sOGqSCVhLSCYLdR0/k3iZNDP3EtGpno92WhbBExN3lPAP/8U+tzpuv8IL/tchYck/bfHzOeR3zlf8j+zLC7m/FD8vfHb+OLUjRkI+EZQOOxJBCDgTwKf3mktW8JWwPmBNnuP1gU1sXhF3PgQCWhJwOUesq7u5yfQ7ZShEM/UjgZXadhNHop2zDE2aftnyytptkHUrdVHaZO2p/k3z+WkI1+2IaK5/kpCBEnMuXJ4Wd1oWwRMr3mrgKcJUmaznDDNdssb7vQZBCua2diGnbm+mqgLuPStWF0X54vomtew5rEkn2/4enGNWkbtuXeyVrsqBLxGBWVxCEDAnzQWEsjSVp8ROAmCGogaAT4H8EYXJDAmpZgfGNMHnej1pf6/ue1SDKsCbt4id7L3aatPoKf7mrxtbp6Yd/eb89/spp8uiWnVPgq7tDJOx1RF4y5xUioRBVz8o5iIuVsSRR09D2D8S3uXUvcwEubu9kX+ZUNrFSw+mZ9b0JcOzW56h4DTG+9S/+17/Rf9vKMAAn4HNJyyIwEI+I6wTVM+aBYBVgQqCak/Vi6TynUlJxXpU4Jl84D5uLpA67Wa9TmI00NHaceg+qdE6V6rvH2r/N24fcFM9Sd0lT5mAcv9El6Vre4WO+3eauoxAu7e/24nPNx6Y4JGdZX+00+k1n5ytqyj2yfyNH+luzVG9Epa84Ife1b7Ibb5KGHmH1LTn31V3j3gx1L8yTZcSVO/5IG6R4s3NQcBr0BHUSACEPAnDIYIjnnQphBwDdwUlK4JaI59vie9BVy2O2n1I7cCvA2S9/2T8mufTnhEiBbiIH31gb8mTtfaNPUiRk3G5thFMrVdrIbNSlmvaQScX2srAn3K4qTHula43+avmwlnNx5NH6LL1RgZ2+3LeuYX76TnDjzrbJquiOkht/ltgOYnaPTXxPKxtL1vny7fuALniaJ5z7w+oGGv/Ok0BPzTCHGBrgQg4F3x1i4uK0jdItd7lLaM3+bVEia6cAqy68G9XO0s7ZFg64KqObAZ/E2QZ5E6zEIiu9/mEuvvKy8OdBnbx9xeucUvZ9Bvu/PWey5s/8ZZDln7fISA+58GntJuhI6bFXAV7Sz8LaEU36DXjmZF1C1p3RVJ12xdJ3G1vkerfPm5W7YjTz4OzdV5Ztk4f/XPpPLJVwQ8vVY225T/tGhu+aEJCPhDceJiDycAAX840i0X5Ddv5V80k77VhWZVQKy4VRsVcU7Cmp9Al4ee6K99pVWMKIA5hi9J97Q5cDvRzGI6Pyi1+DOeJOb0zvX8V8RkVdn+PJ2O/MKWoiu2j0mwxNTiOJPh35bPxue/wW3FSSZQWQSyMF35qdiG42w7MsEqyszPqLQfRsDpMS73HgDTNU1WxVur6d3p1D96Ac6qD1Xt0etQKv9Wn32jrLueE1+zq+y1s2oCTkxObkKxYRKx1szGOgj4RlA47EkEIOBPAq8raBWSUiTzdvGVlZMKwbIr28RKV9/N440N2a78IJK0O7/gpdhm3SB62v/2Pey1Pkrr/JmFzYqx40ovzXEP0D0qnx/ES0bpZKKw0mWsgLuqWjb30a68lwdy2zLRMuNn35im7EtGy6vtVVIK+NIf9xFu6S0EXEjgMyYBCPjzxqV44Iu2f5ebz7SSat7es6vTtV6sPvTk2uTf3fonxc2fO6V2SEAOK3aJLWY1X67izKqMj5FVeWWVtrWP0uZEK875obn53m1lWz0fGyVxh4Dz7Yrr9s+TLT9W6Y++5EmM+6tp1y/b8YhSwGmycaK+1m6PdLRCLg0BFxL4jEkAAh5zXGBVJkDi/97/6Ut2uvTz7fl1ocYXhYD3Y4srP4IABPwRFHENEACBNyQAAX/DQX2rLkHA32o40RkQAIHHEYCAP44lrtSDAAS8B1VcEwRA4A0IQMDfYBDfugsQ8LceXnQOBEDgfgIQ8PvZ4cw9CEDA96CMNkAABF6QAAT8BQdtKJMh4EMNNzoLAiCwnQAEfDsrHPkMAhDwZ1BHmyAAAi9AAAL+AoM0tIkQ8KGHH50HARBoE4CAt9mgJgIBCHiEUYANIAACAQlAwAMOCkwyBCDgBgaSIAACIKAEIODKAqmIBCDgEUcFNoEACAQgAAEPMAgwYYUABHwFDqpAAARGJgABH3n0X6HvEPBXGCXYCAIg8AQCEPAnQEeTNxCAgN8AC4eCAAiMRAACPtJov2JfIeCvOGqwGQRAYAcCEPAdIKOJTxCAgH8CHk4FARB4ZwIQ8Hce3XfoGwT8HUYRfQABEOhAAALeASou+UACEPAHwsSlQAAE3okABPydRvMd+wIBf8dRRZ9AAAQeQAAC/gCIuERHAhDwjnBxaRAAgVcmAAF/5dEbwXYI+AijjD6CAAjcQQACfgc0nLIjAQj4jrDRFAiAwCsRgIC/0miNaCsEfMRRR59BAAQ2EICAb4CEQ55IAAL+RPhoGgRAIDIBCHjk0YFt0wQBhxeAAAiAQJUABLyKBYVhCEDArw7F5XyaDofDdDxfPbR9wOU0HQ+H6bB2kfMxtXNpX+eumvPc9uE43d2F83H6+Pi4n4H07fTovt0FJNhJl+l0PEyHz4xP0aMHjPdENh2n03nDeG3xbWsfHU/Xrlz6cjpOx+NpqlTZK+yWhoDvhhoN3UXgTQX8cjlP53P6d/lkOEji9XH4RGC5nKbDx8f0sSLg5+PH9PFxqAa2u8Y2n3SejtT2x3MFnCYAh1rUznb2Tlymi/gEfa76xWW6XLb+c3bzeeR7JxZBmvxR39v8L9PpsFbvrn81+7jxXvPXbMYG387HUmJlMjh/B6yfChviU//X06cg4MXIIROOwJsJ+IVWerUv+qE+4582Buk5wNIKdEtQr4zytSAn9WSnFZlK+vbpyOMCep5/pFUUraSW/yoTnRS0ewbbCvVUdJnORxFRLwK0s7IkOguJP7aRl4mdTPQq/sc7OMfTVGlqmmi1G0zAW5PJYmIsvnlK37nDSSfNUnc+01es/O8uAT8s/SxNjHr6FAS8HDrkohF4JwG3AZSE8HSezhRcODhS8PWrWwmcjcBcCcStVUBRLgHdjrUIdFZAW0mLkq02+D6U16nnOgi4Zb3gZFdQyaJ0fM9gW++7HWO6hXHiCRJtD9uJnh8WEnwS3bV/eczzyfO285H87ky3TD6mbbs2YmOFW71TV0o/Od4rvrrdT9WfM550G0W5L/lmpsyeeCQ2te/UDj4FAb/iaqh+MoF3EXAJOtVtWgmQPqBK+eHqqjdvx5uVxbIsbZPnYGNW63QfnYTuSCuSVC5Dn8XwyNu6uV6Oo8+8s7AM8vN9w9pKWMoOSaxIwKSs/lne87T2yz1wU2bt4/S5vZLcIdgKzvJzHuPDiaTA/0crcxGaJVd/dJkXkWxNqFaEh9bcp3TPm40SP0w2iC9n5Stb7jfeczuL1fflbO6FV8a/5tvGN7L1EPCMAgkQeAyBNxFwCog8e8/i6fBIUCxW4S5wulNuz6agnmzINi1WqEk0OECLEMxl9RWq2Fl/iExFSMTo/k/b/qr9Vc4qWmcZj9W+30749jNIcFbOqvrFyvGpKjNviGzeFl/jlJ9JkPGVSYTk65OD3HaL7Q3ldry5a4mHlq/bYs/ZdL+cTkiTuRq6uW/CgQ5Wn1oM4w6TQqzAeYTxv7AE3kTAJahp4PHEJRDZB6mkbA4Y1ft7qytu/6BcKeCTfZCudp/woitAug8798EHbSlvPwAnfa8FxJmCs8ujoXwtGBr7T2mlSivZeedhEU7pIvPDcrTLQFvIdrUvD3Id0sr/qQ+zWQA6gWrzs8fz8jntaFihccesCY9MGrK4l37IV0rjUduC7zbeYnOeWKhfzDtHMvbus+bb7ntTTKIg4N5ZkAeBOwk8U8D/32/fabQ/TQKgFWd/jLnPbCM1b/XNx0pgzPfhbljJ5NWHuZ61IK9mbdsSpHOZiAltpdPZRrxzsLdXLe3Ol/GHLATDH6CBuj4BUr7axmWiVXZx/GL1ZtqpTRBM9fOSwtxPnNoWiZ8UfU/b4uu+k9pYsBC+5YRA2lHms02t8mzxneMtPkrPCcjtIb6Pn3atpH69j/Xdn6IP0n+ZzJmJ3vy8iuUgbD6WzyOk76cfh8zhAQmswB8AEZfoSOCZAv7f/eA00b9v/5VPdlC/5FlIK1eUwFdb1dDhcz3dD6/c5zP39Ip71Ob+X6XJXJTbLn5bOz/0VPw2W4LvB90jTcFwRbzV7vr2OhuwmChkszQhQbW6MhaRs20IcyN86RpFsJYWVq8vBz3hU9jYVeeaGXl8rMjMJxS7DrLj8GGfnp6fQs9+ljcxhKW7prTlxl98qcqZTJE+NQ/QY6z4tQRaj7nhe5G+L/PT9cZHrH3NCbLlIGwg4GtuibpRCTxbwKX9Twq5BLX2b21VhK4KeA6sG5xCguxasJStZROwNCgu2ygDqazGl8dJifS9ZYJcb61NCfrVY0QQ6EUuvIWeWnZ9V2FKLyaxk4GQAq4+Ue23ADafwnptokiH5+Oc+ObbDEW5iJQVrrlRuY4d21qZMZEfkKNV8mqfquNxmc558prYFHamVnjc/c/v0vGlofNzKbZshsPlvniuokmr5ZDY1Oyo9sGS+HwaK/DPM8QVehIQAf2Nb03T3v/+8vfrq1zFjnuFXMSERJLuwRbMzFY01deCQQ66brVQXKeSkXZr0SgdLgLKW4/Hcw7uPsDyCk5W3XYFTsGY3tJV3EhUW9YDuogDBcaVvq0EQ7m+3TqV7krd8WwDvrRpAvHK9bUnO6Yu9LYy2eEwdq6ZIGO9xpHP14nBwteqHCq8xI7iCfC5UJnLQfZTrnX/eNPVxGdlnG0L9GyHsKPt9vm75gVcGFTYJga1a899s+ek/tS+s1WWhaWfzkDAP40QF+hKQIQz2icJ+V/7jZu6LkFHhIZEj15fOudpK3P9SXUJjB9Xfv9b/jY4iUAtGrH1EoDST7n4OCrT16qWwv3Br1uVCYivo77QT8Hsz73E7qoJKciReM+/v/Urp4S4FQyTaNEDadQ2PWynL7WhcyVQzxzypMRfz+dvGtnHHqw/yaPJnBWL9Xayf1VBm3Mz8/n6/Apd3o0Qdn4iJeXelvoT9F3Hm7ohE5VaP2lrnLs6PwPB3y06bnEO1ZOfGi6SzL7gHoY7136GmNhAwIUePkHAEPhL3zdNz/r357+2XIHTRILsod2AO/4rgrNsWae3sF0LwBIYHyrgKVgdT6f8O/C5W2mbWWxkYW69qWuan+qWFaN7J7nYvYi3tFJK1+c6CbK17dUcVGXqkKzkn4Mdp7P0gwMy2a67HJlrsTJ1gbdx/TuG+BOn0E6MTOjKidL1izqWKyfM45GeYeBJ5Dy5kfG50DZ1cX5dwGVc86QonSPlcr18qQeMt07I/GSChD0xMG81pFfTcl+Sb3lbs202kXxhnlinCbD5HmAL3cJCGgSiEqBVtl35f0K4F13MD51pjQS+VpCRP6RQf92lXqdI0RYnPUVr7/fmA4yIiXiaqCuBnu4rlwE9X6CSoJVNebz0y1xagy0FRlshQZgnDOY6VYFNAZvOLwTcmSV9K+5dum3Y6vXddbpmRSRJMBq7EGvtZ9GpCJs9LwtZWk3yylHE36+85USxzVx7pb1+4y120P3zeXV84j8ucuQ32IlQ5+1z6/O53xs8ecWX5r4ZDnmHxz4MmH6KiFepigPhEwSeQEAE/JHC3eyGBierZ83DH1AhK1OeMIjILRpPK/Gt2/b5nqMa6AN6sQtR23o0Ip7v0VYEdrY/ic7VoJtWUkX/zBZw5frag94pvWfLW+YbNMZbJIyLyZA/qHiOIvmb8Oe3kLUeSBTfTMIlvuJ2WqQ5sUVQP2q88zZ4sRqex1XvdZMVrm9UtOIfYnf+XDm2LeB4Cj3zQwIEQhD4qz9591b5zfanoFFuz8lVZIVU2867pcyuHCSouaAsUVealmBIQXNVxJMdIgj5fH3imVby9Gcp89Zk5Vg9zfSZjqsILAu42NsKuiI2eau4scqsXF9t6ZsSwcuTlZubU1aCo3qJzIIe7KqIXPUkX6httXaKpD+PHm8WZn6+glbf80/GSutWfkbGt1rmnY3iZ5ZpJ2y+Tjo/+9LyelnA+bwr9+N38Ck8xFZ6AHIg8AQCssJp/bRGgmZlm868ZKJ4s5grnx8QcwI+USBM3ZXgvlAAsc2f6zElGyuinAO6PAlOW8R2e9NfSvJpJc5/jasWDOlNbLJazUFXTqZPsT39PjwdUxXK2vXtpXqlhbvb3r+pOenX6jX0lw7zEN8h4GZnZO3vxncb7ytQpN08Qays1Ft1xER2pFrHLMrJ19P4VSczO/gUBPyKU6AaBB5FgGb+y/9UZOqrbzqjLY7L69VKpI0VERYh6Srg84NGWXRrprbKrgXDVG/NzwE5FwoH+8KX1OC16/NhOpHaMv9odcWWZxsrEx973Fo6C9eVaxQ7FjK5uXKOtGu3wdfEm44Xexi7nWTJxbZ8bhqP8kLNVw0Xuz71P4fLX03zal5509v65/xHfEjYs4tZk+7ogz19SxoCvoUSjgGBTxMQ8TB/cSv/hIy2n1v3H6nhNxLwezleC4apXgKpbLkvJkUyUfHCde36PAzzT9WqK/g7+yVit1jd1VaP3mZuU/yqtXtjDMs/saKydF71mvac8rZHdaVpDqek9EnGwlVvy14bD+oL/ayLHmLj71Fjcpp3DeybA9e+a8k89hPzMKGstM2vG7Svz7stAwHf5k44CgQ+SUADrQ/WtKKprc21QQi4PITUFBAr4CndejHM+VT5Odw1weDbnfP9+6YNOmCbUyJ23ieq+arYyq5AYxXYtOSKgPMfsrHPK2wQvdSW9OnhAs4P2tWf+TgcTpPcDZIu0zsK5G97y5jRLzlW3zdAJ8skj38NkK+WJyZ5AifHVceFZzL8vIe0LVd65CcE/JE0cS0QuEqgfDDm6uF8gATpR98DN61LMFpEXZl4mJ0Dd399vveeXsRSCWY3B/SL+Zvk6SEj/WtjjamOFfDUl0VXTHcpyQ8zcZm+9GMt2M79aKy23LXjZ2sCTqvaU36L2TyJoOcVrk0wy952G2/x0QN9D07TiX7jXXMHWnWb3a3FmF5MH72/ShuFeGv/5Hf6+tf52hMnuT1yzQ/16renIOC3M8MZILAzARHw+uqjulqrbcGuPeQkgWsRbUTAN7btA+I9W6p5Be3bXBFPK+BbRkf6W3Bauf6nb2NsMWrPY0oBF7FRX7pduMX6mwX8nvGWxvLn/GY1WXFzP/j1vvkAl7B+ncY9+wRtnbvDTZYnfmJz4e+17+maT5mL3pmEgN8JDqeBwH4EUmAogsUtrUuwatwnpEtJ8FpErg3nsiltG28O6PTyGf+TNfoTkrXVlmC4VcD5T6HSCzfo3ih9Xrl+4rNYzUn7L/dZCjg9Z0HM6Y18q5w39HOX8V7YYcST3sS2sRPzxCV9L2iMicGKeEuz8zMWXpz9OxO22yHXvfUTAn4rMRwPAm9KQLeUXQflN6+ueJHdetzixMcU1J/yf8y1aa+Wnkiubtk+qAlc5pMEyP8+eYmbTg/gDBDwm0YMB4MACIAACIBADAIQ8BjjACtAAARAAARA4CYCEPCbcOFgEAABEAABEIhBAAIeYxxgBQiAAAiAAAjcRAACfhMuHAwCIAACIAACMQhAwGOMA6wAARAAARAAgZsIQMBvwoWDQQAEQAAEQCAGAQh4jHGAFSAAAiAAAiBwEwEI+E24cDAIgAAIgAAIxCAAAY8xDrACBEAABEAABG4iAAG/CRcOBgEQAAEQAIEYBCDgMcYBVoAACIAACIDATQQg4DfhwsEgAAIgAAIgEIMABDzGOMAKEAABEAABELiJAAT8Jlw4GARAAARAAARiEICAxxgHWAECIAACIAACNxGAgN+ECweDAAiAAAiAQAwC/z9m80AgL0iRNAAAAABJRU5ErkJggg==;" parent="1" vertex="1">
          <mxGeometry x="419" y="2566" width="348.54" height="390" as="geometry" />
        </mxCell>
        <mxCell id="mZkxWH9-liJ_xIIL09nw-31" value="地图树资源" style="rounded=0;whiteSpace=wrap;html=1;fillColor=#f5f5f5;strokeColor=#666666;fontColor=#333333;" parent="1" vertex="1">
          <mxGeometry x="58" y="2604" width="120" height="60" as="geometry" />
        </mxCell>
        <mxCell id="mZkxWH9-liJ_xIIL09nw-39" style="edgeStyle=orthogonalEdgeStyle;curved=1;orthogonalLoop=1;jettySize=auto;html=1;exitX=0.5;exitY=1;exitDx=0;exitDy=0;entryX=0.5;entryY=0;entryDx=0;entryDy=0;endArrow=classic;endFill=1;" parent="1" source="mZkxWH9-liJ_xIIL09nw-33" target="mZkxWH9-liJ_xIIL09nw-34" edge="1">
          <mxGeometry relative="1" as="geometry" />
        </mxCell>
        <mxCell id="mZkxWH9-liJ_xIIL09nw-33" value="服务器启动" style="rounded=1;whiteSpace=wrap;html=1;" parent="1" vertex="1">
          <mxGeometry x="58" y="2720" width="120" height="40" as="geometry" />
        </mxCell>
        <mxCell id="mZkxWH9-liJ_xIIL09nw-40" style="edgeStyle=orthogonalEdgeStyle;curved=1;orthogonalLoop=1;jettySize=auto;html=1;exitX=0.5;exitY=1;exitDx=0;exitDy=0;entryX=0.5;entryY=0;entryDx=0;entryDy=0;endArrow=classic;endFill=1;" parent="1" source="mZkxWH9-liJ_xIIL09nw-34" target="mZkxWH9-liJ_xIIL09nw-35" edge="1">
          <mxGeometry relative="1" as="geometry" />
        </mxCell>
        <mxCell id="mZkxWH9-liJ_xIIL09nw-45" style="edgeStyle=orthogonalEdgeStyle;curved=1;orthogonalLoop=1;jettySize=auto;html=1;exitX=0;exitY=0.5;exitDx=0;exitDy=0;entryX=0;entryY=0.5;entryDx=0;entryDy=0;endArrow=classic;endFill=1;dashed=1;" parent="1" source="mZkxWH9-liJ_xIIL09nw-34" target="mZkxWH9-liJ_xIIL09nw-31" edge="1">
          <mxGeometry relative="1" as="geometry">
            <Array as="points">
              <mxPoint x="22" y="2829" />
              <mxPoint x="22" y="2634" />
            </Array>
          </mxGeometry>
        </mxCell>
        <mxCell id="mZkxWH9-liJ_xIIL09nw-34" value="资源加载" style="rounded=0;whiteSpace=wrap;html=1;" parent="1" vertex="1">
          <mxGeometry x="58" y="2809" width="120" height="40" as="geometry" />
        </mxCell>
        <mxCell id="mZkxWH9-liJ_xIIL09nw-41" style="edgeStyle=orthogonalEdgeStyle;curved=1;orthogonalLoop=1;jettySize=auto;html=1;exitX=1;exitY=0.5;exitDx=0;exitDy=0;entryX=0;entryY=0.5;entryDx=0;entryDy=0;endArrow=classic;endFill=1;" parent="1" source="mZkxWH9-liJ_xIIL09nw-35" target="mZkxWH9-liJ_xIIL09nw-36" edge="1">
          <mxGeometry relative="1" as="geometry" />
        </mxCell>
        <mxCell id="mZkxWH9-liJ_xIIL09nw-35" value="副本树按视野格子预处理" style="rounded=0;whiteSpace=wrap;html=1;" parent="1" vertex="1">
          <mxGeometry x="58" y="2898" width="120" height="40" as="geometry" />
        </mxCell>
        <mxCell id="mZkxWH9-liJ_xIIL09nw-42" style="edgeStyle=orthogonalEdgeStyle;curved=1;orthogonalLoop=1;jettySize=auto;html=1;exitX=0.5;exitY=0;exitDx=0;exitDy=0;entryX=0.5;entryY=1;entryDx=0;entryDy=0;endArrow=classic;endFill=1;" parent="1" source="mZkxWH9-liJ_xIIL09nw-36" target="mZkxWH9-liJ_xIIL09nw-37" edge="1">
          <mxGeometry relative="1" as="geometry" />
        </mxCell>
        <mxCell id="mZkxWH9-liJ_xIIL09nw-36" value="创建副本" style="rounded=0;whiteSpace=wrap;html=1;" parent="1" vertex="1">
          <mxGeometry x="236" y="2898" width="120" height="40" as="geometry" />
        </mxCell>
        <mxCell id="mZkxWH9-liJ_xIIL09nw-43" style="edgeStyle=orthogonalEdgeStyle;curved=1;orthogonalLoop=1;jettySize=auto;html=1;exitX=0.5;exitY=0;exitDx=0;exitDy=0;entryX=0.5;entryY=1;entryDx=0;entryDy=0;endArrow=classic;endFill=1;" parent="1" source="mZkxWH9-liJ_xIIL09nw-37" target="mZkxWH9-liJ_xIIL09nw-38" edge="1">
          <mxGeometry relative="1" as="geometry" />
        </mxCell>
        <mxCell id="mZkxWH9-liJ_xIIL09nw-37" value="玩家进入" style="rounded=0;whiteSpace=wrap;html=1;" parent="1" vertex="1">
          <mxGeometry x="236" y="2809" width="120" height="40" as="geometry" />
        </mxCell>
        <mxCell id="mZkxWH9-liJ_xIIL09nw-44" style="edgeStyle=orthogonalEdgeStyle;curved=1;orthogonalLoop=1;jettySize=auto;html=1;exitX=1;exitY=0.5;exitDx=0;exitDy=0;entryX=0;entryY=0.5;entryDx=0;entryDy=0;endArrow=classic;endFill=1;" parent="1" source="mZkxWH9-liJ_xIIL09nw-38" target="mZkxWH9-liJ_xIIL09nw-30" edge="1">
          <mxGeometry relative="1" as="geometry" />
        </mxCell>
        <mxCell id="mZkxWH9-liJ_xIIL09nw-38" value="玩家3秒tick" style="rounded=0;whiteSpace=wrap;html=1;" parent="1" vertex="1">
          <mxGeometry x="236" y="2720" width="120" height="40" as="geometry" />
        </mxCell>
        <mxCell id="mZkxWH9-liJ_xIIL09nw-59" value="" style="edgeStyle=orthogonalEdgeStyle;curved=1;orthogonalLoop=1;jettySize=auto;html=1;endArrow=block;endFill=0;" parent="1" source="mZkxWH9-liJ_xIIL09nw-46" target="mZkxWH9-liJ_xIIL09nw-51" edge="1">
          <mxGeometry relative="1" as="geometry" />
        </mxCell>
        <mxCell id="mZkxWH9-liJ_xIIL09nw-46" value="&lt;p style=&quot;margin: 4px 0px 0px&quot;&gt;&lt;b&gt;CActor&lt;/b&gt;&lt;/p&gt;&lt;hr size=&quot;1&quot;&gt;&lt;p style=&quot;margin: 0px ; margin-left: 4px&quot;&gt;CMoveMgr&lt;/p&gt;&lt;p style=&quot;margin: 0px ; margin-left: 4px&quot;&gt;CBuffMgr&lt;/p&gt;&lt;p style=&quot;margin: 0px ; margin-left: 4px&quot;&gt;CHateMgr&lt;/p&gt;" style="verticalAlign=top;align=center;overflow=fill;fontSize=12;fontFamily=Helvetica;html=1;fillColor=#d5e8d4;strokeColor=#82b366;" parent="1" vertex="1">
          <mxGeometry x="238.5" y="3674" width="100" height="75" as="geometry" />
        </mxCell>
        <mxCell id="O3Mjcj8SoWYWXLtXBjFT-3" value="" style="edgeStyle=orthogonalEdgeStyle;rounded=0;orthogonalLoop=1;jettySize=auto;html=1;endArrow=block;endFill=0;" parent="1" source="mZkxWH9-liJ_xIIL09nw-51" target="O3Mjcj8SoWYWXLtXBjFT-1" edge="1">
          <mxGeometry relative="1" as="geometry" />
        </mxCell>
        <mxCell id="mZkxWH9-liJ_xIIL09nw-51" value="&lt;b&gt;CEntity&lt;/b&gt;" style="html=1;fillColor=#dae8fc;strokeColor=#6c8ebf;" parent="1" vertex="1">
          <mxGeometry x="238.5" y="3599" width="100" height="30" as="geometry" />
        </mxCell>
        <mxCell id="mZkxWH9-liJ_xIIL09nw-62" style="edgeStyle=orthogonalEdgeStyle;rounded=0;orthogonalLoop=1;jettySize=auto;html=1;exitX=0.5;exitY=0;exitDx=0;exitDy=0;entryX=0.5;entryY=1;entryDx=0;entryDy=0;endArrow=block;endFill=0;" parent="1" source="mZkxWH9-liJ_xIIL09nw-52" target="mZkxWH9-liJ_xIIL09nw-51" edge="1">
          <mxGeometry relative="1" as="geometry" />
        </mxCell>
        <mxCell id="mZkxWH9-liJ_xIIL09nw-52" value="&lt;b&gt;CDropItem&lt;/b&gt;" style="html=1;fillColor=#dae8fc;strokeColor=#6c8ebf;" parent="1" vertex="1">
          <mxGeometry x="368.5" y="3674" width="100" height="30" as="geometry" />
        </mxCell>
        <mxCell id="mZkxWH9-liJ_xIIL09nw-67" style="edgeStyle=orthogonalEdgeStyle;rounded=0;orthogonalLoop=1;jettySize=auto;html=1;exitX=0.5;exitY=0;exitDx=0;exitDy=0;endArrow=block;endFill=0;" parent="1" source="mZkxWH9-liJ_xIIL09nw-53" edge="1">
          <mxGeometry relative="1" as="geometry">
            <mxPoint x="288.5" y="3749" as="targetPoint" />
          </mxGeometry>
        </mxCell>
        <mxCell id="mZkxWH9-liJ_xIIL09nw-53" value="&lt;b&gt;CMonster&lt;br&gt;&lt;/b&gt;" style="html=1;fillColor=#f8cecc;strokeColor=#b85450;" parent="1" vertex="1">
          <mxGeometry x="238.5" y="3791" width="100" height="30" as="geometry" />
        </mxCell>
        <mxCell id="mZkxWH9-liJ_xIIL09nw-71" style="edgeStyle=orthogonalEdgeStyle;rounded=0;orthogonalLoop=1;jettySize=auto;html=1;exitX=0.5;exitY=0;exitDx=0;exitDy=0;entryX=0.5;entryY=1;entryDx=0;entryDy=0;startArrow=none;startFill=0;endArrow=block;endFill=0;" parent="1" source="mZkxWH9-liJ_xIIL09nw-54" target="mZkxWH9-liJ_xIIL09nw-46" edge="1">
          <mxGeometry relative="1" as="geometry" />
        </mxCell>
        <mxCell id="mZkxWH9-liJ_xIIL09nw-54" value="&lt;b&gt;CPlayer&lt;br&gt;&lt;/b&gt;" style="html=1;fillColor=#f8cecc;strokeColor=#b85450;" parent="1" vertex="1">
          <mxGeometry x="105.5" y="3791" width="100" height="30" as="geometry" />
        </mxCell>
        <mxCell id="mZkxWH9-liJ_xIIL09nw-68" value="" style="edgeStyle=orthogonalEdgeStyle;rounded=0;orthogonalLoop=1;jettySize=auto;html=1;endArrow=block;endFill=0;" parent="1" source="mZkxWH9-liJ_xIIL09nw-55" target="mZkxWH9-liJ_xIIL09nw-53" edge="1">
          <mxGeometry relative="1" as="geometry" />
        </mxCell>
        <mxCell id="mZkxWH9-liJ_xIIL09nw-55" value="&lt;b&gt;CBoss&lt;br&gt;&lt;/b&gt;" style="html=1;fillColor=#f8cecc;strokeColor=#b85450;" parent="1" vertex="1">
          <mxGeometry x="238.5" y="3863" width="100" height="30" as="geometry" />
        </mxCell>
        <mxCell id="mZkxWH9-liJ_xIIL09nw-63" style="edgeStyle=orthogonalEdgeStyle;rounded=0;orthogonalLoop=1;jettySize=auto;html=1;exitX=0.5;exitY=0;exitDx=0;exitDy=0;entryX=0.5;entryY=1;entryDx=0;entryDy=0;endArrow=block;endFill=0;" parent="1" source="mZkxWH9-liJ_xIIL09nw-56" target="mZkxWH9-liJ_xIIL09nw-46" edge="1">
          <mxGeometry relative="1" as="geometry" />
        </mxCell>
        <mxCell id="mZkxWH9-liJ_xIIL09nw-56" value="&lt;b&gt;CMapTree&lt;br&gt;&lt;/b&gt;" style="html=1;fillColor=#f8cecc;strokeColor=#b85450;" parent="1" vertex="1">
          <mxGeometry x="364.5" y="3791" width="100" height="30" as="geometry" />
        </mxCell>
        <mxCell id="mZkxWH9-liJ_xIIL09nw-69" style="edgeStyle=orthogonalEdgeStyle;rounded=0;orthogonalLoop=1;jettySize=auto;html=1;exitX=0.5;exitY=1;exitDx=0;exitDy=0;entryX=0;entryY=0.5;entryDx=0;entryDy=0;endArrow=classic;endFill=1;startArrow=classic;startFill=1;" parent="1" source="mZkxWH9-liJ_xIIL09nw-57" target="mZkxWH9-liJ_xIIL09nw-46" edge="1">
          <mxGeometry relative="1" as="geometry" />
        </mxCell>
        <mxCell id="mZkxWH9-liJ_xIIL09nw-57" value="&lt;b&gt;CServiceActor&lt;br&gt;&lt;/b&gt;" style="html=1;fillColor=#d5e8d4;strokeColor=#82b366;" parent="1" vertex="1">
          <mxGeometry x="105.5" y="3599" width="100" height="30" as="geometry" />
        </mxCell>
        <mxCell id="mZkxWH9-liJ_xIIL09nw-73" value="&lt;b&gt;World&lt;br&gt;&lt;/b&gt;" style="html=1;fillColor=#dae8fc;strokeColor=#6c8ebf;" parent="1" vertex="1">
          <mxGeometry x="63" y="4242" width="100" height="30" as="geometry" />
        </mxCell>
        <mxCell id="mZkxWH9-liJ_xIIL09nw-92" style="edgeStyle=orthogonalEdgeStyle;rounded=0;orthogonalLoop=1;jettySize=auto;html=1;exitX=0;exitY=0.5;exitDx=0;exitDy=0;entryX=0.504;entryY=0.007;entryDx=0;entryDy=0;entryPerimeter=0;startArrow=none;startFill=0;endArrow=diamondThin;endFill=0;" parent="1" source="mZkxWH9-liJ_xIIL09nw-74" target="mZkxWH9-liJ_xIIL09nw-73" edge="1">
          <mxGeometry relative="1" as="geometry" />
        </mxCell>
        <mxCell id="mZkxWH9-liJ_xIIL09nw-74" value="&lt;b&gt;System&lt;br&gt;&lt;/b&gt;" style="html=1;fillColor=#f8cecc;strokeColor=#b85450;" parent="1" vertex="1">
          <mxGeometry x="212" y="4180" width="100" height="30" as="geometry" />
        </mxCell>
        <mxCell id="mZkxWH9-liJ_xIIL09nw-91" style="edgeStyle=orthogonalEdgeStyle;rounded=0;orthogonalLoop=1;jettySize=auto;html=1;exitX=0;exitY=0.5;exitDx=0;exitDy=0;entryX=0.5;entryY=1;entryDx=0;entryDy=0;startArrow=none;startFill=0;endArrow=diamondThin;endFill=0;" parent="1" source="mZkxWH9-liJ_xIIL09nw-75" target="mZkxWH9-liJ_xIIL09nw-73" edge="1">
          <mxGeometry relative="1" as="geometry" />
        </mxCell>
        <mxCell id="mZkxWH9-liJ_xIIL09nw-75" value="&lt;b&gt;Entity&lt;br&gt;&lt;/b&gt;" style="html=1;fillColor=#f8cecc;strokeColor=#b85450;" parent="1" vertex="1">
          <mxGeometry x="212" y="4303" width="100" height="30" as="geometry" />
        </mxCell>
        <mxCell id="mZkxWH9-liJ_xIIL09nw-85" style="edgeStyle=orthogonalEdgeStyle;orthogonalLoop=1;jettySize=auto;html=1;exitX=0;exitY=0.5;exitDx=0;exitDy=0;entryX=1;entryY=0.5;entryDx=0;entryDy=0;startArrow=none;startFill=0;endArrow=block;endFill=0;rounded=0;" parent="1" source="mZkxWH9-liJ_xIIL09nw-76" target="mZkxWH9-liJ_xIIL09nw-84" edge="1">
          <mxGeometry relative="1" as="geometry" />
        </mxCell>
        <mxCell id="mZkxWH9-liJ_xIIL09nw-76" value="&lt;b&gt;Component1&lt;br&gt;&lt;/b&gt;" style="html=1;fillColor=#dae8fc;strokeColor=#6c8ebf;" parent="1" vertex="1">
          <mxGeometry x="522" y="4273" width="100" height="30" as="geometry" />
        </mxCell>
        <mxCell id="mZkxWH9-liJ_xIIL09nw-86" style="edgeStyle=orthogonalEdgeStyle;curved=1;orthogonalLoop=1;jettySize=auto;html=1;exitX=0;exitY=0.5;exitDx=0;exitDy=0;entryX=1;entryY=0.5;entryDx=0;entryDy=0;startArrow=none;startFill=0;endArrow=block;endFill=0;" parent="1" source="mZkxWH9-liJ_xIIL09nw-77" target="mZkxWH9-liJ_xIIL09nw-84" edge="1">
          <mxGeometry relative="1" as="geometry" />
        </mxCell>
        <mxCell id="mZkxWH9-liJ_xIIL09nw-77" value="&lt;b&gt;Component2&lt;/b&gt;&lt;b&gt;&lt;br&gt;&lt;/b&gt;" style="html=1;fillColor=#dae8fc;strokeColor=#6c8ebf;" parent="1" vertex="1">
          <mxGeometry x="522" y="4303" width="100" height="30" as="geometry" />
        </mxCell>
        <mxCell id="mZkxWH9-liJ_xIIL09nw-89" style="edgeStyle=orthogonalEdgeStyle;rounded=0;orthogonalLoop=1;jettySize=auto;html=1;exitX=0;exitY=0.5;exitDx=0;exitDy=0;entryX=1;entryY=0.5;entryDx=0;entryDy=0;startArrow=none;startFill=0;endArrow=block;endFill=0;" parent="1" source="mZkxWH9-liJ_xIIL09nw-78" target="mZkxWH9-liJ_xIIL09nw-84" edge="1">
          <mxGeometry relative="1" as="geometry" />
        </mxCell>
        <mxCell id="mZkxWH9-liJ_xIIL09nw-78" value="&lt;b&gt;Component3&lt;/b&gt;&lt;b&gt;&lt;br&gt;&lt;/b&gt;" style="html=1;fillColor=#dae8fc;strokeColor=#6c8ebf;" parent="1" vertex="1">
          <mxGeometry x="522" y="4333" width="100" height="30" as="geometry" />
        </mxCell>
        <mxCell id="mZkxWH9-liJ_xIIL09nw-96" style="edgeStyle=orthogonalEdgeStyle;rounded=0;orthogonalLoop=1;jettySize=auto;html=1;exitX=0;exitY=0.5;exitDx=0;exitDy=0;entryX=1;entryY=0.5;entryDx=0;entryDy=0;startArrow=none;startFill=0;endArrow=block;endFill=0;" parent="1" source="mZkxWH9-liJ_xIIL09nw-79" target="mZkxWH9-liJ_xIIL09nw-74" edge="1">
          <mxGeometry relative="1" as="geometry" />
        </mxCell>
        <mxCell id="mZkxWH9-liJ_xIIL09nw-79" value="&lt;b&gt;System1&lt;br&gt;&lt;/b&gt;" style="html=1;fillColor=#dae8fc;strokeColor=#6c8ebf;" parent="1" vertex="1">
          <mxGeometry x="367" y="4150" width="100" height="30" as="geometry" />
        </mxCell>
        <mxCell id="mZkxWH9-liJ_xIIL09nw-97" value="" style="edgeStyle=orthogonalEdgeStyle;rounded=0;orthogonalLoop=1;jettySize=auto;html=1;startArrow=none;startFill=0;endArrow=block;endFill=0;" parent="1" source="mZkxWH9-liJ_xIIL09nw-80" target="mZkxWH9-liJ_xIIL09nw-74" edge="1">
          <mxGeometry relative="1" as="geometry" />
        </mxCell>
        <mxCell id="mZkxWH9-liJ_xIIL09nw-80" value="&lt;b&gt;System2&lt;br&gt;&lt;/b&gt;" style="html=1;fillColor=#dae8fc;strokeColor=#6c8ebf;" parent="1" vertex="1">
          <mxGeometry x="367" y="4180" width="100" height="30" as="geometry" />
        </mxCell>
        <mxCell id="mZkxWH9-liJ_xIIL09nw-98" value="" style="edgeStyle=orthogonalEdgeStyle;rounded=0;orthogonalLoop=1;jettySize=auto;html=1;startArrow=none;startFill=0;endArrow=block;endFill=0;" parent="1" source="mZkxWH9-liJ_xIIL09nw-81" target="mZkxWH9-liJ_xIIL09nw-74" edge="1">
          <mxGeometry relative="1" as="geometry" />
        </mxCell>
        <mxCell id="mZkxWH9-liJ_xIIL09nw-81" value="&lt;b&gt;System3&lt;br&gt;&lt;/b&gt;" style="html=1;fillColor=#dae8fc;strokeColor=#6c8ebf;" parent="1" vertex="1">
          <mxGeometry x="367" y="4210" width="100" height="30" as="geometry" />
        </mxCell>
        <mxCell id="mZkxWH9-liJ_xIIL09nw-90" style="edgeStyle=orthogonalEdgeStyle;rounded=0;orthogonalLoop=1;jettySize=auto;html=1;exitX=0;exitY=0.5;exitDx=0;exitDy=0;entryX=1;entryY=0.5;entryDx=0;entryDy=0;startArrow=none;startFill=0;endArrow=diamondThin;endFill=1;" parent="1" source="mZkxWH9-liJ_xIIL09nw-84" target="mZkxWH9-liJ_xIIL09nw-75" edge="1">
          <mxGeometry relative="1" as="geometry" />
        </mxCell>
        <mxCell id="mZkxWH9-liJ_xIIL09nw-84" value="&lt;b&gt;Component&lt;br&gt;&lt;/b&gt;" style="html=1;fillColor=#f8cecc;strokeColor=#b85450;" parent="1" vertex="1">
          <mxGeometry x="367" y="4303" width="100" height="30" as="geometry" />
        </mxCell>
        <mxCell id="mZkxWH9-liJ_xIIL09nw-107" value="&lt;b&gt;CService&lt;br&gt;&lt;/b&gt;" style="html=1;fillColor=#fff2cc;strokeColor=#d6b656;" parent="1" vertex="1">
          <mxGeometry x="212" y="4210" width="100" height="30" as="geometry" />
        </mxCell>
        <mxCell id="mZkxWH9-liJ_xIIL09nw-108" value="&lt;b&gt;CActor&lt;br&gt;&lt;/b&gt;" style="html=1;fillColor=#fff2cc;strokeColor=#d6b656;" parent="1" vertex="1">
          <mxGeometry x="212" y="4333" width="100" height="30" as="geometry" />
        </mxCell>
        <mxCell id="mZkxWH9-liJ_xIIL09nw-111" value="&lt;b&gt;CMoveMgr&lt;br&gt;&lt;/b&gt;" style="html=1;fillColor=#fff2cc;strokeColor=#d6b656;" parent="1" vertex="1">
          <mxGeometry x="622" y="4273" width="100" height="30" as="geometry" />
        </mxCell>
        <mxCell id="mZkxWH9-liJ_xIIL09nw-112" value="&lt;b&gt;CSkillMgr&lt;/b&gt;&lt;b&gt;&lt;br&gt;&lt;/b&gt;" style="html=1;fillColor=#fff2cc;strokeColor=#d6b656;" parent="1" vertex="1">
          <mxGeometry x="622" y="4303" width="100" height="30" as="geometry" />
        </mxCell>
        <mxCell id="mZkxWH9-liJ_xIIL09nw-113" value="&lt;b&gt;CBuffMgr&lt;/b&gt;&lt;b&gt;&lt;br&gt;&lt;/b&gt;" style="html=1;fillColor=#fff2cc;strokeColor=#d6b656;" parent="1" vertex="1">
          <mxGeometry x="622" y="4333" width="100" height="30" as="geometry" />
        </mxCell>
        <mxCell id="O3Mjcj8SoWYWXLtXBjFT-1" value="&lt;b&gt;CObj&lt;/b&gt;" style="html=1;fillColor=#dae8fc;strokeColor=#6c8ebf;" parent="1" vertex="1">
          <mxGeometry x="238.5" y="3533" width="100" height="30" as="geometry" />
        </mxCell>
        <mxCell id="O3Mjcj8SoWYWXLtXBjFT-43" value="" style="edgeStyle=orthogonalEdgeStyle;rounded=0;orthogonalLoop=1;jettySize=auto;html=1;startArrow=classic;startFill=1;endArrow=classic;endFill=1;" parent="1" source="O3Mjcj8SoWYWXLtXBjFT-4" target="O3Mjcj8SoWYWXLtXBjFT-35" edge="1">
          <mxGeometry relative="1" as="geometry" />
        </mxCell>
        <mxCell id="O3Mjcj8SoWYWXLtXBjFT-4" value="&lt;font style=&quot;font-size: 18px&quot;&gt;CActor&lt;/font&gt;&lt;br&gt;&lt;br&gt;&lt;br&gt;&lt;br&gt;&lt;br&gt;" style="rounded=0;whiteSpace=wrap;html=1;fillColor=#dae8fc;strokeColor=#6c8ebf;" parent="1" vertex="1">
          <mxGeometry x="53.75" y="4783" width="270" height="90" as="geometry" />
        </mxCell>
        <mxCell id="O3Mjcj8SoWYWXLtXBjFT-5" value="&lt;font style=&quot;font-size: 18px&quot;&gt;CActor&lt;/font&gt;&lt;br&gt;&lt;br&gt;&lt;br&gt;&lt;br&gt;&lt;br&gt;" style="rounded=0;whiteSpace=wrap;html=1;fillColor=#dae8fc;strokeColor=#6c8ebf;" parent="1" vertex="1">
          <mxGeometry x="404.75" y="4783" width="270" height="90" as="geometry" />
        </mxCell>
        <mxCell id="O3Mjcj8SoWYWXLtXBjFT-6" value="CSkillMgr" style="rounded=0;whiteSpace=wrap;html=1;fillColor=#fff2cc;strokeColor=#d6b656;" parent="1" vertex="1">
          <mxGeometry x="149.75" y="4829" width="80" height="30" as="geometry" />
        </mxCell>
        <mxCell id="O3Mjcj8SoWYWXLtXBjFT-7" value="CMoveMgr" style="rounded=0;whiteSpace=wrap;html=1;fillColor=#fff2cc;strokeColor=#d6b656;" parent="1" vertex="1">
          <mxGeometry x="59.75" y="4829" width="80" height="30" as="geometry" />
        </mxCell>
        <mxCell id="O3Mjcj8SoWYWXLtXBjFT-8" value="CBuffMgr" style="rounded=0;whiteSpace=wrap;html=1;fillColor=#fff2cc;strokeColor=#d6b656;" parent="1" vertex="1">
          <mxGeometry x="238.75" y="4829" width="80" height="30" as="geometry" />
        </mxCell>
        <mxCell id="O3Mjcj8SoWYWXLtXBjFT-41" value="" style="edgeStyle=orthogonalEdgeStyle;rounded=0;orthogonalLoop=1;jettySize=auto;html=1;startArrow=classic;startFill=1;endArrow=classic;endFill=1;" parent="1" source="O3Mjcj8SoWYWXLtXBjFT-12" target="O3Mjcj8SoWYWXLtXBjFT-37" edge="1">
          <mxGeometry relative="1" as="geometry" />
        </mxCell>
        <mxCell id="O3Mjcj8SoWYWXLtXBjFT-12" value="CSkillMgr" style="rounded=0;whiteSpace=wrap;html=1;fillColor=#fff2cc;strokeColor=#d6b656;" parent="1" vertex="1">
          <mxGeometry x="501.25" y="4906" width="80" height="30" as="geometry" />
        </mxCell>
        <mxCell id="O3Mjcj8SoWYWXLtXBjFT-39" value="" style="edgeStyle=orthogonalEdgeStyle;rounded=0;orthogonalLoop=1;jettySize=auto;html=1;endArrow=classic;endFill=1;startArrow=classic;startFill=1;" parent="1" source="O3Mjcj8SoWYWXLtXBjFT-13" target="O3Mjcj8SoWYWXLtXBjFT-36" edge="1">
          <mxGeometry relative="1" as="geometry" />
        </mxCell>
        <mxCell id="O3Mjcj8SoWYWXLtXBjFT-13" value="CMoveMgr" style="rounded=0;whiteSpace=wrap;html=1;fillColor=#fff2cc;strokeColor=#d6b656;" parent="1" vertex="1">
          <mxGeometry x="411.25" y="4906" width="80" height="30" as="geometry" />
        </mxCell>
        <mxCell id="O3Mjcj8SoWYWXLtXBjFT-42" value="" style="edgeStyle=orthogonalEdgeStyle;rounded=0;orthogonalLoop=1;jettySize=auto;html=1;startArrow=classic;startFill=1;endArrow=classic;endFill=1;" parent="1" source="O3Mjcj8SoWYWXLtXBjFT-14" target="O3Mjcj8SoWYWXLtXBjFT-38" edge="1">
          <mxGeometry relative="1" as="geometry" />
        </mxCell>
        <mxCell id="O3Mjcj8SoWYWXLtXBjFT-14" value="CBuffMgr" style="rounded=0;whiteSpace=wrap;html=1;fillColor=#fff2cc;strokeColor=#d6b656;" parent="1" vertex="1">
          <mxGeometry x="590.25" y="4906" width="80" height="30" as="geometry" />
        </mxCell>
        <mxCell id="O3Mjcj8SoWYWXLtXBjFT-22" style="edgeStyle=orthogonalEdgeStyle;rounded=0;orthogonalLoop=1;jettySize=auto;html=1;exitX=0.5;exitY=1;exitDx=0;exitDy=0;entryX=0.5;entryY=0;entryDx=0;entryDy=0;endArrow=classic;endFill=1;" parent="1" source="O3Mjcj8SoWYWXLtXBjFT-16" target="O3Mjcj8SoWYWXLtXBjFT-12" edge="1">
          <mxGeometry relative="1" as="geometry" />
        </mxCell>
        <mxCell id="O3Mjcj8SoWYWXLtXBjFT-16" value="" style="rounded=0;whiteSpace=wrap;html=1;" parent="1" vertex="1">
          <mxGeometry x="455.75" y="4824" width="170" height="40" as="geometry" />
        </mxCell>
        <mxCell id="O3Mjcj8SoWYWXLtXBjFT-21" style="edgeStyle=orthogonalEdgeStyle;rounded=0;orthogonalLoop=1;jettySize=auto;html=1;exitX=0.5;exitY=1;exitDx=0;exitDy=0;entryX=0.525;entryY=0.013;entryDx=0;entryDy=0;entryPerimeter=0;endArrow=classic;endFill=1;" parent="1" source="O3Mjcj8SoWYWXLtXBjFT-17" target="O3Mjcj8SoWYWXLtXBjFT-13" edge="1">
          <mxGeometry relative="1" as="geometry" />
        </mxCell>
        <mxCell id="O3Mjcj8SoWYWXLtXBjFT-17" value="ID" style="rounded=0;whiteSpace=wrap;html=1;fillColor=#fff2cc;strokeColor=#d6b656;" parent="1" vertex="1">
          <mxGeometry x="466.25" y="4829" width="30" height="30" as="geometry" />
        </mxCell>
        <mxCell id="O3Mjcj8SoWYWXLtXBjFT-18" value="ID" style="rounded=0;whiteSpace=wrap;html=1;fillColor=#fff2cc;strokeColor=#d6b656;" parent="1" vertex="1">
          <mxGeometry x="525.75" y="4829" width="30" height="30" as="geometry" />
        </mxCell>
        <mxCell id="O3Mjcj8SoWYWXLtXBjFT-23" style="edgeStyle=orthogonalEdgeStyle;rounded=0;orthogonalLoop=1;jettySize=auto;html=1;exitX=0.5;exitY=1;exitDx=0;exitDy=0;entryX=0.5;entryY=0;entryDx=0;entryDy=0;endArrow=classic;endFill=1;" parent="1" source="O3Mjcj8SoWYWXLtXBjFT-19" target="O3Mjcj8SoWYWXLtXBjFT-14" edge="1">
          <mxGeometry relative="1" as="geometry" />
        </mxCell>
        <mxCell id="O3Mjcj8SoWYWXLtXBjFT-19" value="ID" style="rounded=0;whiteSpace=wrap;html=1;fillColor=#fff2cc;strokeColor=#d6b656;" parent="1" vertex="1">
          <mxGeometry x="586.25" y="4829" width="30" height="30" as="geometry" />
        </mxCell>
        <mxCell id="O3Mjcj8SoWYWXLtXBjFT-24" value="&lt;font style=&quot;font-size: 18px&quot;&gt;CActor&lt;/font&gt;&lt;br&gt;&lt;br&gt;&lt;br&gt;&lt;br&gt;&lt;br&gt;" style="rounded=0;whiteSpace=wrap;html=1;fillColor=#dae8fc;strokeColor=#6c8ebf;" parent="1" vertex="1">
          <mxGeometry x="403.25" y="5080" width="270" height="90" as="geometry" />
        </mxCell>
        <mxCell id="O3Mjcj8SoWYWXLtXBjFT-29" value="" style="rounded=0;whiteSpace=wrap;html=1;" parent="1" vertex="1">
          <mxGeometry x="453.75" y="5121" width="170" height="40" as="geometry" />
        </mxCell>
        <mxCell id="O3Mjcj8SoWYWXLtXBjFT-31" value="ptr" style="rounded=0;whiteSpace=wrap;html=1;fillColor=#fff2cc;strokeColor=#d6b656;" parent="1" vertex="1">
          <mxGeometry x="464.25" y="5126" width="30" height="30" as="geometry" />
        </mxCell>
        <mxCell id="O3Mjcj8SoWYWXLtXBjFT-50" style="edgeStyle=orthogonalEdgeStyle;curved=1;rounded=0;orthogonalLoop=1;jettySize=auto;html=1;exitX=0;exitY=1;exitDx=0;exitDy=0;entryX=0;entryY=0.5;entryDx=0;entryDy=0;startArrow=none;startFill=0;endArrow=classic;endFill=1;dashed=1;" parent="1" source="O3Mjcj8SoWYWXLtXBjFT-32" target="O3Mjcj8SoWYWXLtXBjFT-44" edge="1">
          <mxGeometry relative="1" as="geometry" />
        </mxCell>
        <mxCell id="O3Mjcj8SoWYWXLtXBjFT-52" value="重启热更" style="edgeLabel;html=1;align=center;verticalAlign=middle;resizable=0;points=[];" parent="O3Mjcj8SoWYWXLtXBjFT-50" vertex="1" connectable="0">
          <mxGeometry x="0.0055" y="3" relative="1" as="geometry">
            <mxPoint as="offset" />
          </mxGeometry>
        </mxCell>
        <mxCell id="O3Mjcj8SoWYWXLtXBjFT-32" value="ptr" style="rounded=0;whiteSpace=wrap;html=1;fillColor=#fff2cc;strokeColor=#d6b656;" parent="1" vertex="1">
          <mxGeometry x="523.75" y="5126" width="30" height="30" as="geometry" />
        </mxCell>
        <mxCell id="O3Mjcj8SoWYWXLtXBjFT-34" value="ptr" style="rounded=0;whiteSpace=wrap;html=1;fillColor=#fff2cc;strokeColor=#d6b656;" parent="1" vertex="1">
          <mxGeometry x="584.25" y="5126" width="30" height="30" as="geometry" />
        </mxCell>
        <mxCell id="O3Mjcj8SoWYWXLtXBjFT-35" value="CServiceActor" style="rounded=0;whiteSpace=wrap;html=1;fillColor=#f8cecc;strokeColor=#b85450;" parent="1" vertex="1">
          <mxGeometry x="128.75" y="4978" width="120" height="30" as="geometry" />
        </mxCell>
        <mxCell id="O3Mjcj8SoWYWXLtXBjFT-36" value="CServiceMove" style="rounded=0;whiteSpace=wrap;html=1;fillColor=#f8cecc;strokeColor=#b85450;" parent="1" vertex="1">
          <mxGeometry x="411.25" y="4978" width="80" height="30" as="geometry" />
        </mxCell>
        <mxCell id="O3Mjcj8SoWYWXLtXBjFT-37" value="CServiceSkill" style="rounded=0;whiteSpace=wrap;html=1;fillColor=#f8cecc;strokeColor=#b85450;" parent="1" vertex="1">
          <mxGeometry x="501.25" y="4978" width="80" height="30" as="geometry" />
        </mxCell>
        <mxCell id="O3Mjcj8SoWYWXLtXBjFT-38" value="CServiceBuff" style="rounded=0;whiteSpace=wrap;html=1;fillColor=#f8cecc;strokeColor=#b85450;" parent="1" vertex="1">
          <mxGeometry x="590.25" y="4978" width="80" height="30" as="geometry" />
        </mxCell>
        <mxCell id="O3Mjcj8SoWYWXLtXBjFT-51" style="edgeStyle=orthogonalEdgeStyle;curved=1;rounded=0;orthogonalLoop=1;jettySize=auto;html=1;exitX=1;exitY=0.5;exitDx=0;exitDy=0;entryX=1;entryY=1;entryDx=0;entryDy=0;dashed=1;startArrow=none;startFill=0;endArrow=classic;endFill=1;" parent="1" source="O3Mjcj8SoWYWXLtXBjFT-44" target="O3Mjcj8SoWYWXLtXBjFT-32" edge="1">
          <mxGeometry relative="1" as="geometry" />
        </mxCell>
        <mxCell id="O3Mjcj8SoWYWXLtXBjFT-53" value="构造时重置指针" style="edgeLabel;html=1;align=center;verticalAlign=middle;resizable=0;points=[];" parent="O3Mjcj8SoWYWXLtXBjFT-51" vertex="1" connectable="0">
          <mxGeometry x="-0.3161" y="4" relative="1" as="geometry">
            <mxPoint as="offset" />
          </mxGeometry>
        </mxCell>
        <mxCell id="O3Mjcj8SoWYWXLtXBjFT-44" value="获取共享内存地址偏移" style="rounded=1;whiteSpace=wrap;html=1;fillColor=#d5e8d4;strokeColor=#82b366;" parent="1" vertex="1">
          <mxGeometry x="477" y="5228" width="123.5" height="30" as="geometry" />
        </mxCell>
        <mxCell id="O3Mjcj8SoWYWXLtXBjFT-64" value="CPlayer" style="rounded=0;whiteSpace=wrap;html=1;" parent="1" vertex="1">
          <mxGeometry x="59.75" y="5369" width="100" height="30" as="geometry" />
        </mxCell>
        <mxCell id="O3Mjcj8SoWYWXLtXBjFT-65" value="CMoveMgr" style="rounded=0;whiteSpace=wrap;html=1;" parent="1" vertex="1">
          <mxGeometry x="202" y="5369" width="100" height="30" as="geometry" />
        </mxCell>
        <mxCell id="O3Mjcj8SoWYWXLtXBjFT-66" value="CMapTree" style="rounded=0;whiteSpace=wrap;html=1;" parent="1" vertex="1">
          <mxGeometry x="59.75" y="5459" width="100" height="30" as="geometry" />
        </mxCell>
        <mxCell id="O3Mjcj8SoWYWXLtXBjFT-68" value="CMonster(普通)" style="rounded=0;whiteSpace=wrap;html=1;" parent="1" vertex="1">
          <mxGeometry x="59.75" y="5399" width="100" height="30" as="geometry" />
        </mxCell>
        <mxCell id="O3Mjcj8SoWYWXLtXBjFT-69" value="CMonster(宝箱)" style="rounded=0;whiteSpace=wrap;html=1;fillColor=#f8cecc;strokeColor=#b85450;" parent="1" vertex="1">
          <mxGeometry x="59.75" y="5429" width="100" height="30" as="geometry" />
        </mxCell>
        <mxCell id="O3Mjcj8SoWYWXLtXBjFT-70" value="CSkillMgr" style="rounded=0;whiteSpace=wrap;html=1;" parent="1" vertex="1">
          <mxGeometry x="202" y="5399" width="100" height="30" as="geometry" />
        </mxCell>
        <mxCell id="O3Mjcj8SoWYWXLtXBjFT-71" value="CBuffMgr" style="rounded=0;whiteSpace=wrap;html=1;fillColor=#f8cecc;strokeColor=#b85450;" parent="1" vertex="1">
          <mxGeometry x="202" y="5429" width="100" height="30" as="geometry" />
        </mxCell>
        <mxCell id="O3Mjcj8SoWYWXLtXBjFT-72" value="CStateMgr" style="rounded=0;whiteSpace=wrap;html=1;fillColor=#f8cecc;strokeColor=#b85450;" parent="1" vertex="1">
          <mxGeometry x="202" y="5459" width="100" height="30" as="geometry" />
        </mxCell>
        <mxCell id="O3Mjcj8SoWYWXLtXBjFT-73" value="CActorAI" style="rounded=0;whiteSpace=wrap;html=1;" parent="1" vertex="1">
          <mxGeometry x="202" y="5489" width="100" height="30" as="geometry" />
        </mxCell>
        <mxCell id="O3Mjcj8SoWYWXLtXBjFT-74" value="CHateMgr" style="rounded=0;whiteSpace=wrap;html=1;" parent="1" vertex="1">
          <mxGeometry x="202" y="5519" width="100" height="30" as="geometry" />
        </mxCell>
        <mxCell id="O3Mjcj8SoWYWXLtXBjFT-75" value="CViewMgr" style="rounded=0;whiteSpace=wrap;html=1;" parent="1" vertex="1">
          <mxGeometry x="202" y="5549" width="100" height="30" as="geometry" />
        </mxCell>
        <mxCell id="O3Mjcj8SoWYWXLtXBjFT-82" value="CPlayer" style="rounded=0;whiteSpace=wrap;html=1;" parent="1" vertex="1">
          <mxGeometry x="259.75" y="6155" width="100" height="30" as="geometry" />
        </mxCell>
        <mxCell id="O3Mjcj8SoWYWXLtXBjFT-83" value="CMoveMgr" style="rounded=0;whiteSpace=wrap;html=1;" parent="1" vertex="1">
          <mxGeometry x="539.75" y="6155" width="100" height="30" as="geometry" />
        </mxCell>
        <mxCell id="O3Mjcj8SoWYWXLtXBjFT-84" value="CMapTree" style="rounded=0;whiteSpace=wrap;html=1;" parent="1" vertex="1">
          <mxGeometry x="259.75" y="6215" width="100" height="30" as="geometry" />
        </mxCell>
        <mxCell id="O3Mjcj8SoWYWXLtXBjFT-85" value="CMonster" style="rounded=0;whiteSpace=wrap;html=1;" parent="1" vertex="1">
          <mxGeometry x="259.75" y="6185" width="100" height="30" as="geometry" />
        </mxCell>
        <mxCell id="O3Mjcj8SoWYWXLtXBjFT-87" value="CSkillMgr" style="rounded=0;whiteSpace=wrap;html=1;" parent="1" vertex="1">
          <mxGeometry x="539.75" y="6185" width="100" height="30" as="geometry" />
        </mxCell>
        <mxCell id="O3Mjcj8SoWYWXLtXBjFT-88" value="CBuffMgr" style="rounded=0;whiteSpace=wrap;html=1;" parent="1" vertex="1">
          <mxGeometry x="539.75" y="6215" width="100" height="30" as="geometry" />
        </mxCell>
        <mxCell id="O3Mjcj8SoWYWXLtXBjFT-93" value="CServiceMove" style="rounded=0;whiteSpace=wrap;html=1;" parent="1" vertex="1">
          <mxGeometry x="539.75" y="6002" width="100" height="30" as="geometry" />
        </mxCell>
        <mxCell id="O3Mjcj8SoWYWXLtXBjFT-94" value="CServiceSkill" style="rounded=0;whiteSpace=wrap;html=1;" parent="1" vertex="1">
          <mxGeometry x="539.75" y="6032" width="100" height="30" as="geometry" />
        </mxCell>
        <mxCell id="O3Mjcj8SoWYWXLtXBjFT-95" value="CServiceBuff" style="rounded=0;whiteSpace=wrap;html=1;" parent="1" vertex="1">
          <mxGeometry x="539.75" y="6062" width="100" height="30" as="geometry" />
        </mxCell>
        <mxCell id="O3Mjcj8SoWYWXLtXBjFT-96" value="CServiceActor" style="rounded=0;whiteSpace=wrap;html=1;" parent="1" vertex="1">
          <mxGeometry x="259.75" y="6032" width="100" height="30" as="geometry" />
        </mxCell>
        <mxCell id="O3Mjcj8SoWYWXLtXBjFT-105" style="edgeStyle=none;rounded=0;orthogonalLoop=1;jettySize=auto;html=1;exitX=1;exitY=0.5;exitDx=0;exitDy=0;entryX=0;entryY=0.5;entryDx=0;entryDy=0;startArrow=none;startFill=0;endArrow=classic;endFill=1;strokeWidth=1;fillColor=#fff2cc;strokeColor=#d6b656;" parent="1" source="O3Mjcj8SoWYWXLtXBjFT-101" target="O3Mjcj8SoWYWXLtXBjFT-103" edge="1">
          <mxGeometry relative="1" as="geometry" />
        </mxCell>
        <mxCell id="O3Mjcj8SoWYWXLtXBjFT-107" value="" style="edgeStyle=none;rounded=0;orthogonalLoop=1;jettySize=auto;html=1;startArrow=none;startFill=0;endArrow=classic;endFill=1;strokeWidth=1;fillColor=#fff2cc;strokeColor=#d6b656;" parent="1" source="O3Mjcj8SoWYWXLtXBjFT-101" target="O3Mjcj8SoWYWXLtXBjFT-103" edge="1">
          <mxGeometry relative="1" as="geometry">
            <Array as="points">
              <mxPoint x="224" y="6313" />
            </Array>
          </mxGeometry>
        </mxCell>
        <mxCell id="O3Mjcj8SoWYWXLtXBjFT-101" value="创建实体" style="rounded=1;whiteSpace=wrap;html=1;fillColor=#fff2cc;strokeColor=#d6b656;" parent="1" vertex="1">
          <mxGeometry x="67" y="6298" width="100" height="30" as="geometry" />
        </mxCell>
        <mxCell id="O3Mjcj8SoWYWXLtXBjFT-106" value="1.分配" style="edgeStyle=none;rounded=0;orthogonalLoop=1;jettySize=auto;html=1;exitX=0.25;exitY=0;exitDx=0;exitDy=0;entryX=0.351;entryY=1.004;entryDx=0;entryDy=0;entryPerimeter=0;startArrow=none;startFill=0;endArrow=classic;endFill=1;strokeWidth=1;fillColor=#fff2cc;strokeColor=#d6b656;" parent="1" source="O3Mjcj8SoWYWXLtXBjFT-103" target="O3Mjcj8SoWYWXLtXBjFT-99" edge="1">
          <mxGeometry relative="1" as="geometry" />
        </mxCell>
        <mxCell id="O3Mjcj8SoWYWXLtXBjFT-108" value="2.分配" style="edgeStyle=none;rounded=0;orthogonalLoop=1;jettySize=auto;html=1;exitX=0.75;exitY=0;exitDx=0;exitDy=0;entryX=0.649;entryY=1.004;entryDx=0;entryDy=0;entryPerimeter=0;startArrow=classic;startFill=1;endArrow=none;endFill=0;strokeWidth=1;fillColor=#fff2cc;strokeColor=#d6b656;" parent="1" source="O3Mjcj8SoWYWXLtXBjFT-103" target="O3Mjcj8SoWYWXLtXBjFT-99" edge="1">
          <mxGeometry relative="1" as="geometry" />
        </mxCell>
        <mxCell id="O3Mjcj8SoWYWXLtXBjFT-109" style="edgeStyle=none;rounded=0;orthogonalLoop=1;jettySize=auto;html=1;exitX=1;exitY=0.5;exitDx=0;exitDy=0;entryX=0;entryY=0.5;entryDx=0;entryDy=0;startArrow=none;startFill=0;endArrow=classic;endFill=1;strokeWidth=1;fillColor=#fff2cc;strokeColor=#d6b656;" parent="1" source="O3Mjcj8SoWYWXLtXBjFT-103" target="O3Mjcj8SoWYWXLtXBjFT-104" edge="1">
          <mxGeometry relative="1" as="geometry" />
        </mxCell>
        <mxCell id="O3Mjcj8SoWYWXLtXBjFT-103" value="CEntityFactory" style="rounded=0;whiteSpace=wrap;html=1;fillColor=#fff2cc;strokeColor=#d6b656;" parent="1" vertex="1">
          <mxGeometry x="259.75" y="6298" width="100" height="30" as="geometry" />
        </mxCell>
        <mxCell id="O3Mjcj8SoWYWXLtXBjFT-110" value="3.申请" style="edgeStyle=none;rounded=0;orthogonalLoop=1;jettySize=auto;html=1;exitX=0.25;exitY=0;exitDx=0;exitDy=0;entryX=0.353;entryY=1;entryDx=0;entryDy=0;entryPerimeter=0;startArrow=none;startFill=0;endArrow=classic;endFill=1;strokeWidth=1;fillColor=#fff2cc;strokeColor=#d6b656;" parent="1" source="O3Mjcj8SoWYWXLtXBjFT-104" target="O3Mjcj8SoWYWXLtXBjFT-100" edge="1">
          <mxGeometry relative="1" as="geometry" />
        </mxCell>
        <mxCell id="O3Mjcj8SoWYWXLtXBjFT-111" value="4.分配" style="edgeStyle=none;rounded=0;orthogonalLoop=1;jettySize=auto;html=1;exitX=0.75;exitY=0;exitDx=0;exitDy=0;entryX=0.649;entryY=1.007;entryDx=0;entryDy=0;entryPerimeter=0;startArrow=classic;startFill=1;endArrow=none;endFill=0;strokeWidth=1;fillColor=#fff2cc;strokeColor=#d6b656;" parent="1" source="O3Mjcj8SoWYWXLtXBjFT-104" target="O3Mjcj8SoWYWXLtXBjFT-100" edge="1">
          <mxGeometry relative="1" as="geometry" />
        </mxCell>
        <mxCell id="O3Mjcj8SoWYWXLtXBjFT-126" value="&lt;font style=&quot;font-size: 12px&quot;&gt;5.保存到Actor&lt;/font&gt;" style="edgeStyle=orthogonalEdgeStyle;curved=1;rounded=0;orthogonalLoop=1;jettySize=auto;html=1;exitX=0.5;exitY=1;exitDx=0;exitDy=0;entryX=0.5;entryY=1;entryDx=0;entryDy=0;fontSize=18;startArrow=none;startFill=0;endArrow=classic;endFill=1;strokeWidth=1;fillColor=#fff2cc;strokeColor=#d6b656;" parent="1" source="O3Mjcj8SoWYWXLtXBjFT-104" target="O3Mjcj8SoWYWXLtXBjFT-103" edge="1">
          <mxGeometry relative="1" as="geometry">
            <Array as="points">
              <mxPoint x="590" y="6371" />
              <mxPoint x="310" y="6371" />
            </Array>
          </mxGeometry>
        </mxCell>
        <mxCell id="O3Mjcj8SoWYWXLtXBjFT-104" value="CEcsAlloc" style="rounded=0;whiteSpace=wrap;html=1;fillColor=#fff2cc;strokeColor=#d6b656;" parent="1" vertex="1">
          <mxGeometry x="539.75" y="6298" width="100" height="30" as="geometry" />
        </mxCell>
        <mxCell id="O3Mjcj8SoWYWXLtXBjFT-121" value="E" style="text;html=1;align=center;verticalAlign=middle;resizable=0;points=[];autosize=1;strokeColor=none;fontSize=18;" parent="1" vertex="1">
          <mxGeometry x="232" y="6152" width="22" height="26" as="geometry" />
        </mxCell>
        <mxCell id="O3Mjcj8SoWYWXLtXBjFT-122" value="C" style="text;html=1;align=center;verticalAlign=middle;resizable=0;points=[];autosize=1;strokeColor=none;fontSize=18;" parent="1" vertex="1">
          <mxGeometry x="509" y="6152" width="23" height="26" as="geometry" />
        </mxCell>
        <mxCell id="O3Mjcj8SoWYWXLtXBjFT-123" value="S" style="text;html=1;align=center;verticalAlign=middle;resizable=0;points=[];autosize=1;strokeColor=none;fontSize=18;" parent="1" vertex="1">
          <mxGeometry x="232" y="5997" width="22" height="26" as="geometry" />
        </mxCell>
        <mxCell id="O3Mjcj8SoWYWXLtXBjFT-129" value="消息" style="rounded=0;whiteSpace=wrap;html=1;" parent="1" vertex="1">
          <mxGeometry x="77" y="6023" width="80" height="30" as="geometry" />
        </mxCell>
        <mxCell id="O3Mjcj8SoWYWXLtXBjFT-130" value="事件" style="rounded=0;whiteSpace=wrap;html=1;" parent="1" vertex="1">
          <mxGeometry x="77" y="6053" width="80" height="30" as="geometry" />
        </mxCell>
        <mxCell id="O3Mjcj8SoWYWXLtXBjFT-131" value="释放技能" style="rounded=0;whiteSpace=wrap;html=1;" parent="1" vertex="1">
          <mxGeometry x="77" y="6083" width="80" height="30" as="geometry" />
        </mxCell>
        <mxCell id="O3Mjcj8SoWYWXLtXBjFT-132" value="移动" style="rounded=0;whiteSpace=wrap;html=1;" parent="1" vertex="1">
          <mxGeometry x="77" y="6113" width="80" height="30" as="geometry" />
        </mxCell>
        <mxCell id="O3Mjcj8SoWYWXLtXBjFT-135" value="Tick" style="rounded=0;whiteSpace=wrap;html=1;" parent="1" vertex="1">
          <mxGeometry x="77" y="6143" width="80" height="30" as="geometry" />
        </mxCell>
        <mxCell id="O3Mjcj8SoWYWXLtXBjFT-136" value="其他..." style="rounded=0;whiteSpace=wrap;html=1;" parent="1" vertex="1">
          <mxGeometry x="77" y="6173" width="80" height="30" as="geometry" />
        </mxCell>
        <mxCell id="dNV8rXrrPTFe7oQsCCH1-63" style="edgeStyle=orthogonalEdgeStyle;rounded=0;orthogonalLoop=1;jettySize=auto;html=1;exitX=0.5;exitY=1;exitDx=0;exitDy=0;entryX=0.5;entryY=0;entryDx=0;entryDy=0;startArrow=classic;startFill=1;" edge="1" parent="1" source="dNV8rXrrPTFe7oQsCCH1-1" target="dNV8rXrrPTFe7oQsCCH1-3">
          <mxGeometry relative="1" as="geometry" />
        </mxCell>
        <mxCell id="dNV8rXrrPTFe7oQsCCH1-1" value="" style="shape=actor;whiteSpace=wrap;html=1;fillColor=#f8cecc;strokeColor=#b85450;" vertex="1" parent="1">
          <mxGeometry x="400.62" y="7279" width="25.26" height="29" as="geometry" />
        </mxCell>
        <mxCell id="dNV8rXrrPTFe7oQsCCH1-62" style="edgeStyle=orthogonalEdgeStyle;rounded=0;orthogonalLoop=1;jettySize=auto;html=1;exitX=0.5;exitY=1;exitDx=0;exitDy=0;entryX=0.5;entryY=0;entryDx=0;entryDy=0;startArrow=classicThin;startFill=1;endArrow=classicThin;endFill=1;" edge="1" parent="1" source="dNV8rXrrPTFe7oQsCCH1-2" target="dNV8rXrrPTFe7oQsCCH1-8">
          <mxGeometry relative="1" as="geometry" />
        </mxCell>
        <mxCell id="dNV8rXrrPTFe7oQsCCH1-2" value="内部Web&lt;br&gt;Protal" style="rounded=1;whiteSpace=wrap;html=1;fillColor=#ffff88;strokeColor=#36393d;" vertex="1" parent="1">
          <mxGeometry x="74" y="7342" width="80" height="47" as="geometry" />
        </mxCell>
        <mxCell id="dNV8rXrrPTFe7oQsCCH1-65" style="edgeStyle=orthogonalEdgeStyle;rounded=0;orthogonalLoop=1;jettySize=auto;html=1;exitX=0.5;exitY=1;exitDx=0;exitDy=0;entryX=0.5;entryY=0;entryDx=0;entryDy=0;startArrow=classicThin;startFill=1;endArrow=classicThin;endFill=1;" edge="1" parent="1" source="dNV8rXrrPTFe7oQsCCH1-3" target="dNV8rXrrPTFe7oQsCCH1-4">
          <mxGeometry relative="1" as="geometry" />
        </mxCell>
        <mxCell id="dNV8rXrrPTFe7oQsCCH1-3" value="TGW&lt;br&gt;GROUP" style="rounded=1;whiteSpace=wrap;html=1;fillColor=#fff2cc;strokeColor=#d6b656;gradientColor=#ffd966;" vertex="1" parent="1">
          <mxGeometry x="373.75" y="7342" width="80" height="47" as="geometry" />
        </mxCell>
        <mxCell id="dNV8rXrrPTFe7oQsCCH1-9" value="TPC集群&lt;br&gt;&lt;br&gt;&lt;br&gt;&lt;br&gt;" style="rounded=1;whiteSpace=wrap;html=1;dashed=1;" vertex="1" parent="1">
          <mxGeometry x="202" y="7427" width="288" height="60" as="geometry" />
        </mxCell>
        <mxCell id="dNV8rXrrPTFe7oQsCCH1-10" value="UDP集群&lt;br&gt;&lt;br&gt;&lt;br&gt;&lt;br&gt;" style="rounded=1;whiteSpace=wrap;html=1;dashed=1;" vertex="1" parent="1">
          <mxGeometry x="504.75" y="7427" width="120" height="60" as="geometry" />
        </mxCell>
        <mxCell id="dNV8rXrrPTFe7oQsCCH1-11" value="Tconnd1" style="rounded=1;whiteSpace=wrap;html=1;fillColor=#ffff88;strokeColor=#36393d;" vertex="1" parent="1">
          <mxGeometry x="212" y="7445" width="59.25" height="33" as="geometry" />
        </mxCell>
        <mxCell id="dNV8rXrrPTFe7oQsCCH1-12" value="Tconnd2" style="rounded=1;whiteSpace=wrap;html=1;fillColor=#ffff88;strokeColor=#36393d;" vertex="1" parent="1">
          <mxGeometry x="282.25" y="7445" width="59.25" height="33" as="geometry" />
        </mxCell>
        <mxCell id="dNV8rXrrPTFe7oQsCCH1-13" value="Tconnd3" style="rounded=1;whiteSpace=wrap;html=1;fillColor=#ffff88;strokeColor=#36393d;" vertex="1" parent="1">
          <mxGeometry x="352" y="7445" width="59.25" height="33" as="geometry" />
        </mxCell>
        <mxCell id="dNV8rXrrPTFe7oQsCCH1-14" value="TconndN" style="rounded=1;whiteSpace=wrap;html=1;fillColor=#ffff88;strokeColor=#36393d;" vertex="1" parent="1">
          <mxGeometry x="421.63" y="7445" width="59.25" height="33" as="geometry" />
        </mxCell>
        <mxCell id="dNV8rXrrPTFe7oQsCCH1-15" value="Tconnd1...N" style="rounded=1;whiteSpace=wrap;html=1;fillColor=#ffff88;strokeColor=#36393d;" vertex="1" parent="1">
          <mxGeometry x="522" y="7445" width="87" height="33" as="geometry" />
        </mxCell>
        <mxCell id="dNV8rXrrPTFe7oQsCCH1-70" style="edgeStyle=orthogonalEdgeStyle;rounded=0;orthogonalLoop=1;jettySize=auto;html=1;exitX=0.5;exitY=1;exitDx=0;exitDy=0;entryX=0.5;entryY=0;entryDx=0;entryDy=0;startArrow=classicThin;startFill=1;endArrow=classicThin;endFill=1;" edge="1" parent="1" source="dNV8rXrrPTFe7oQsCCH1-19" target="dNV8rXrrPTFe7oQsCCH1-34">
          <mxGeometry relative="1" as="geometry" />
        </mxCell>
        <mxCell id="dNV8rXrrPTFe7oQsCCH1-19" value="gamesvr1" style="rounded=1;whiteSpace=wrap;html=1;fillColor=#dae8fc;strokeColor=#6c8ebf;" vertex="1" parent="1">
          <mxGeometry x="246.13" y="7557" width="59.25" height="33" as="geometry" />
        </mxCell>
        <mxCell id="dNV8rXrrPTFe7oQsCCH1-71" style="edgeStyle=orthogonalEdgeStyle;rounded=0;orthogonalLoop=1;jettySize=auto;html=1;exitX=0.5;exitY=1;exitDx=0;exitDy=0;entryX=0.5;entryY=0;entryDx=0;entryDy=0;startArrow=classicThin;startFill=1;endArrow=classicThin;endFill=1;" edge="1" parent="1" source="dNV8rXrrPTFe7oQsCCH1-20" target="dNV8rXrrPTFe7oQsCCH1-35">
          <mxGeometry relative="1" as="geometry" />
        </mxCell>
        <mxCell id="dNV8rXrrPTFe7oQsCCH1-20" value="gamesvr2" style="rounded=1;whiteSpace=wrap;html=1;fillColor=#dae8fc;strokeColor=#6c8ebf;" vertex="1" parent="1">
          <mxGeometry x="316.38" y="7557" width="59.25" height="33" as="geometry" />
        </mxCell>
        <mxCell id="dNV8rXrrPTFe7oQsCCH1-72" style="edgeStyle=orthogonalEdgeStyle;rounded=0;orthogonalLoop=1;jettySize=auto;html=1;exitX=0.5;exitY=1;exitDx=0;exitDy=0;entryX=0.5;entryY=0;entryDx=0;entryDy=0;startArrow=classicThin;startFill=1;endArrow=classicThin;endFill=1;" edge="1" parent="1" source="dNV8rXrrPTFe7oQsCCH1-21" target="dNV8rXrrPTFe7oQsCCH1-36">
          <mxGeometry relative="1" as="geometry" />
        </mxCell>
        <mxCell id="dNV8rXrrPTFe7oQsCCH1-21" value="gamesvr3" style="rounded=1;whiteSpace=wrap;html=1;fillColor=#dae8fc;strokeColor=#6c8ebf;" vertex="1" parent="1">
          <mxGeometry x="386.13" y="7557" width="59.25" height="33" as="geometry" />
        </mxCell>
        <mxCell id="dNV8rXrrPTFe7oQsCCH1-74" style="edgeStyle=orthogonalEdgeStyle;rounded=0;orthogonalLoop=1;jettySize=auto;html=1;exitX=0.5;exitY=1;exitDx=0;exitDy=0;entryX=0.5;entryY=0;entryDx=0;entryDy=0;startArrow=classicThin;startFill=1;endArrow=classicThin;endFill=1;" edge="1" parent="1" source="dNV8rXrrPTFe7oQsCCH1-24" target="dNV8rXrrPTFe7oQsCCH1-37">
          <mxGeometry relative="1" as="geometry" />
        </mxCell>
        <mxCell id="dNV8rXrrPTFe7oQsCCH1-24" value="gamesvrN" style="rounded=1;whiteSpace=wrap;html=1;fillColor=#dae8fc;strokeColor=#6c8ebf;" vertex="1" parent="1">
          <mxGeometry x="524.64" y="7557" width="59.25" height="33" as="geometry" />
        </mxCell>
        <mxCell id="dNV8rXrrPTFe7oQsCCH1-73" style="edgeStyle=orthogonalEdgeStyle;rounded=0;orthogonalLoop=1;jettySize=auto;html=1;exitX=0.5;exitY=1;exitDx=0;exitDy=0;entryX=0.5;entryY=0;entryDx=0;entryDy=0;startArrow=classicThin;startFill=1;endArrow=classicThin;endFill=1;" edge="1" parent="1" source="dNV8rXrrPTFe7oQsCCH1-25" target="dNV8rXrrPTFe7oQsCCH1-38">
          <mxGeometry relative="1" as="geometry" />
        </mxCell>
        <mxCell id="dNV8rXrrPTFe7oQsCCH1-25" value="gamesvr..." style="rounded=1;whiteSpace=wrap;html=1;fillColor=#dae8fc;strokeColor=#6c8ebf;" vertex="1" parent="1">
          <mxGeometry x="455.76" y="7557" width="59.25" height="33" as="geometry" />
        </mxCell>
        <mxCell id="dNV8rXrrPTFe7oQsCCH1-34" value="proxysvr1" style="rounded=1;whiteSpace=wrap;html=1;fillColor=#dae8fc;strokeColor=#6c8ebf;gradientColor=#7ea6e0;" vertex="1" parent="1">
          <mxGeometry x="246.13" y="7689" width="59.25" height="33" as="geometry" />
        </mxCell>
        <mxCell id="dNV8rXrrPTFe7oQsCCH1-35" value="proxysvr2" style="rounded=1;whiteSpace=wrap;html=1;fillColor=#dae8fc;strokeColor=#6c8ebf;" vertex="1" parent="1">
          <mxGeometry x="316.38" y="7689" width="59.25" height="33" as="geometry" />
        </mxCell>
        <mxCell id="dNV8rXrrPTFe7oQsCCH1-36" value="proxysvr3" style="rounded=1;whiteSpace=wrap;html=1;fillColor=#dae8fc;strokeColor=#6c8ebf;" vertex="1" parent="1">
          <mxGeometry x="386.13" y="7689" width="59.25" height="33" as="geometry" />
        </mxCell>
        <mxCell id="dNV8rXrrPTFe7oQsCCH1-37" value="proxysvrN" style="rounded=1;whiteSpace=wrap;html=1;fillColor=#dae8fc;strokeColor=#6c8ebf;" vertex="1" parent="1">
          <mxGeometry x="524.64" y="7689" width="59.25" height="33" as="geometry" />
        </mxCell>
        <mxCell id="dNV8rXrrPTFe7oQsCCH1-38" value="proxysvr..." style="rounded=1;whiteSpace=wrap;html=1;fillColor=#dae8fc;strokeColor=#6c8ebf;" vertex="1" parent="1">
          <mxGeometry x="455.76" y="7689" width="59.25" height="33" as="geometry" />
        </mxCell>
        <mxCell id="dNV8rXrrPTFe7oQsCCH1-39" value="Tcaplus组" style="rounded=1;whiteSpace=wrap;html=1;fillColor=#ffff88;strokeColor=#36393d;" vertex="1" parent="1">
          <mxGeometry x="385.38" y="7810" width="59.25" height="33" as="geometry" />
        </mxCell>
        <mxCell id="dNV8rXrrPTFe7oQsCCH1-42" value="chatsvr" style="rounded=1;whiteSpace=wrap;html=1;fillColor=#dae8fc;strokeColor=#6c8ebf;" vertex="1" parent="1">
          <mxGeometry x="674.75" y="7557" width="59.25" height="33" as="geometry" />
        </mxCell>
        <mxCell id="dNV8rXrrPTFe7oQsCCH1-43" value="onlinesvr" style="rounded=1;whiteSpace=wrap;html=1;fillColor=#dae8fc;strokeColor=#6c8ebf;" vertex="1" parent="1">
          <mxGeometry x="639.75" y="7651" width="59.25" height="33" as="geometry" />
        </mxCell>
        <mxCell id="dNV8rXrrPTFe7oQsCCH1-44" value="worldsvr" style="rounded=1;whiteSpace=wrap;html=1;fillColor=#dae8fc;strokeColor=#6c8ebf;" vertex="1" parent="1">
          <mxGeometry x="708.25" y="7651" width="59.25" height="33" as="geometry" />
        </mxCell>
        <mxCell id="dNV8rXrrPTFe7oQsCCH1-45" value="guildsvr" style="rounded=1;whiteSpace=wrap;html=1;fillColor=#dae8fc;strokeColor=#6c8ebf;" vertex="1" parent="1">
          <mxGeometry x="639.75" y="7698" width="59.25" height="33" as="geometry" />
        </mxCell>
        <mxCell id="dNV8rXrrPTFe7oQsCCH1-46" value="manorsvr" style="rounded=1;whiteSpace=wrap;html=1;fillColor=#dae8fc;strokeColor=#6c8ebf;" vertex="1" parent="1">
          <mxGeometry x="708.25" y="7698" width="59.25" height="33" as="geometry" />
        </mxCell>
        <mxCell id="dNV8rXrrPTFe7oQsCCH1-47" value="auctionsvr" style="rounded=1;whiteSpace=wrap;html=1;fillColor=#dae8fc;strokeColor=#6c8ebf;" vertex="1" parent="1">
          <mxGeometry x="639.75" y="7746" width="59.25" height="33" as="geometry" />
        </mxCell>
        <mxCell id="dNV8rXrrPTFe7oQsCCH1-48" value="profilesvr" style="rounded=1;whiteSpace=wrap;html=1;fillColor=#dae8fc;strokeColor=#6c8ebf;" vertex="1" parent="1">
          <mxGeometry x="708.25" y="7746" width="59.25" height="33" as="geometry" />
        </mxCell>
        <mxCell id="dNV8rXrrPTFe7oQsCCH1-51" value="idipsvrs" style="rounded=1;whiteSpace=wrap;html=1;fillColor=#dae8fc;strokeColor=#6c8ebf;" vertex="1" parent="1">
          <mxGeometry x="94.75" y="7557" width="59.25" height="33" as="geometry" />
        </mxCell>
        <mxCell id="dNV8rXrrPTFe7oQsCCH1-53" value="排行榜(APOLLO)" style="rounded=1;whiteSpace=wrap;html=1;fillColor=#fff2cc;strokeColor=#d6b656;gradientColor=#ffd966;" vertex="1" parent="1">
          <mxGeometry x="94.25" y="7651" width="59.25" height="33" as="geometry" />
        </mxCell>
        <mxCell id="dNV8rXrrPTFe7oQsCCH1-55" value="帐号&lt;br&gt;（MSDK）" style="rounded=1;whiteSpace=wrap;html=1;fillColor=#ffff88;strokeColor=#36393d;" vertex="1" parent="1">
          <mxGeometry x="94.25" y="7698" width="59.25" height="33" as="geometry" />
        </mxCell>
        <mxCell id="dNV8rXrrPTFe7oQsCCH1-57" value="支付&lt;br&gt;（MIDAS）" style="rounded=1;whiteSpace=wrap;html=1;fillColor=#fff2cc;strokeColor=#d6b656;gradientColor=#ffd966;" vertex="1" parent="1">
          <mxGeometry x="94.25" y="7746" width="59.25" height="33" as="geometry" />
        </mxCell>
        <mxCell id="dNV8rXrrPTFe7oQsCCH1-87" value="" style="line;strokeWidth=1;rotatable=0;dashed=1;labelPosition=right;align=left;verticalAlign=middle;spacingTop=0;spacingLeft=6;points=[];portConstraint=eastwest;" vertex="1" parent="1">
          <mxGeometry x="17" y="7507" width="796" height="10" as="geometry" />
        </mxCell>
        <mxCell id="dNV8rXrrPTFe7oQsCCH1-88" value="" style="line;strokeWidth=1;rotatable=0;dashed=1;labelPosition=right;align=left;verticalAlign=middle;spacingTop=0;spacingLeft=6;points=[];portConstraint=eastwest;" vertex="1" parent="1">
          <mxGeometry x="17" y="7791.99" width="794" height="10" as="geometry" />
        </mxCell>
        <mxCell id="dNV8rXrrPTFe7oQsCCH1-89" value="" style="line;strokeWidth=1;rotatable=0;dashed=1;labelPosition=right;align=left;verticalAlign=middle;spacingTop=0;spacingLeft=6;points=[];portConstraint=eastwest;" vertex="1" parent="1">
          <mxGeometry x="15" y="7398" width="796" height="10" as="geometry" />
        </mxCell>
        <mxCell id="dNV8rXrrPTFe7oQsCCH1-90" value="接入层" style="text;html=1;align=center;verticalAlign=middle;resizable=0;points=[];autosize=1;strokeColor=none;" vertex="1" parent="1">
          <mxGeometry x="17" y="7403" width="46" height="18" as="geometry" />
        </mxCell>
        <mxCell id="dNV8rXrrPTFe7oQsCCH1-91" value="逻辑层" style="text;html=1;align=center;verticalAlign=middle;resizable=0;points=[];autosize=1;strokeColor=none;" vertex="1" parent="1">
          <mxGeometry x="15" y="7511" width="46" height="18" as="geometry" />
        </mxCell>
        <mxCell id="dNV8rXrrPTFe7oQsCCH1-92" value="存储层" style="text;html=1;align=center;verticalAlign=middle;resizable=0;points=[];autosize=1;strokeColor=none;" vertex="1" parent="1">
          <mxGeometry x="15" y="7797" width="46" height="18" as="geometry" />
        </mxCell>
        <mxCell id="dNV8rXrrPTFe7oQsCCH1-93" value="Tconnd1...N" style="rounded=1;whiteSpace=wrap;html=1;fillColor=#fff2cc;strokeColor=#d6b656;" vertex="1" parent="1">
          <mxGeometry x="69.5" y="7445" width="87" height="33" as="geometry" />
        </mxCell>
        <mxCell id="dNV8rXrrPTFe7oQsCCH1-94" value="Tconnd1...N" style="rounded=1;whiteSpace=wrap;html=1;fillColor=#ffff88;strokeColor=#36393d;" vertex="1" parent="1">
          <mxGeometry x="670.25" y="7445" width="87" height="33" as="geometry" />
        </mxCell>
        <mxCell id="dNV8rXrrPTFe7oQsCCH1-95" value="Tconnd1...N" style="rounded=1;whiteSpace=wrap;html=1;fillColor=#ffff88;strokeColor=#36393d;" vertex="1" parent="1">
          <mxGeometry x="69.5" y="7445" width="87" height="33" as="geometry" />
        </mxCell>
        <mxCell id="dNV8rXrrPTFe7oQsCCH1-96" value="内部Web&lt;br&gt;Protal" style="rounded=1;whiteSpace=wrap;html=1;fillColor=#ffff88;strokeColor=#36393d;" vertex="1" parent="1">
          <mxGeometry x="74" y="7342" width="80" height="47" as="geometry" />
        </mxCell>
        <mxCell id="dNV8rXrrPTFe7oQsCCH1-97" value="Tconnd1...N" style="rounded=1;whiteSpace=wrap;html=1;fillColor=#ffff88;strokeColor=#36393d;" vertex="1" parent="1">
          <mxGeometry x="69.5" y="7445" width="87" height="33" as="geometry" />
        </mxCell>
        <mxCell id="dNV8rXrrPTFe7oQsCCH1-98" value="Tconnd1" style="rounded=1;whiteSpace=wrap;html=1;fillColor=#ffff88;strokeColor=#36393d;" vertex="1" parent="1">
          <mxGeometry x="212" y="7445" width="59.25" height="33" as="geometry" />
        </mxCell>
        <mxCell id="dNV8rXrrPTFe7oQsCCH1-99" value="Tconnd2" style="rounded=1;whiteSpace=wrap;html=1;fillColor=#ffff88;strokeColor=#36393d;" vertex="1" parent="1">
          <mxGeometry x="282.25" y="7445" width="59.25" height="33" as="geometry" />
        </mxCell>
        <mxCell id="dNV8rXrrPTFe7oQsCCH1-100" value="Tconnd3" style="rounded=1;whiteSpace=wrap;html=1;fillColor=#ffff88;strokeColor=#36393d;" vertex="1" parent="1">
          <mxGeometry x="352" y="7445" width="59.25" height="33" as="geometry" />
        </mxCell>
        <mxCell id="dNV8rXrrPTFe7oQsCCH1-101" value="TconndN" style="rounded=1;whiteSpace=wrap;html=1;fillColor=#ffff88;strokeColor=#36393d;" vertex="1" parent="1">
          <mxGeometry x="421.63" y="7445" width="59.25" height="33" as="geometry" />
        </mxCell>
        <mxCell id="dNV8rXrrPTFe7oQsCCH1-102" value="Tconnd1...N" style="rounded=1;whiteSpace=wrap;html=1;fillColor=#ffff88;strokeColor=#36393d;" vertex="1" parent="1">
          <mxGeometry x="522" y="7445" width="87" height="33" as="geometry" />
        </mxCell>
        <mxCell id="dNV8rXrrPTFe7oQsCCH1-103" value="内部Web&lt;br&gt;Protal" style="rounded=1;whiteSpace=wrap;html=1;fillColor=#fff2cc;strokeColor=#d6b656;gradientColor=#ffd966;" vertex="1" parent="1">
          <mxGeometry x="73.63" y="7342" width="80" height="47" as="geometry" />
        </mxCell>
        <mxCell id="dNV8rXrrPTFe7oQsCCH1-104" value="Tconnd1...N" style="rounded=1;whiteSpace=wrap;html=1;fillColor=#fff2cc;strokeColor=#d6b656;gradientColor=#ffd966;" vertex="1" parent="1">
          <mxGeometry x="69.13" y="7445" width="87" height="33" as="geometry" />
        </mxCell>
        <mxCell id="dNV8rXrrPTFe7oQsCCH1-105" value="Tconnd1" style="rounded=1;whiteSpace=wrap;html=1;fillColor=#fff2cc;strokeColor=#d6b656;gradientColor=#ffd966;" vertex="1" parent="1">
          <mxGeometry x="211.63" y="7445" width="59.25" height="33" as="geometry" />
        </mxCell>
        <mxCell id="dNV8rXrrPTFe7oQsCCH1-106" value="Tconnd2" style="rounded=1;whiteSpace=wrap;html=1;fillColor=#fff2cc;strokeColor=#d6b656;gradientColor=#ffd966;" vertex="1" parent="1">
          <mxGeometry x="281.88" y="7445" width="59.25" height="33" as="geometry" />
        </mxCell>
        <mxCell id="dNV8rXrrPTFe7oQsCCH1-107" value="Tconnd3" style="rounded=1;whiteSpace=wrap;html=1;fillColor=#fff2cc;strokeColor=#d6b656;gradientColor=#ffd966;" vertex="1" parent="1">
          <mxGeometry x="351.63" y="7445" width="59.25" height="33" as="geometry" />
        </mxCell>
        <mxCell id="dNV8rXrrPTFe7oQsCCH1-108" value="TconndN" style="rounded=1;whiteSpace=wrap;html=1;fillColor=#fff2cc;strokeColor=#d6b656;gradientColor=#ffd966;" vertex="1" parent="1">
          <mxGeometry x="421.26" y="7445" width="59.25" height="33" as="geometry" />
        </mxCell>
        <mxCell id="dNV8rXrrPTFe7oQsCCH1-109" value="Tconnd1...N" style="rounded=1;whiteSpace=wrap;html=1;fillColor=#fff2cc;strokeColor=#d6b656;gradientColor=#ffd966;" vertex="1" parent="1">
          <mxGeometry x="521.63" y="7445" width="87" height="33" as="geometry" />
        </mxCell>
        <mxCell id="dNV8rXrrPTFe7oQsCCH1-110" value="Tconnd1...N" style="rounded=1;whiteSpace=wrap;html=1;fillColor=#fff2cc;strokeColor=#d6b656;gradientColor=#ffd966;" vertex="1" parent="1">
          <mxGeometry x="669.88" y="7445" width="87" height="33" as="geometry" />
        </mxCell>
        <mxCell id="dNV8rXrrPTFe7oQsCCH1-111" value="Tcaplus组" style="rounded=1;whiteSpace=wrap;html=1;fillColor=#fff2cc;strokeColor=#d6b656;gradientColor=#ffd966;" vertex="1" parent="1">
          <mxGeometry x="385.01" y="7810" width="59.25" height="33" as="geometry" />
        </mxCell>
        <mxCell id="dNV8rXrrPTFe7oQsCCH1-112" value="帐号&lt;br&gt;（MSDK）" style="rounded=1;whiteSpace=wrap;html=1;fillColor=#fff2cc;strokeColor=#d6b656;gradientColor=#ffd966;" vertex="1" parent="1">
          <mxGeometry x="93.88" y="7698" width="59.25" height="33" as="geometry" />
        </mxCell>
        <mxCell id="dNV8rXrrPTFe7oQsCCH1-113" value="idipsvrs" style="rounded=1;whiteSpace=wrap;html=1;fillColor=#dae8fc;strokeColor=#6c8ebf;gradientColor=#7ea6e0;" vertex="1" parent="1">
          <mxGeometry x="93.88" y="7557" width="59.25" height="33" as="geometry" />
        </mxCell>
        <mxCell id="dNV8rXrrPTFe7oQsCCH1-114" value="gamesvr1" style="rounded=1;whiteSpace=wrap;html=1;fillColor=#dae8fc;strokeColor=#6c8ebf;gradientColor=#7ea6e0;" vertex="1" parent="1">
          <mxGeometry x="245.26" y="7557" width="59.25" height="33" as="geometry" />
        </mxCell>
        <mxCell id="dNV8rXrrPTFe7oQsCCH1-115" value="gamesvr2" style="rounded=1;whiteSpace=wrap;html=1;fillColor=#dae8fc;strokeColor=#6c8ebf;gradientColor=#7ea6e0;" vertex="1" parent="1">
          <mxGeometry x="315.51" y="7557" width="59.25" height="33" as="geometry" />
        </mxCell>
        <mxCell id="dNV8rXrrPTFe7oQsCCH1-116" value="gamesvr3" style="rounded=1;whiteSpace=wrap;html=1;fillColor=#dae8fc;strokeColor=#6c8ebf;gradientColor=#7ea6e0;" vertex="1" parent="1">
          <mxGeometry x="385.26" y="7557" width="59.25" height="33" as="geometry" />
        </mxCell>
        <mxCell id="dNV8rXrrPTFe7oQsCCH1-117" value="gamesvr..." style="rounded=1;whiteSpace=wrap;html=1;fillColor=#dae8fc;strokeColor=#6c8ebf;gradientColor=#7ea6e0;" vertex="1" parent="1">
          <mxGeometry x="454.89" y="7557" width="59.25" height="33" as="geometry" />
        </mxCell>
        <mxCell id="dNV8rXrrPTFe7oQsCCH1-118" value="gamesvrN" style="rounded=1;whiteSpace=wrap;html=1;fillColor=#dae8fc;strokeColor=#6c8ebf;gradientColor=#7ea6e0;" vertex="1" parent="1">
          <mxGeometry x="523.77" y="7557" width="59.25" height="33" as="geometry" />
        </mxCell>
        <mxCell id="dNV8rXrrPTFe7oQsCCH1-119" value="chatsvr" style="rounded=1;whiteSpace=wrap;html=1;fillColor=#dae8fc;strokeColor=#6c8ebf;gradientColor=#7ea6e0;" vertex="1" parent="1">
          <mxGeometry x="673.88" y="7557" width="59.25" height="33" as="geometry" />
        </mxCell>
        <mxCell id="dNV8rXrrPTFe7oQsCCH1-120" value="onlinesvr" style="rounded=1;whiteSpace=wrap;html=1;fillColor=#dae8fc;strokeColor=#6c8ebf;gradientColor=#7ea6e0;" vertex="1" parent="1">
          <mxGeometry x="638.88" y="7651" width="59.25" height="33" as="geometry" />
        </mxCell>
        <mxCell id="dNV8rXrrPTFe7oQsCCH1-121" value="worldsvr" style="rounded=1;whiteSpace=wrap;html=1;fillColor=#dae8fc;strokeColor=#6c8ebf;gradientColor=#7ea6e0;" vertex="1" parent="1">
          <mxGeometry x="707.38" y="7651" width="59.25" height="33" as="geometry" />
        </mxCell>
        <mxCell id="dNV8rXrrPTFe7oQsCCH1-122" value="guildsvr" style="rounded=1;whiteSpace=wrap;html=1;fillColor=#dae8fc;strokeColor=#6c8ebf;gradientColor=#7ea6e0;" vertex="1" parent="1">
          <mxGeometry x="638.88" y="7698" width="59.25" height="33" as="geometry" />
        </mxCell>
        <mxCell id="dNV8rXrrPTFe7oQsCCH1-123" value="manorsvr" style="rounded=1;whiteSpace=wrap;html=1;fillColor=#dae8fc;strokeColor=#6c8ebf;gradientColor=#7ea6e0;" vertex="1" parent="1">
          <mxGeometry x="707.38" y="7698" width="59.25" height="33" as="geometry" />
        </mxCell>
        <mxCell id="dNV8rXrrPTFe7oQsCCH1-124" value="profilesvr" style="rounded=1;whiteSpace=wrap;html=1;fillColor=#dae8fc;strokeColor=#6c8ebf;gradientColor=#7ea6e0;" vertex="1" parent="1">
          <mxGeometry x="707.38" y="7746" width="59.25" height="33" as="geometry" />
        </mxCell>
        <mxCell id="dNV8rXrrPTFe7oQsCCH1-125" value="auctionsvr" style="rounded=1;whiteSpace=wrap;html=1;fillColor=#dae8fc;strokeColor=#6c8ebf;gradientColor=#7ea6e0;" vertex="1" parent="1">
          <mxGeometry x="638.88" y="7746" width="59.25" height="33" as="geometry" />
        </mxCell>
        <mxCell id="dNV8rXrrPTFe7oQsCCH1-126" value="proxysvrN" style="rounded=1;whiteSpace=wrap;html=1;fillColor=#dae8fc;strokeColor=#6c8ebf;gradientColor=#7ea6e0;" vertex="1" parent="1">
          <mxGeometry x="523.77" y="7689" width="59.25" height="33" as="geometry" />
        </mxCell>
        <mxCell id="dNV8rXrrPTFe7oQsCCH1-127" value="proxysvr..." style="rounded=1;whiteSpace=wrap;html=1;fillColor=#dae8fc;strokeColor=#6c8ebf;gradientColor=#7ea6e0;" vertex="1" parent="1">
          <mxGeometry x="454.89" y="7689" width="59.25" height="33" as="geometry" />
        </mxCell>
        <mxCell id="dNV8rXrrPTFe7oQsCCH1-128" value="proxysvr3" style="rounded=1;whiteSpace=wrap;html=1;fillColor=#dae8fc;strokeColor=#6c8ebf;gradientColor=#7ea6e0;" vertex="1" parent="1">
          <mxGeometry x="385.26" y="7689" width="59.25" height="33" as="geometry" />
        </mxCell>
        <mxCell id="dNV8rXrrPTFe7oQsCCH1-129" value="proxysvr2" style="rounded=1;whiteSpace=wrap;html=1;fillColor=#dae8fc;strokeColor=#6c8ebf;gradientColor=#7ea6e0;" vertex="1" parent="1">
          <mxGeometry x="315.51" y="7689" width="59.25" height="33" as="geometry" />
        </mxCell>
        <mxCell id="dNV8rXrrPTFe7oQsCCH1-130" value="黎明觉醒后台架构图" style="text;html=1;align=center;verticalAlign=middle;resizable=0;points=[];autosize=1;strokeColor=none;" vertex="1" parent="1">
          <mxGeometry x="654.75" y="7385" width="118" height="18" as="geometry" />
        </mxCell>
        <mxCell id="dNV8rXrrPTFe7oQsCCH1-131" value="手机终端" style="text;html=1;align=center;verticalAlign=middle;resizable=0;points=[];autosize=1;strokeColor=none;" vertex="1" parent="1">
          <mxGeometry x="421.88" y="7276" width="58" height="18" as="geometry" />
        </mxCell>
      </root>
    </mxGraphModel>
  </diagram>
</mxfile>
